{
.formatVersion = 3;
classes = (
{
code = "zero.dnom one.dnom two.dnom three.dnom four.dnom five.dnom six.dnom seven.dnom eight.dnom nine.dnom equal.dnom hyphen.dnom minus.dnom parenleft.dnom parenright.dnom plus.dnom";
name = dnom_frac;
},
{
code = "zero one two three four five six seven eight nine";
name = dnom_frac_numr_ordn_sinf_subs_sups;
},
{
code = "slash zero one two three four five six seven eight nine";
name = frac;
},
{
code = "A O a o zero.numr one.numr two.numr three.numr four.numr five.numr six.numr seven.numr eight.numr nine.numr equal.numr hyphen.numr minus.numr parenleft.numr parenright.numr plus.numr";
name = frac_ordn;
},
{
code = "ordfeminine ordmasculine ordfeminine ordmasculine zero.dnom one.dnom two.dnom three.dnom four.dnom five.dnom six.dnom seven.dnom eight.dnom nine.dnom equal.dnom hyphen.dnom minus.dnom parenleft.dnom parenright.dnom plus.dnom";
name = frac_ordn2;
},
{
code = "zero.numr one.numr two.numr three.numr four.numr five.numr six.numr seven.numr eight.numr nine.numr equal.numr hyphen.numr minus.numr parenleft.numr parenright.numr plus.numr";
name = frac_numr;
},
{
code = "zero.inferior one.inferior two.inferior three.inferior four.inferior five.inferior six.inferior seven.inferior eight.inferior nine.inferior plus.inferior minus.inferior equal.inferior parenleft.inferior parenright.inferior hyphen.inferior";
name = sinf_subs;
},
{
code = "zero.superior onesuperior twosuperior threesuperior four.superior five.superior six.superior seven.superior eight.superior nine.superior plus.superior minus.superior equal.superior parenleft.superior parenright.superior hyphen.superior";
name = sups;
},
{

glyphs = (
{
glyphname = .notdef;
layers = (
{
layerId = "CCC13C4D-3D6C-43F7-997A-F2ED370E8D32";
shapes = (
{
closed = 1;
nodes = (
(435,379,l),
(432,379,l),
(423,368,o),
(382,355,o),
(351,358,c),
(344,328,l),
(349,379,o),
(301,392,o),
(257,376,cs),
(216,361,o),
(185,323,o),
(173,264,cs),
(155,174,o),
(207,157,o),
(241,157,cs),
(283,157,o),
(301,184,o),
(316,212,c),
(313,195,o),
(312,166,o),
(337,161,c),
(402,161,l),
(402,162,o),
(402,162,o),
(402,162,c),
(388,172,o),
(387,179,o),
(394,208,cs)
);
},
{
closed = 1;
nodes = (
(326,256,ls),
(317,219,o),
(288,168,o),
(266,168,cs),
(249,168,o),
(242,199,o),
(260,274,cs),
(276,337,o),
(294,367,o),
(316,367,cs),
(343,367,o),
(341,319,o),
(334,288,cs)
);
},
{
closed = 1;
nodes = (
(472,380,o),
(434,380,o),
(434,380,c),
(429,375,l),
(476,375,l),
(443,209,ls),
(437,180,o),
(433,173,o),
(415,163,c),
(531,162,l),
(522,168,o),
(518,174,o),
(518,184,cs),
(518,191,o),
(520,198,o),
(522,209,cs),
(556,373,l),
(556,373,o),
(537,380,o),
(527,396,cs),
(505,432,o),
(556,471,o),
(602,480,cs),
(641,487,o),
(703,477,o),
(693,438,c),
(693,438,o),
(696,438,o),
(697,438,c),
(707,482,o),
(648,493,o),
(600,485,cs),
(540,475,o),
(488,433,o),
(478,380,c)
);
},
{
closed = 1;
nodes = (
(686,384,l),
(697,438,l),
(693,438,l),
(684,410,o),
(625,378,o),
(585,377,c),
(584,374,l),
(605,374,l),
(572,219,ls),
(566,191,o),
(566,157,o),
(622,157,cs),
(667,157,o),
(690,179,o),
(706,219,c),
(706,219,o),
(704,226,o),
(704,231,c),
(700,220,o),
(681,177,o),
(655,177,cs),
(644,177,o),
(644,185,o),
(649,209,cs),
(683,374,l),
(731,374,l),
(733,384,l)
);
},
{
closed = 1;
nodes = (
(152,384,l),
(163,438,l),
(159,438,l),
(150,410,o),
(91,378,o),
(51,377,c),
(50,374,l),
(71,374,l),
(38,219,ls),
(32,191,o),
(32,157,o),
(88,157,cs),
(133,157,o),
(156,179,o),
(172,219,c),
(172,219,o),
(171,228,o),
(171,233,c),
(167,222,o),
(147,177,o),
(121,177,cs),
(110,177,o),
(110,185,o),
(115,209,cs),
(149,374,l),
(197,374,l),
(199,384,l)
);
},
{
closed = 1;
nodes = (
(316,23,o),
(310,20,o),
(310,11,cs),
(310,2,o),
(316,-2,o),
(322,-2,cs),
(328,-2,o),
(334,2,o),
(334,11,cs),
(334,20,o),
(328,23,o),
(322,23,cs)
);
},
{
closed = 1;
nodes = (
(335,92,l),
(362,0,l),
(383,0,l),
(401,70,l),
(420,0,l),
(440,0,l),
(468,92,l),
(450,92,l),
(433,25,l),
(432,23,o),
(432,21,o),
(432,20,c),
(429,20,l),
(429,21,o),
(428,23,o),
(428,25,c),
(413,92,l),
(390,92,l),
(375,25,l),
(375,23,o),
(374,21,o),
(374,20,c),
(371,20,l),
(371,21,o),
(370,23,o),
(370,25,c),
(353,92,l)
);
},
{
closed = 1;
nodes = (
(490,93,o),
(474,82,o),
(474,46,cs),
(474,10,o),
(490,-1,o),
(517,-1,cs),
(544,-1,o),
(562,10,o),
(562,46,cs),
(562,82,o),
(544,93,o),
(517,93,cs)
);
},
{
closed = 1;
nodes = (
(500,13,o),
(491,23,o),
(491,47,cs),
(491,71,o),
(500,79,o),
(516,79,cs),
(534,79,o),
(544,70,o),
(544,46,cs),
(544,22,o),
(534,13,o),
(517,13,cs)
);
},
{
closed = 1;
nodes = (
(633,92,l),
(631,93,o),
(629,93,o),
(629,93,cs),
(606,93,o),
(595,80,o),
(595,69,c),
(591,92,l),
(577,90,l),
(577,0,l),
(595,0,l),
(595,50,ls),
(595,68,o),
(606,78,o),
(622,78,cs),
(627,78,o),
(632,77,o),
(633,76,c)
);
},
{
closed = 1;
nodes = (
(662,0,l),
(662,34,l),
(674,46,l),
(707,0,l),
(728,0,l),
(687,58,l),
(724,92,l),
(699,92,l),
(662,53,l),
(662,128,l),
(645,126,l),
(645,0,l)
);
}
);
width = 755;
}
);
},
{
glyphname = m;
layers = (
{
anchors = (
{
name = top;
position = "{472, 520}";
},
{
name = bottom;
position = "{472, -20}";
}
);
layerId = "CCC13C4D-3D6C-43F7-997A-F2ED370E8D32";
shapes = (
{
closed = 1;
nodes = (
(94,0,l,{name = ab01;}),
(184,0,l,{name = sh01;}),
(184,500,l,{name = av01;}),
(94,500,l)
);
},
{
closed = 1;
nodes = (
(177,274,l),
(184,217,l,{name = iv01;}),
(184,357.203,o),
(235,450,o),
(336,450,cs,{name = sv01;}),
(404,450,o),
(427,407.812,o),
(427,294.308,cs),
(427,0,l,{name = ab01;}),
(517,0,l),
(517,304,ls),
(517,448,o),
(466,520,o),
(366,520,cs,{name = at01;}),
(268,520,o),
(197,451,o),
(176,342,c)
);
},
{
closed = 1;
nodes = (
(509,274,l),
(517,217,l,{name = iv01;}),
(517,357.203,o),
(568,450,o),
(668,450,cs,{name = sv01;}),
(736,450,o),
(759,407.812,o),
(759,294.308,cs),
(759,0,l,{name = ab01;}),
(849,0,l),
(849,304,ls),
(849,448,o),
(798,520,o),
(698,520,cs,{name = at01;}),
(600,520,o),
(529,451,o),
(508,342,c)
);
}
);
width = 943;
}
);
leftKerningGroup = i;
rightKerningGroup = h;
unicode = 109;
},
{
glyphname = u;
layers = (
{
anchors = (
{
name = top;
position = "{300, 520}";
},
{
name = bottom;
position = "{300, -20}";
},
{
name = ogonek;
position = "{399, -3}";
}
);
layerId = "CCC13C4D-3D6C-43F7-997A-F2ED370E8D32";
shapes = (
{
closed = 1;
nodes = (
(86,500,l,{name = av01;}),
(86,185,ls),
(86,62,o),
(165,-20,o),
(300,-20,cs,{name = dv01;}),
(436,-20,o),
(513,65,o),
(513,185,cs),
(513,500,l,{name = av02;}),
(423,500,l),
(423,184.298,ls),
(423,91.091,o),
(378,50,o),
(301,50,cs,{name = dv02;}),
(225,50,o),
(176,88.085,o),
(176,184.298,cs),
(176,500,l)
);
}
);
width = 600;
}
);
leftKerningGroup = u;
unicode = 117;
},
{
glyphname = h;
layers = (
{
anchors = (
{
name = bottom;
position = "{318, -20}";
},
{
name = top;
position = "{139, 750}";
}
);
layerId = "CCC13C4D-3D6C-43F7-997A-F2ED370E8D32";
shapes = (
{
closed = 1;
nodes = (
(94,0,l,{name = ab03;}),
(184,0,l),
(184,750,l,{name = ab01;}),
(94,750,l)
);
},
{
closed = 1;
nodes = (
(177,274,l),
(184,217,l,{name = iv01;}),
(184,357.203,o),
(240,450,o),
(350,450,cs,{name = sv01;}),
(425,450,o),
(451,407.812,o),
(451,294.308,cs),
(451,0,l,{name = ab01;}),
(541,0,l),
(541,304,ls),
(541,448,o),
(486,520,o),
(372,520,cs,{name = at01;}),
(275,520,o),
(199,451,o),
(176,342,c)
);
}
);
width = 635;
}
);
leftKerningGroup = b;
rightKerningGroup = h;
unicode = 104;
},
{
glyphname = l;
layers = (
{
anchors = (
{
name = top;
position = "{148, 750}";
},
{
name = bottom;
position = "{200, -20}";
},
{
name = topright;
position = "{240, 750}";
}
);
layerId = "CCC13C4D-3D6C-43F7-997A-F2ED370E8D32";
shapes = (
{
closed = 1;
nodes = (
(299,68,l),
(279,59,o),
(254,53,o),
(233,53,cs,{name = dv02;}),
(199,53,o),
(189,68,o),
(189,141,cs),
(189,750,l,{name = ab01;}),
(99,750,l),
(99,132,ls),
(99,30,o),
(135,-20,o),
(224,-20,cs,{name = dv01;}),
(249,-20,o),
(272,-16,o),
(315,2,c)
);
}
);
width = 350;
}
);
leftKerningGroup = b;
rightKerningGroup = l;
unicode = 108;
},
{
glyphname = p;
layers = (
{
anchors = (
{
name = bottom;
position = "{351, -20}";
},
{
name = top;
position = "{342, 520}";
}
);
layerId = "CCC13C4D-3D6C-43F7-997A-F2ED370E8D32";
shapes = (
{
closed = 1;
nodes = (
(183,500,l,{name = av02;}),
(93,500,l),
(93,-200,l,{name = av01;}),
(183,-200,l)
);
},
{
closed = 1;
nodes = (
(161,108,o),
(227,-20,o),
(347,-20,cs,{name = dv01;}),
(489,-20,o),
(575,99,o),
(575,255,cs),
(575,411,o),
(498,520,o),
(353,520,cs,{name = at01;}),
(230,520,o),
(161,402,o),
(161,255,cs)
);
},
{
closed = 1;
nodes = (
(485,130.2,o),
(428,50,o),
(338,50,cs,{name = dv02;}),
(246,50,o),
(183,141.228,o),
(183,256.516,cs),
(183,369.8,o),
(248,450,o),
(339,450,cs,{name = sv01;}),
(431,450,o),
(485,378.822,o),
(485,255.514,cs)
);
}
);
width = 635;
}
);
leftKerningGroup = i;
rightKerningGroup = b1;
unicode = 112;
},
{
glyphname = d;
layers = (
{
anchors = (
{
name = top;
position = "{290, 750}";
},
{
name = bottom;
position = "{295, -20}";
},
{
name = topright;
position = "{570, 750}";
}
);
layerId = "CCC13C4D-3D6C-43F7-997A-F2ED370E8D32";
shapes = (
{
closed = 1;
nodes = (
(452,0,l,{name = ab02;}),
(542,0,l),
(542,750,l,{name = ab01;}),
(452,750,l)
);
},
{
closed = 1;
nodes = (
(474,422,o),
(405,520,o),
(282,520,cs,{name = at01;}),
(137,520,o),
(60,411,o),
(60,255,cs),
(60,99,o),
(146,-20,o),
(288,-20,cs,{name = dv01;}),
(408,-20,o),
(474,78,o),
(474,255,cs)
);
},
{
closed = 1;
nodes = (
(150,378.822,o),
(201,450,o),
(296,450,cs,{name = sv01;}),
(387,450,o),
(452,369.799,o),
(452,256.516,cs),
(452,141.228,o),
(389,50,o),
(297,50,cs,{name = dv02;}),
(207,50,o),
(150,130.201,o),
(150,255.514,cs)
);
}
);
width = 635;
}
);
leftKerningGroup = a;
unicode = 100;
},
{
glyphname = o;
layers = (
{
anchors = (
{
name = ogonek;
position = "{410, -3}";
},
{
name = top;
position = "{308, 520}";
},
{
name = bottom;
position = "{308, -20}";
},
{
name = topgr;
position = "{308, 520}";
}
);
layerId = "CCC13C4D-3D6C-43F7-997A-F2ED370E8D32";
shapes = (
{
closed = 1;
nodes = (
(69,79,o),
(153,-20,o),
(302,-20,cs,{name = dv01;}),
(464,-20,o),
(547,79,o),
(547,255,cs),
(547,421,o),
(464,520,o),
(303,520,cs,{name = at01;}),
(153,520,o),
(69,421,o),
(69,255,cs)
);
},
{
closed = 1;
nodes = (
(457,115.327,o),
(408,50,o),
(304,50,cs,{name = dv02;}),
(207,50,o),
(159,118.342,o),
(159,255.025,cs),
(159,387.688,o),
(206,450,o),
(306,450,cs,{name = sv01;}),
(407,450,o),
(457,383.668,o),
(457,253.015,cs)
);
}
);
width = 616;
}
);
leftKerningGroup = a;
rightKerningGroup = b1;
unicode = 111;
},
{
glyphname = q;
layers = (
{
anchors = (
{
name = bottom;
position = "{300, -20}";
},
{
name = top;
position = "{294, 520}";
}
);
layerId = "CCC13C4D-3D6C-43F7-997A-F2ED370E8D32";
shapes = (
{
closed = 1;
nodes = (
(452,-200,l),
(542,-200,l),
(542,500,l),
(452,500,l)
);
},
{
closed = 1;
nodes = (
(474,422,o),
(405,520,o),
(282,520,cs,{name = at01;}),
(137,520,o),
(60,411,o),
(60,255,cs),
(60,99,o),
(146,-20,o),
(288,-20,cs,{name = dv01;}),
(408,-20,o),
(474,78,o),
(474,255,cs)
);
},
{
closed = 1;
nodes = (
(150,375.815,o),
(206,450,o),
(296,450,cs,{name = sv01;}),
(387,450,o),
(452,369.799,o),
(452,256.516,cs),
(452,141.228,o),
(389,50,o),
(297,50,cs,{name = dv02;}),
(209,50,o),
(150,133.208,o),
(150,255.514,cs)
);
}
);
width = 635;
}
);
leftKerningGroup = a;
unicode = 113;
},
{
glyphname = b;
layers = (
{
anchors = (
{
name = bottom;
position = "{345, -20}";
},
{
name = top;
position = "{353, 750}";
}
);
layerId = "CCC13C4D-3D6C-43F7-997A-F2ED370E8D32";
shapes = (
{
closed = 1;
nodes = (
(183,0,l,{name = ab02;}),
(183,750,l,{name = ab01;}),
(93,750,l,{name = sh01;}),
(93,0,l)
);
},
{
closed = 1;
nodes = (
(161,78,o),
(227,-20,o),
(351.646,-20,cs,{name = dv01;}),
(489,-20,o),
(575,99,o),
(575,255,cs),
(575,411,o),
(498,520,o),
(360.437,520,cs,{name = at01;}),
(230,520,o),
(161,422,o),
(161,255,cs)
);
},
{
closed = 1;
nodes = (
(485,132.206,o),
(427,50,o),
(338,50,cs,{name = dv02;}),
(246,50,o),
(183,138.221,o),
(183,255.514,cs),
(183,368.797,o),
(248,450,o),
(339,450,cs,{name = sv01;}),
(430,450,o),
(485,376.817,o),
(485,255.514,cs)
);
}
);
width = 635;
}
);
leftKerningGroup = b;
rightKerningGroup = b1;
unicode = 98;
},
{
glyphname = c;
layers = (
{
anchors = (
{
name = top;
position = "{303, 520}";
},
{
name = bottom;
position = "{303, -20}";
}
);
layerId = "CCC13C4D-3D6C-43F7-997A-F2ED370E8D32";
shapes = (
{
closed = 1;
nodes = (
(197,50,o),
(149,118.342,o),
(149,255.025,cs),
(149,387.688,o),
(196,450,o),
(296,450,cs,{name = sv01;}),
(355,450,o),
(411,423.639,o),
(447,377,c),
(500,430,l),
(459,483,o),
(387,520,o),
(293,520,cs,{name = at01;}),
(143,520,o),
(59,421,o),
(59,255,cs),
(59,79,o),
(145,-20,o),
(294,-20,cs,{name = dv01;}),
(390,-20,o),
(465,17,o),
(506,70,c),
(453,123,l),
(417,76.361,o),
(356,50,o),
(294,50,cs,{name = dv02;})
);
}
);
width = 563;
}
);
leftKerningGroup = a;
rightKerningGroup = b1;
unicode = 99;
},
{
glyphname = e;
layers = (
{
anchors = (
{
name = top;
position = "{299, 520}";
},
{
name = bottom;
position = "{299, -20}";
},
{
name = ogonek;
position = "{418, -3}";
}
);
layerId = "CCC13C4D-3D6C-43F7-997A-F2ED370E8D32";
shapes = (
{
closed = 1;
nodes = (
(152,296,l,{name = sv02;}),
(162,398.329,o),
(221.207,450,o),
(303.495,450,cs,{name = sv01;}),
(385.782,450,o),
(437.965,398.329,o),
(448,296,c,{name = dv04;})
);
},
{
closed = 1;
nodes = (
(404,-20,o),
(476,17,o),
(517,70,c),
(464,123,l),
(427.886,76.361,o),
(373.714,50,o),
(309.511,50,cs,{name = dv02;}),
(199.162,50,o),
(148,128.419,o),
(148,237,c,{name = sv04;}),
(541,237,l,{name = dv03;}),
(541,421,o),
(456,520,o),
(304,520,cs,{name = at01;}),
(157,520,o),
(58,427,o),
(58,251,cs,{name = sv03;}),
(58,72,o),
(160,-20,o),
(309,-20,cs,{name = dv01;})
);
}
);
width = 598;
}
);
leftKerningGroup = a;
rightKerningGroup = b1;
unicode = 101;
},
{
glyphname = f;
layers = (
{
anchors = (
{
name = top;
position = "{250, 750}";
},
{
name = bottom;
position = "{183, -20}";
}
);
layerId = "CCC13C4D-3D6C-43F7-997A-F2ED370E8D32";
shapes = (
{
closed = 1;
nodes = (
(139,430,l,{name = dv03;}),
(139,0,l,{name = ab01;}),
(229,0,l),
(229,430,l,{name = sv01;}),
(370,430,l),
(370,500,l,{name = sv02;}),
(229,500,l),
(229,609,ls),
(229,670,o),
(248,680,o),
(280,680,cs,{name = dv01;}),
(301,680,o),
(337,676,o),
(361,668,c),
(376,728,l),
(324,745.217,o),
(299,750,o),
(271,750,cs,{name = dv02;}),
(188,750,o),
(139,708.167,o),
(139,607.57,cs),
(139,500,l,{name = dv04;}),
(32,500,l),
(32,430,l)
);
}
);
width = 423;
}
);
leftKerningGroup = f;
rightKerningGroup = f1;
unicode = 102;
},
{
glyphname = r;
layers = (
{
anchors = (
{
name = top;
position = "{235, 520}";
},
{
name = bottom;
position = "{132, -20}";
}
);
layerId = "CCC13C4D-3D6C-43F7-997A-F2ED370E8D32";
shapes = (
{
closed = 1;
nodes = (
(94,500,l,{name = av01;}),
(94,0,l,{name = ab01;}),
(184,0,l),
(184,226,ls),
(184,329,o),
(226,450,o),
(375,450,c,{name = sv01;}),
(375,520,l,{name = at01;}),
(272,518,o),
(209,465,o),
(184,385,c,{name = iv01;}),
(184,500,l)
);
}
);
width = 422;
}
);
leftKerningGroup = i;
rightKerningGroup = r;
unicode = 114;
},
{
glyphname = t;
layers = (
{
anchors = (
{
name = top;
position = "{165, 630}";
},
{
name = bottom;
position = "{220, -20}";
},
{
name = topright;
position = "{254, 700}";
}
);
layerId = "CCC13C4D-3D6C-43F7-997A-F2ED370E8D32";
shapes = (
{
closed = 1;
nodes = (
(20,500,l,{name = dv04;}),
(20,430,l,{name = dv03;}),
(325,430,l),
(325,500,l)
);
},
{
closed = 1;
nodes = (
(210,620,l,{name = av01;}),
(120,620,l),
(120,132,ls),
(120,29,o),
(155,-21,o),
(227,-21,cs,{name = dv01;}),
(257,-21,o),
(286,-12,o),
(333,7,c),
(314,69,l),
(282,54.263,o),
(267,49,o),
(251,49,cs,{name = dv02;}),
(220,49,o),
(210,69.034,o),
(210,131.141,cs)
);
}
);
width = 365;
}
);
leftKerningGroup = f;
rightKerningGroup = l;
unicode = 116;
},
{
glyphname = k;
layers = (
{
anchors = (
{
name = bottom;
position = "{297, -20}";
},
{
name = top;
position = "{130, 750}";
}
);
layerId = "CCC13C4D-3D6C-43F7-997A-F2ED370E8D32";
shapes = (
{
closed = 1;
nodes = (
(174,0,l,{name = ab02;}),
(174,750,l,{name = ab01;}),
(84,750,l),
(84,0,l,{name = sv03;})
);
},
{
closed = 1;
nodes = (
(350,299,l,{name = iv02;}),
(88,299,l),
(95,234,l),
(342,234,l,{name = iv01;}),
(446,0,l,{name = ab02;}),
(548,0,l),
(408,263,l),
(534,500,l,{name = av02;}),
(439,500,l)
);
}
);
width = 594;
}
);
leftKerningGroup = b;
rightKerningGroup = k;
unicode = 107;
},
{
glyphname = a;
layers = (
{
anchors = (
{
name = top;
position = "{322, 520}";
},
{
name = bottom;
position = "{323, -20}";
},
{
name = ogonek;
position = "{549, -3}";
}
);
layerId = "CCC13C4D-3D6C-43F7-997A-F2ED370E8D32";
shapes = (
{
closed = 1;
nodes = (
(462,0,l,{name = ab01;}),
(552,0,l),
(552,500,l,{name = av01;}),
(462,500,l)
);
},
{
closed = 1;
nodes = (
(484,422,o),
(412,520,o),
(279,520,cs,{name = at01;}),
(139,520,o),
(60,411,o),
(60,259,cs),
(60,99,o),
(148,-20,o),
(288,-20,cs,{name = dv01;}),
(415,-20,o),
(484,78,o),
(484,248,cs)
);
},
{
closed = 1;
nodes = (
(150,377.82,o),
(206,450,o),
(298,450,cs,{name = sv01;}),
(395,450,o),
(462,369.799,o),
(462,253.509,cs),
(462,139.223,o),
(397,50,o),
(301,50,cs,{name = dv02;}),
(209,50,o),
(150,131.203,o),
(150,256.516,cs)
);
}
);
width = 645;
}
);
leftKerningGroup = a;
rightKerningGroup = a1;
unicode = 97;
},
{
glyphname = v;
layers = (
{
anchors = (
{
name = top;
position = "{275, 520}";
},
{
name = bottom;
position = "{275, -20}";
}
);
layerId = "CCC13C4D-3D6C-43F7-997A-F2ED370E8D32";
shapes = (
{
closed = 1;
nodes = (
(275,92,l),
(134,500,l),
(35,500,l),
(227,0,l),
(323,0,l),
(515,500,l),
(416,500,l)
);
}
);
width = 550;
}
);
leftKerningGroup = v;
rightKerningGroup = v1;
unicode = 118;
},
{
glyphname = w;
layers = (
{
anchors = (
{
name = top;
position = "{427, 520}";
},
{
name = bottom;
position = "{427, -20}";
}
);
layerId = "CCC13C4D-3D6C-43F7-997A-F2ED370E8D32";
shapes = (
{
closed = 1;
nodes = (
(264,108,l),
(136,500,l),
(37,500,l),
(219,0,l),
(305,0,l),
(427,404,l),
(549,0,l),
(635,0,l),
(817,500,l),
(718,500,l),
(590,108,l),
(467,500,l),
(387,500,l)
);
}
);
width = 854;
}
);
leftKerningGroup = v;
rightKerningGroup = v1;
unicode = 119;
},
{
glyphname = x;
layers = (
{
anchors = (
{
name = top;
position = "{287, 520}";
},
{
name = bottom;
position = "{287, -20}";
}
);
layerId = "CCC13C4D-3D6C-43F7-997A-F2ED370E8D32";
shapes = (
{
closed = 1;
nodes = (
(61,500,l,{name = av01;}),
(232.17,236.42,l),
(222.18,261.573,l),
(52,0,l,{name = ab01;}),
(159,0,l),
(287,222,l,{name = iv01;}),
(415,0,l,{name = ab02;}),
(524,0,l),
(360.059,262.726,l),
(350.059,237.274,l),
(514,500,l,{name = av02;}),
(406,500,l),
(270.508,265.005,l,{name = iv02;}),
(305.492,265.005,l),
(170,500,l)
);
}
);
width = 574;
}
);
leftKerningGroup = x;
rightKerningGroup = k;
unicode = 120;
},
{
glyphname = y;
layers = (
{
anchors = (
{
name = top;
position = "{313, 520}";
},
{
name = bottom;
position = "{536, -59}";
}
);
layerId = "CCC13C4D-3D6C-43F7-997A-F2ED370E8D32";
shapes = (
{
closed = 1;
nodes = (
(443,243,l,{name = iv01;}),
(443,131,o),
(382,70,o),
(290,70,cs,{name = sv01;}),
(197,70,o),
(174,133,o),
(174,246,cs),
(174,500,l,{name = av01;}),
(84,500,l),
(84,216,ls),
(84,83,o),
(155,0,o),
(268,0,cs,{name = ab01;}),
(373,0,o),
(438,72,o),
(450,150,c)
);
},
{
closed = 1;
nodes = (
(451,-220,o),
(533,-121,o),
(533,52,cs),
(533,500,l,{name = av01;}),
(443,500,l),
(443,36.287,ls),
(443,-117.951,o),
(375,-150,o),
(295,-150,cs,{name = dv02;}),
(222,-150,o),
(167,-123.639,o),
(131,-77,c),
(78,-130,l),
(119,-183,o),
(191,-220,o),
(290,-220,cs,{name = dv01;})
);
}
);
width = 626;
}
);
leftKerningGroup = u;
rightKerningGroup = y;
unicode = 121;
},
{
glyphname = z;
layers = (
{
anchors = (
{
name = top;
position = "{241, 520}";
},
{
name = bottom;
position = "{241, -20}";
}
);
layerId = "CCC13C4D-3D6C-43F7-997A-F2ED370E8D32";
shapes = (
{
closed = 1;
nodes = (
(38,0,l,{name = ab01;}),
(445,0,l),
(445,70,l,{name = sv01;}),
(156,70,l),
(445,440,l),
(445,500,l),
(58,500,l,{name = dv02;}),
(58,430,l,{name = dv01;}),
(327,430,l),
(38,60,l)
);
}
);
width = 483;
}
);
leftKerningGroup = z1;
rightKerningGroup = z;
unicode = 122;
},
{
glyphname = E;
layers = (
{
anchors = (
{
name = top;
position = "{275, 719}";
},
{
name = bottom;
position = "{270, -20}";
},
{
name = ogonek;
position = "{482, -2}";
},
{
name = topgr;
position = "{-18, 500}";
}
);
layerId = "CCC13C4D-3D6C-43F7-997A-F2ED370E8D32";
shapes = (
{
closed = 1;
nodes = (
(485,0,l,{name = ab01;}),
(485,80,l,{name = sv01;}),
(174,80,l),
(174,325,l,{name = dv01;}),
(445,325,l),
(445,405,l),
(174,405,l,{name = dv02;}),
(174,620,l,{name = sv02;}),
(471,620,l),
(471,700,l,{name = at01;}),
(84,700,l),
(84,0,l)
);
}
);
width = 550;
}
);
leftKerningGroup = B;
rightKerningGroup = E;
unicode = 69;
},
{
glyphname = g;
layers = (
{
anchors = (
{
name = bottom;
position = "{308, -220}";
},
{
name = top;
position = "{317, 520}";
}
);
layerId = "CCC13C4D-3D6C-43F7-997A-F2ED370E8D32";
shapes = (
{
closed = 1;
nodes = (
(474,422,o),
(405,520,o),
(275,520,cs,{name = at01;}),
(137,520,o),
(60,411,o),
(60,259,cs),
(60,99,o),
(146,-20,o),
(280,-20,cs,{name = dv01;}),
(408,-20,o),
(474,88,o),
(474,253,cs)
);
},
{
closed = 1;
nodes = (
(150,377.82,o),
(204,450,o),
(293,450,cs,{name = sv01;}),
(386,450,o),
(451,369.799,o),
(451,254.511,cs),
(451,141.228,o),
(388,50,o),
(295,50,cs,{name = dv02;}),
(208,50,o),
(150,131.203,o),
(150,256.516,cs)
);
},
{
closed = 1;
nodes = (
(459,-220,o),
(541,-121,o),
(541,52,cs),
(541,500,l,{name = av01;}),
(451,500,l),
(451,36.287,ls),
(451,-117.951,o),
(383,-150,o),
(303,-150,cs,{name = dv02;}),
(230,-150,o),
(175,-123.639,o),
(139,-77,c),
(86,-130,l),
(127,-183,o),
(199,-220,o),
(298,-220,c,{name = dv01;})
);
}
);
width = 634;
}
);
leftKerningGroup = a;
unicode = 103;
},
{
glyphname = D;
layers = (
{
anchors = (
{
name = top;
position = "{328, 719}";
},
{
name = bottom;
position = "{328, -20}";
}
);
layerId = "CCC13C4D-3D6C-43F7-997A-F2ED370E8D32";
shapes = (
{
closed = 1;
nodes = (
(174,80,l,{name = sv01;}),
(174,620,l,{name = sv02;}),
(334.439,620,ls),
(490.916,620,o),
(585,518,o),
(585,349,cs),
(585,181,o),
(490.916,80,o),
(334.439,80,cs)
);
},
{
closed = 1;
nodes = (
(84,0,l,{name = ab01;}),
(343,0,ls),
(543,0,o),
(679,142,o),
(679,350,cs),
(679,557,o),
(542,700,o),
(343,700,cs,{name = at01;}),
(84,700,l)
);
}
);
width = 742;
}
);
leftKerningGroup = B;
rightKerningGroup = C;
unicode = 68;
},
{
glyphname = F;
layers = (
{
anchors = (
{
name = top;
position = "{270, 719}";
},
{
name = bottom;
position = "{281, -20}";
}
);
layerId = "CCC13C4D-3D6C-43F7-997A-F2ED370E8D32";
shapes = (
{
closed = 1;
nodes = (
(174,0,l,{name = ab01;}),
(174,310,l,{name = dv01;}),
(434,310,l),
(434,390,l),
(174,390,l,{name = dv02;}),
(174,620,l,{name = sv01;}),
(474,620,l),
(474,700,l,{name = at01;}),
(84,700,l,{name = dh01;}),
(84,0,l)
);
}
);
width = 540;
}
);
leftKerningGroup = B;
rightKerningGroup = F;
unicode = 70;
},
{
glyphname = A;
layers = (
{
anchors = (
{
name = top;
position = "{328, 719}";
},
{
name = bottom;
position = "{328, -20}";
},
{
name = ogonek;
position = "{620, -3}";
},
{
name = topgr;
position = "{106, 500}";
}
);
layerId = "CCC13C4D-3D6C-43F7-997A-F2ED370E8D32";
shapes = (
{
closed = 1;
nodes = (
(143,141,l,{name = dv01;}),
(509,141,l),
(475,216,l,{name = dv03;}),
(177,216,l,{name = dv02;})
);
},
{
closed = 1;
nodes = (
(259,700,l),
(32,0,l),
(128,0,l),
(342,700,l)
);
},
{
closed = 1;
nodes = (
(313,700,l),
(527,0,l),
(623,0,l),
(396,700,l)
);
}
);
width = 655;
}
);
leftKerningGroup = A1;
rightKerningGroup = A;
unicode = 65;
},
{
glyphname = B;
layers = (
{
anchors = (
{
name = top;
position = "{288, 719}";
},
{
name = bottom;
position = "{328, -20}";
}
);
layerId = "CCC13C4D-3D6C-43F7-997A-F2ED370E8D32";
shapes = (
{
closed = 1;
nodes = (
(88,0,l,{name = ab01;}),
(356,0,ls),
(489,0,o),
(584,73,o),
(584,196,cs),
(584,312,o),
(499,372,o),
(345,372,c,{name = dv02;}),
(472,372,o),
(538,425,o),
(538,526,cs),
(538,636,o),
(461,700,o),
(332,700,cs,{name = at01;}),
(88,700,l)
);
},
{
closed = 1;
nodes = (
(328,330,ls,{name = dv01;}),
(448,330,o),
(493,287,o),
(493,207,cs),
(493,127,o),
(447,80,o),
(327,80,cs,{name = sv01;}),
(178,80,l),
(178,620,l,{name = sv02;}),
(317,620,ls),
(407,620,o),
(447,589,o),
(447,520,cs,{name = sv04;}),
(447,451,o),
(406,406,o),
(317,406,cs,{name = sv03;}),
(100,406,l),
(100,330,l)
);
}
);
width = 634;
}
);
leftKerningGroup = B;
rightKerningGroup = B1;
unicode = 66;
},
{
glyphname = H;
layers = (
{
anchors = (
{
name = bottom;
position = "{368, -20}";
},
{
name = top;
position = "{368, 719}";
},
{
name = topgr;
position = "{-18, 500}";
}
);
layerId = "CCC13C4D-3D6C-43F7-997A-F2ED370E8D32";
shapes = (
{
closed = 1;
nodes = (
(97,0,l,{name = ab01;}),
(187,0,l),
(187,330,l,{name = dv01;}),
(549,330,l),
(549,0,l,{name = ab02;}),
(639,0,l),
(639,700,l,{name = at01;}),
(549,700,l),
(549,410,l),
(187,410,l,{name = dv02;}),
(187,700,l,{name = at02;}),
(97,700,l)
);
}
);
width = 736;
}
);
leftKerningGroup = B;
rightKerningGroup = H;
unicode = 72;
},
{
glyphname = C;
layers = (
{
anchors = (
{
name = bottom;
position = "{401, -20}";
},
{
name = top;
position = "{381, 719}";
}
);
layerId = "CCC13C4D-3D6C-43F7-997A-F2ED370E8D32";
shapes = (
{
closed = 1;
nodes = (
(483,-20,o),
(563,18,o),
(637,102,c),
(579,160,l),
(527.477,93,o),
(460.101,60,o),
(385.789,60,cs,{name = dv02;}),
(243.11,60,o),
(147,182,o),
(147,366,cs),
(147,542,o),
(234.193,640,o),
(373.899,640,cs,{name = dv03;}),
(453.165,640,o),
(517.569,609,o),
(579,541,c),
(637,599,l),
(572,681,o),
(487,720,o),
(378,720,cs,{name = dv04;}),
(172,720,o),
(53,581,o),
(53,365,cs),
(53,135,o),
(187,-20,o),
(385,-20,cs,{name = dv01;})
);
}
);
width = 694;
}
);
leftKerningGroup = C1;
rightKerningGroup = C;
unicode = 67;
},
{
glyphname = G;
layers = (
{
anchors = (
{
name = top;
position = "{393, 719}";
},
{
name = bottom;
position = "{393, -20}";
}
);
layerId = "CCC13C4D-3D6C-43F7-997A-F2ED370E8D32";
shapes = (
{
closed = 1;
nodes = (
(617,286,l,{name = dv05;}),
(617,0,l),
(707,0,l),
(707,366,l,{name = dv06;}),
(351,366,l,{name = av02;}),
(351,286,l,{name = av03;})
);
},
{
closed = 1;
nodes = (
(477.154,640,o),
(541.581,609.694,o),
(607,541,c),
(665,599,l),
(598,681,o),
(500,720,o),
(387,720,cs,{name = dv04;}),
(187,720,o),
(63,597,o),
(63,350,cs),
(63,105,o),
(194,-20,o),
(373,-20,cs,{name = dv01;}),
(523,-20,o),
(633,92,o),
(632,233,c),
(632,289,l),
(618,363,l,{name = av01;}),
(618,357,o),
(618,307,o),
(618,307,cs,{name = dv07;}),
(618,156.39,o),
(537.697,60,o),
(386.013,60,cs,{name = dv02;}),
(235.32,60,o),
(157,154.325,o),
(157,345.986,cs),
(157,540.657,o),
(238.278,640,o),
(392.903,640,cs,{name = dv03;})
);
}
);
width = 786;
}
);
leftKerningGroup = C1;
rightKerningGroup = G;
unicode = 71;
},
{
glyphname = L;
layers = (
{
anchors = (
{
name = top;
position = "{133, 719}";
},
{
name = bottom;
position = "{277, -20}";
}
);
layerId = "CCC13C4D-3D6C-43F7-997A-F2ED370E8D32";
shapes = (
{
closed = 1;
nodes = (
(88,0,l,{name = ab01;}),
(494,0,l),
(494,80,l,{name = sv01;}),
(178,80,l),
(178,700,l,{name = at01;}),
(88,700,l)
);
}
);
width = 554;
}
);
leftKerningGroup = B;
rightKerningGroup = L;
unicode = 76;
},
{
glyphname = I;
layers = (
{
anchors = (
{
name = top;
position = "{163, 719}";
},
{
name = bottom;
position = "{163, -20}";
},
{
name = ogonek;
position = "{205, -3}";
},
{
name = topgr;
position = "{1, 500}";
}
);
layerId = "CCC13C4D-3D6C-43F7-997A-F2ED370E8D32";
shapes = (
{
closed = 1;
nodes = (
(118,0,l,{name = ab01;}),
(208,0,l),
(208,700,l,{name = at01;}),
(118,700,l)
);
}
);
width = 326;
}
);
leftKerningGroup = B;
rightKerningGroup = H;
unicode = 73;
},
{
glyphname = O;
layers = (
{
anchors = (
{
name = top;
position = "{398, 719}";
},
{
name = bottom;
position = "{398, -20}";
},
{
name = ogonek;
position = "{524, -1}";
},
{
name = topgr;
position = "{16, 500}";
}
);
layerId = "CCC13C4D-3D6C-43F7-997A-F2ED370E8D32";
shapes = (
{
closed = 1;
nodes = (
(243.916,60,o),
(157,158.541,o),
(157,349.512,cs),
(157,531.827,o),
(243.916,640,o),
(394.043,640,cs,{name = dv03;}),
(556.023,640,o),
(638,543.671,o),
(638,350.003,cs,{name = dv05;}),
(638,170.384,o),
(549.109,60,o),
(399.969,60,cs,{name = dv02;})
);
},
{
closed = 1;
nodes = (
(63,109,o),
(202,-20,o),
(397,-20,cs,{name = dv01;}),
(593,-20,o),
(732,107,o),
(732,350,cs,{name = dv06;}),
(732,575,o),
(606,720,o),
(398,720,cs,{name = dv04;}),
(198,720,o),
(63,586,o),
(63,350,cs)
);
}
);
width = 795;
}
);
leftKerningGroup = C1;
rightKerningGroup = C;
unicode = 79;
},
{
glyphname = N;
layers = (
{
anchors = (
{
name = top;
position = "{376, 719}";
},
{
name = bottom;
position = "{376, -20}";
}
);
layerId = "CCC13C4D-3D6C-43F7-997A-F2ED370E8D32";
shapes = (
{
closed = 1;
nodes = (
(187,0,l,{name = ab01;}),
(187,554,l,{name = iv01;}),
(575,0,l,{name = ab02;}),
(655,0,l),
(655,700,l,{name = at01;}),
(565,700,l),
(565,146,l,{name = iv02;}),
(177,700,l,{name = at02;}),
(97,700,l),
(97,0,l)
);
}
);
width = 752;
}
);
leftKerningGroup = B;
rightKerningGroup = H;
unicode = 78;
},
{
glyphname = Q;
layers = (
{
anchors = (
{
name = top;
position = "{398, 719}";
},
{
name = bottom;
position = "{398, -20}";
},
{
name = ogonek;
position = "{524, -1}";
}
);
layerId = "CCC13C4D-3D6C-43F7-997A-F2ED370E8D32";
shapes = (
{
closed = 1;
nodes = (
(243.916,60,o),
(157,158.541,o),
(157,349.512,cs),
(157,531.827,o),
(243.916,640,o),
(394.043,640,cs,{name = dv03;}),
(556.023,640,o),
(638,543.671,o),
(638,350.003,cs,{name = dv05;}),
(638,170.384,o),
(549.109,60,o),
(399.969,60,cs,{name = dv02;})
);
},
{
closed = 1;
nodes = (
(63,109,o),
(202,-20,o),
(397,-20,cs,{name = dv01;}),
(593,-20,o),
(732,107,o),
(732,350,cs,{name = dv06;}),
(732,575,o),
(606,720,o),
(398,720,cs,{name = dv04;}),
(198,720,o),
(63,586,o),
(63,350,cs)
);
},
{
closed = 1;
nodes = (
(370,-3,l,{name = ab02;}),
(370,-166,o),
(422,-194,o),
(644,-194,c),
(644,-121,l),
(478,-121,o),
(453,-111,o),
(453,-3,c,{name = ab01;})
);
}
);
width = 795;
}
);
leftKerningGroup = C1;
rightKerningGroup = C;
unicode = 81;
},
{
glyphname = J;
layers = (
{
anchors = (
{
name = bottom;
position = "{278, -20}";
},
{
name = top;
position = "{448, 719}";
}
);
layerId = "CCC13C4D-3D6C-43F7-997A-F2ED370E8D32";
shapes = (
{
closed = 1;
nodes = (
(46,122,l),
(110,25,o),
(180,-20,o),
(279,-20,cs,{name = dv01;}),
(414,-20,o),
(491,64,o),
(491,222,cs),
(491,700,l,{name = at01;}),
(401,700,l),
(401,215,ls),
(401,117,o),
(356,60,o),
(274,60,cs,{name = dv02;}),
(208,60,o),
(154,97,o),
(104,180,c)
);
}
);
width = 580;
}
);
leftKerningGroup = J;
rightKerningGroup = J1;
unicode = 74;
},
{
glyphname = T;
layers = (
{
anchors = (
{
name = top;
position = "{324, 719}";
},
{
name = bottom;
position = "{324, -20}";
}
);
layerId = "CCC13C4D-3D6C-43F7-997A-F2ED370E8D32";
shapes = (
{
closed = 1;
nodes = (
(41,700,l,{name = at01;}),
(41,620,l,{name = sv01;}),
(279,620,l),
(279,0,l,{name = ab01;}),
(369,0,l),
(369,620,l,{name = sv02;}),
(607,620,l,{name = sv03;}),
(607,700,l)
);
}
);
width = 648;
}
);
leftKerningGroup = T;
rightKerningGroup = T1;
unicode = 84;
},
{
glyphname = U;
layers = (
{
anchors = (
{
name = top;
position = "{338, 719}";
},
{
name = bottom;
position = "{338, -20}";
},
{
name = ogonek;
position = "{448, -1}";
}
);
layerId = "CCC13C4D-3D6C-43F7-997A-F2ED370E8D32";
shapes = (
{
closed = 1;
nodes = (
(80,700,l,{name = at01;}),
(80,262,ls),
(80,88,o),
(171,-20,o),
(336,-20,cs,{name = dv01;}),
(501,-20,o),
(595,89,o),
(595,262,cs),
(595,700,l,{name = at02;}),
(505,700,l),
(505,264,ls),
(505,121,o),
(442,60,o),
(337,60,cs,{name = dv02;}),
(233,60,o),
(170,120,o),
(170,264,cs),
(170,700,l)
);
}
);
width = 675;
}
);
leftKerningGroup = U;
rightKerningGroup = J1;
unicode = 85;
},
{
glyphname = P;
layers = (
{
anchors = (
{
name = top;
position = "{322, 719}";
},
{
name = bottom;
position = "{322, -20}";
}
);
layerId = "CCC13C4D-3D6C-43F7-997A-F2ED370E8D32";
shapes = (
{
closed = 1;
nodes = (
(178,0,l,{name = ab01;}),
(178,237,l,{name = dv01;}),
(310,237,ls),
(483,237,o),
(585,328,o),
(585,472,cs),
(585,612,o),
(488,700,o),
(314,700,cs,{name = at01;}),
(88,700,l),
(88,0,l)
);
},
{
closed = 1;
nodes = (
(178,317,l,{name = dv02;}),
(178,620,l,{name = sv01;}),
(311,620,ls),
(439,620,o),
(495,576,o),
(495,474,cs),
(495,368,o),
(435,317,o),
(308,317,cs)
);
}
);
width = 644;
}
);
leftKerningGroup = B;
rightKerningGroup = P;
unicode = 80;
},
{
glyphname = R;
layers = (
{
anchors = (
{
name = top;
position = "{324, 719}";
},
{
name = bottom;
position = "{324, -20}";
}
);
layerId = "CCC13C4D-3D6C-43F7-997A-F2ED370E8D32";
shapes = (
{
closed = 1;
nodes = (
(178,0,l,{name = ab01;}),
(178,620,l,{name = sv01;}),
(340,620,ls),
(456,620,o),
(499,583,o),
(499,482,cs),
(499,381,o),
(456,344,o),
(339,344,cs),
(100,344,l,{name = dv02;}),
(100,264,l,{name = dv01;}),
(344,264,ls),
(495,264,o),
(589,348,o),
(589,484,cs),
(589,619,o),
(498,700,o),
(348,700,cs,{name = at01;}),
(88,700,l),
(88,0,l)
);
},
{
closed = 1;
nodes = (
(363,281,l),
(506,0,l,{name = ab02;}),
(607,0,l),
(437,333,l)
);
}
);
width = 648;
}
);
leftKerningGroup = B;
rightKerningGroup = R;
unicode = 82;
},
{
glyphname = K;
layers = (
{
anchors = (
{
name = top;
position = "{335, 719}";
},
{
name = bottom;
position = "{335, -20}";
}
);
layerId = "CCC13C4D-3D6C-43F7-997A-F2ED370E8D32";
shapes = (
{
closed = 1;
nodes = (
(88,700,l,{name = at01;}),
(88,0,l,{name = ab01;}),
(178,0,l),
(178,700,l)
);
},
{
closed = 1;
nodes = (
(338,399,l),
(101,399,l),
(110,318,l),
(350,318,l),
(519,0,l),
(623,0,l),
(411,367,l),
(619,700,l),
(512,700,l)
);
}
);
width = 670;
}
);
leftKerningGroup = B;
rightKerningGroup = K;
unicode = 75;
},
{
glyphname = V;
layers = (
{
anchors = (
{
name = top;
position = "{328, 719}";
},
{
name = bottom;
position = "{328, -20}";
}
);
layerId = "CCC13C4D-3D6C-43F7-997A-F2ED370E8D32";
shapes = (
{
closed = 1;
nodes = (
(396,0,l),
(623,700,l),
(527,700,l),
(313,0,l)
);
},
{
closed = 1;
nodes = (
(342,0,l),
(128,700,l),
(32,700,l),
(259,0,l)
);
}
);
width = 655;
}
);
leftKerningGroup = V1;
rightKerningGroup = V;
unicode = 86;
},
{
glyphname = W;
layers = (
{
anchors = (
{
name = top;
position = "{480, 719}";
},
{
name = bottom;
position = "{480, -20}";
}
);
layerId = "CCC13C4D-3D6C-43F7-997A-F2ED370E8D32";
shapes = (
{
closed = 1;
nodes = (
(228,0,l),
(304,0,l),
(122,700,l),
(27,700,l)
);
},
{
closed = 1;
nodes = (
(272,0,l),
(341,0,l),
(501,700,l),
(442,700,l)
);
},
{
closed = 1;
nodes = (
(620,0,l),
(689,0,l),
(519,700,l),
(460,700,l)
);
},
{
closed = 1;
nodes = (
(657,0,l),
(733,0,l),
(934,700,l),
(839,700,l)
);
}
);
width = 960;
}
);
leftKerningGroup = V1;
rightKerningGroup = V;
unicode = 87;
},
{
glyphname = Y;
layers = (
{
anchors = (
{
name = top;
position = "{331, 719}";
},
{
name = bottom;
position = "{331, -20}";
},
{
name = topgr;
position = "{-60, 500}";
}
);
layerId = "CCC13C4D-3D6C-43F7-997A-F2ED370E8D32";
shapes = (
{
closed = 1;
nodes = (
(281,0,l,{name = ab01;}),
(381,0,l),
(381,296,l,{name = iv04;}),
(624,700,l,{name = at01;}),
(507,700,l),
(331,395,l,{name = iv05;}),
(155,700,l,{name = at02;}),
(38,700,l),
(281,296,l,{name = iv01;})
);
}
);
width = 662;
}
);
leftKerningGroup = Y1;
rightKerningGroup = Y;
unicode = 89;
},
{
glyphname = Z;
layers = (
{
anchors = (
{
name = top;
position = "{307, 719}";
},
{
name = bottom;
position = "{297, -20}";
}
);
layerId = "CCC13C4D-3D6C-43F7-997A-F2ED370E8D32";
shapes = (
{
closed = 1;
nodes = (
(48,75,l),
(48,0,l,{name = ab01;}),
(546,0,l),
(546,80,l,{name = sv01;}),
(162,80,l),
(544,625,l),
(544,700,l,{name = at01;}),
(76,700,l),
(76,620,l,{name = sv02;}),
(430,620,l)
);
}
);
width = 594;
}
);
leftKerningGroup = Z1;
rightKerningGroup = Z;
unicode = 90;
},
{
glyphname = M;
layers = (
{
anchors = (
{
name = top;
position = "{454, 719}";
},
{
name = bottom;
position = "{454, -20}";
}
);
layerId = "CCC13C4D-3D6C-43F7-997A-F2ED370E8D32";
shapes = (
{
closed = 1;
nodes = (
(187,525,l,{name = iv01;}),
(432,0,l,{name = ab01;}),
(476,0,l),
(721,525,l,{name = iv02;}),
(721,0,l,{name = ab02;}),
(811,0,l),
(811,700,l,{name = at01;}),
(721,700,l),
(454,127,l,{name = iv03;}),
(187,700,l,{name = at02;}),
(97,700,l),
(97,0,l,{name = ab03;}),
(187,0,l)
);
}
);
width = 908;
}
);
leftKerningGroup = B;
rightKerningGroup = H;
unicode = 77;
},
{
glyphname = X;
layers = (
{
anchors = (
{
name = top;
position = "{324, 719}";
},
{
name = bottom;
position = "{324, -20}";
}
);
layerId = "CCC13C4D-3D6C-43F7-997A-F2ED370E8D32";
shapes = (
{
closed = 1;
nodes = (
(35,0,l),
(139,0,l),
(324,321,l),
(509,0,l),
(614,0,l),
(401,354,l),
(609,700,l),
(504,700,l),
(325,390,l),
(146,700,l),
(40,700,l),
(248,354,l)
);
}
);
width = 648;
}
);
leftKerningGroup = X;
rightKerningGroup = K;
unicode = 88;
},
{
glyphname = s;
layers = (
{
anchors = (
{
name = top;
position = "{253, 520}";
},
{
name = bottom;
position = "{253, -20}";
}
);
layerId = "CCC13C4D-3D6C-43F7-997A-F2ED370E8D32";
shapes = (
{
closed = 1;
nodes = (
(193,50,o),
(143,78.389,o),
(109,123,c),
(56,70,l),
(95,20,o),
(162,-20,o),
(248,-20,cs),
(357,-20,o),
(439,44.136,o),
(439,130.32,cs),
(439,202.473,o),
(381.987,246.519,o),
(284,273.625,cs),
(189.987,299.632,o),
(156,334.755,o),
(156,376.844,cs),
(156,421.94,o),
(194,450,o),
(244,450,cs),
(293,450,o),
(343,421.611,o),
(377,377,c),
(430,430,l),
(391,480,o),
(324,520,o),
(240,520,cs),
(134,520,o),
(66,455.864,o),
(66,373.689,cs),
(66,298.529,o),
(121.967,241.281,o),
(234,212.345,cs),
(315.968,191.175,o),
(349,160.235,o),
(349,120.149,cs),
(349,77.058,o),
(311,50,o),
(253,50,cs)
);
}
);
width = 507;
}
);
leftKerningGroup = s1;
rightKerningGroup = s;
unicode = 115;
},
{
glyphname = S;
layers = (
{
anchors = (
{
name = bottom;
position = "{300, -20}";
},
{
name = top;
position = "{286, 719}";
}
);
layerId = "CCC13C4D-3D6C-43F7-997A-F2ED370E8D32";
shapes = (
{
closed = 1;
nodes = (
(194,-20,o),
(111,21,o),
(48,101,c),
(106,159,l),
(165,94.347,o),
(227,60,o),
(306,60,cs),
(390,60,o),
(451,99.059,o),
(451,176.176,cs),
(451,245.281,o),
(400.988,288.288,o),
(288,312.382,cs),
(137.988,344.373,o),
(58,418.543,o),
(58,529.712,cs),
(58,646.889,o),
(147,720,o),
(284,720,cs),
(386,720,o),
(469,679,o),
(532,599,c),
(474,541,l),
(415,605.653,o),
(353,640,o),
(281,640,cs),
(203,640,o),
(148,600.941,o),
(148,526.829,cs),
(148,464.734,o),
(187.009,418.705,o),
(313,389.621,cs),
(469.009,353.606,o),
(541,280.455,o),
(541,174.294,cs),
(541,45.099,o),
(435,-20,o),
(301,-20,cs)
);
}
);
width = 600;
}
);
leftKerningGroup = S1;
rightKerningGroup = S;
unicode = 83;
},
{
glyphname = period;
layers = (
{
layerId = "CCC13C4D-3D6C-43F7-997A-F2ED370E8D32";
shapes = (
{
closed = 1;
nodes = (
(72.5,5.088,o),
(96.105,-20,o),
(131,-20,cs),
(164.868,-20,o),
(189.5,5.088,o),
(189.5,35.965,cs),
(189.5,66.842,o),
(164.868,90,o),
(131,90,cs),
(96.105,90,o),
(72.5,66.842,o),
(72.5,35.965,cs)
);
}
);
width = 262;
}
);
unicode = 46;
},
{
glyphname = comma;
layers = (
{
layerId = "CCC13C4D-3D6C-43F7-997A-F2ED370E8D32";
shapes = (
{
closed = 1;
nodes = (
(74,-7,o),
(120,-34,o),
(155,-12,c),
(145,-48,o),
(111,-101,o),
(74,-130,c),
(81,-146,l),
(145,-105,o),
(188,-34,o),
(188,26,cs),
(188,72,o),
(163,94,o),
(132,94,cs),
(98,94,o),
(74,69,o),
(74,37,cs)
);
}
);
width = 262;
}
);
unicode = 44;
},
{
glyphname = parenleft;
layers = (
{
layerId = "CCC13C4D-3D6C-43F7-997A-F2ED370E8D32";
shapes = (
{
closed = 1;
nodes = (
(365,-192,l),
(244,-161,o),
(160,38,o),
(160,293,cs),
(160,540,o),
(242,723,o),
(365,754,c),
(365,777,l),
(182,741,o),
(70,564,o),
(70,310,cs),
(70,26,o),
(194,-194,o),
(365,-215,c)
);
}
);
width = 391;
}
);
unicode = 40;
},
{
glyphname = parenright;
layers = (
{
layerId = "CCC13C4D-3D6C-43F7-997A-F2ED370E8D32";
shapes = (
{
closed = 1;
nodes = (
(25,754,l),
(132,720,o),
(231,529,o),
(231,290,cs),
(231,49,o),
(131,-157,o),
(25,-192,c),
(25,-215,l),
(208,-177,o),
(321,17,o),
(321,291,cs),
(321,560,o),
(212,740,o),
(25,777,c)
);
}
);
width = 384;
}
);
unicode = 41;
},
{
glyphname = exclam;
layers = (
{
layerId = "CCC13C4D-3D6C-43F7-997A-F2ED370E8D32";
shapes = (
{
closed = 1;
nodes = (
(88,249,l),
(167,249,l),
(183,750,l),
(72,750,l)
);
},
{
alignment = -1;
pos = (10.226,-1.867);
ref = period;
scale = (0.907,0.907);
}
);
width = 255;
}
);
unicode = 33;
},
{
glyphname = bar;
layers = (
{
layerId = "CCC13C4D-3D6C-43F7-997A-F2ED370E8D32";
shapes = (
{
closed = 1;
nodes = (
(40,-131,l),
(78,-131,l),
(78,750,l),
(40,750,l)
);
}
);
width = 118;
}
);
unicode = 124;
},
{
glyphname = braceright;
layers = (
{
layerId = "CCC13C4D-3D6C-43F7-997A-F2ED370E8D32";
shapes = (
{
closed = 1;
nodes = (
(334,299,l),
(259.326,310,o),
(219.5,371,o),
(219.5,421,cs),
(219.5,602.032,ls),
(219.5,697.15,o),
(177.374,799.428,o),
(52,870,c),
(39,841,l),
(113.588,809.229,o),
(129.5,732.363,o),
(129.5,609.378,cs),
(129.5,429,ls),
(129.5,365,o),
(143.563,325,o),
(241,289,c),
(140.55,251,o),
(129.5,202,o),
(129.5,138,cs),
(129.5,-85.967,ls),
(129.5,-205.286,o),
(115.579,-276.681,o),
(41,-307,c),
(52,-336,l),
(177.374,-268.35,o),
(219.5,-174.229,o),
(219.5,-75.205,cs),
(219.5,165,ls),
(219.5,236,o),
(280.235,272,o),
(334,282,c)
);
}
);
width = 366;
}
);
unicode = 125;
},
{
glyphname = hyphen;
layers = (
{
layerId = "CCC13C4D-3D6C-43F7-997A-F2ED370E8D32";
shapes = (
{
closed = 1;
nodes = (
(50,261,l),
(340,261,l),
(340,297,l),
(50,297,l)
);
}
);
width = 390;
}
);
unicode = 45;
},
{
glyphname = endash;
layers = (
{
layerId = "CCC13C4D-3D6C-43F7-997A-F2ED370E8D32";
shapes = (
{
closed = 1;
nodes = (
(50,262,l),
(505,262,l),
(505,296,l),
(50,296,l)
);
}
);
width = 555;
}
);
unicode = 8211;
},
{
glyphname = emdash;
layers = (
{
layerId = "CCC13C4D-3D6C-43F7-997A-F2ED370E8D32";
shapes = (
{
closed = 1;
nodes = (
(50,262,l),
(864,262,l),
(864,296,l),
(50,296,l)
);
}
);
width = 914;
}
);
unicode = 8212;
},
{
glyphname = slash;
layers = (
{
layerId = "CCC13C4D-3D6C-43F7-997A-F2ED370E8D32";
shapes = (
{
closed = 1;
nodes = (
(-40,0,l),
(-14,0,l),
(358,700,l),
(332,700,l)
);
}
);
width = 315;
}
);
unicode = 47;
},
{
glyphname = greater;
layers = (
{
layerId = "CCC13C4D-3D6C-43F7-997A-F2ED370E8D32";
shapes = (
{
closed = 1;
nodes = (
(50,6,l),
(509,239,l),
(509,287,l),
(50,510,l),
(50,490,l),
(461,263,l),
(50,26,l)
);
}
);
width = 573;
}
);
unicode = 62;
},
{
glyphname = less;
layers = (
{
layerId = "CCC13C4D-3D6C-43F7-997A-F2ED370E8D32";
shapes = (
{
closed = 1;
nodes = (
(509,6,l),
(509,26,l),
(98,263,l),
(509,490,l),
(509,510,l),
(50,287,l),
(50,239,l)
);
}
);
width = 544;
}
);
unicode = 60;
},
{
glyphname = cent;
layers = (
{
layerId = "CCC13C4D-3D6C-43F7-997A-F2ED370E8D32";
shapes = (
{
closed = 1;
nodes = (
(337,610,l),
(337,730,l),
(287,730,l),
(287,610,l)
);
},
{
closed = 1;
nodes = (
(288,89,l),
(288,-31,l),
(336,-31,l),
(336,90,l)
);
},
{
alignment = -1;
pos = (0,100);
ref = c;
}
);
width = 563;
}
);
unicode = 162;
},
{
glyphname = Euro;
layers = (
{
layerId = "CCC13C4D-3D6C-43F7-997A-F2ED370E8D32";
shapes = (
{
closed = 1;
nodes = (
(262,720,o),
(136,606,o),
(110,424,c),
(25,424,l),
(19,387,l),
(516,387,l),
(522,424,l),
(202,424,l),
(206,542,o),
(309,639,o),
(429,639,cs),
(530,639,o),
(596,599,o),
(640,548,c),
(691,599,l),
(625,683,o),
(546,720,o),
(429,720,cs)
);
},
{
closed = 1;
nodes = (
(318,60,o),
(206,163,o),
(201,280,c),
(498,280,l),
(504,317,l),
(21,317,l),
(15,280,l),
(109,280,l),
(134,97,o),
(265,-20,o),
(435,-20,cs),
(563,-20,o),
(627,23,o),
(696,102,c),
(645,153,l),
(597,95,o),
(514,60,o),
(440,60,cs)
);
}
);
width = 730;
}
);
unicode = 8364;
},
{
glyphname = infinity;
layers = (
{
layerId = "CCC13C4D-3D6C-43F7-997A-F2ED370E8D32";
shapes = (
{
closed = 1;
nodes = (
(78,473,o),
(27,402,o),
(27,330,cs),
(27,241,o),
(92,214,o),
(153,214,cs),
(238,214,o),
(301,266,o),
(328,297,c),
(264,259,o),
(213,234,o),
(153,234,cs),
(96,234,o),
(47,266,o),
(47,326,cs),
(47,389,o),
(86,425,o),
(157,425,cs),
(197,425,o),
(256,384,o),
(316,339,cs),
(443,245,o),
(501,213,o),
(559,213,cs),
(643,213,o),
(694,284,o),
(694,356,cs),
(694,446,o),
(629,473,o),
(568,473,cs),
(483,473,o),
(420,421,o),
(393,390,c),
(457,428,o),
(508,453,o),
(568,453,cs),
(625,453,o),
(674,421,o),
(674,360,cs),
(674,297,o),
(635,261,o),
(564,261,cs),
(503,261,o),
(431,311,o),
(361,365,cs),
(290,420,o),
(220,473,o),
(154,473,cs)
);
}
);
width = 719;
}
);
unicode = 8734;
},
{
glyphname = Delta;
layers = (
{
layerId = "CCC13C4D-3D6C-43F7-997A-F2ED370E8D32";
shapes = (
{
closed = 1;
nodes = (
(93,0,l,{name = dv01;}),
(569,0,l),
(535,80,l,{name = dv03;}),
(127,80,l,{name = dv02;})
);
},
{
closed = 1;
nodes = (
(259,700,l),
(32,0,l),
(128,0,l),
(342,700,l)
);
},
{
closed = 1;
nodes = (
(313,700,l),
(527,0,l),
(623,0,l),
(396,700,l)
);
}
);
width = 655;
}
);
leftKerningGroup = A1;
rightKerningGroup = A;
unicode = 916;
},
{
glyphname = Ohm;
layers = (
{
anchors = (
{
name = topgr;
position = "{10, 500}";
}
);
layerId = "CCC13C4D-3D6C-43F7-997A-F2ED370E8D32";
shapes = (
{
closed = 1;
nodes = (
(81,0,l),
(331,0,l),
(331,80,l),
(210.322,137.098,o),
(153,250.781,o),
(153,377.952,cs),
(153,546.549,o),
(248.193,640,o),
(394.489,640,cs),
(544.793,640,o),
(647,541.732,o),
(647,377.952,cs),
(647,247.891,o),
(585,137.098,o),
(468,80,c),
(468,0,l),
(718,0,l),
(718,80,l),
(570,80,l),
(672,121.064,o),
(737,240.25,o),
(737,376.463,cs),
(737,578.779,o),
(595,720,o),
(400,720,cs),
(204,720,o),
(63,577.778,o),
(63,372.457,cs),
(63,235.243,o),
(126,121.064,o),
(229,80,c),
(81,80,l)
);
}
);
width = 800;
}
);
leftKerningGroup = C1;
rightKerningGroup = C;
unicode = 8486;
},
{
glyphname = product;
layers = (
{
layerId = "CCC13C4D-3D6C-43F7-997A-F2ED370E8D32";
shapes = (
{
closed = 1;
nodes = (
(187,-125,l),
(187,620,l),
(579,620,l),
(579,-125,l),
(669,-125,l),
(669,700,l),
(97,700,l),
(97,-125,l)
);
}
);
width = 766;
}
);
unicode = 8719;
},
{
glyphname = guilsinglleft;
layers = (
{
layerId = "CCC13C4D-3D6C-43F7-997A-F2ED370E8D32";
shapes = (
{
closed = 1;
nodes = (
(275,20,l),
(97,254,l),
(97,266,l),
(275,500,l),
(265,518,l),
(50,284,l),
(50,236,l),
(265,2,l)
);
}
);
width = 305;
}
);
unicode = 8249;
},
{
glyphname = guilsinglright;
layers = (
{
layerId = "CCC13C4D-3D6C-43F7-997A-F2ED370E8D32";
shapes = (
{
closed = 1;
nodes = (
(30,20,l),
(40,2,l),
(255,236,l),
(255,284,l),
(40,518,l),
(30,500,l),
(208,266,l),
(208,254,l)
);
}
);
width = 305;
}
);
unicode = 8250;
},
{
glyphname = estimated;
layers = (
{
layerId = "CCC13C4D-3D6C-43F7-997A-F2ED370E8D32";
shapes = (
{
closed = 1;
nodes = (
(174,363,l),
(794,363,l),
(794,585,o),
(643,732,o),
(425,732,cs),
(207,732,o),
(57,585,o),
(57,363,cs),
(57,141,o),
(205,-6,o),
(425,-6,cs),
(512,-6,o),
(588,17,o),
(648,59,c),
(636,125,l),
(580,87,o),
(505,64,o),
(422,64,cs),
(303,64,o),
(235,111,o),
(174,193,c)
);
},
{
closed = 1;
nodes = (
(681,433,l),
(175,433,l),
(175,540,l),
(237,618,o),
(308,662,o),
(424,662,cs),
(545,662,o),
(620,614,o),
(681,532,c)
);
}
);
width = 850;
}
);
unicode = 8494;
},
{
glyphname = underscore;
layers = (
{
layerId = "CCC13C4D-3D6C-43F7-997A-F2ED370E8D32";
shapes = (
{
closed = 1;
nodes = (
(0,-63,l),
(500,-63,l),
(500,-27,l),
(0,-27,l)
);
}
);
width = 500;
}
);
unicode = 95;
},
{
glyphname = guillemotleft;
layers = (
{
layerId = "CCC13C4D-3D6C-43F7-997A-F2ED370E8D32";
shapes = (
{
closed = 1;
nodes = (
(267,27,l),
(79,255,l),
(268,496,l),
(254,510,l),
(32,280,l),
(32,232,l),
(253,13,l)
);
},
{
closed = 1;
nodes = (
(470,27,l),
(282,255,l),
(471,496,l),
(457,510,l),
(235,280,l),
(235,232,l),
(456,13,l)
);
}
);
width = 489;
}
);
unicode = 171;
},
{
glyphname = guillemotright;
layers = (
{
layerId = "CCC13C4D-3D6C-43F7-997A-F2ED370E8D32";
shapes = (
{
closed = 1;
nodes = (
(230,27,l),
(244,13,l),
(465,232,l),
(465,280,l),
(243,510,l),
(229,496,l),
(418,255,l)
);
},
{
closed = 1;
nodes = (
(27,27,l),
(41,13,l),
(262,232,l),
(262,280,l),
(40,510,l),
(26,496,l),
(215,255,l)
);
}
);
width = 494;
}
);
unicode = 187;
},
{
glyphname = commaaccentcomb;
layers = (
{
anchors = (
{
name = bottom;
position = "{123, -248}";
},
{
name = _bottom;
position = "{123, 0}";
}
);
layerId = "CCC13C4D-3D6C-43F7-997A-F2ED370E8D32";
shapes = (
{
closed = 1;
nodes = (
(73,-151,o),
(90,-168,o),
(114,-168,cs),
(128,-168,o),
(144,-162,o),
(153,-155,c),
(150,-204,o),
(131,-229,o),
(80,-257,c),
(88,-270,l),
(138,-254,o),
(173,-204,o),
(173,-146,cs),
(173,-103,o),
(153,-77,o),
(120,-77,cs),
(92,-77,o),
(73,-96,o),
(73,-124,cs)
);
}
);
width = 246;
}
);
unicode = 806;
},
{
glyphname = quotesinglbase;
layers = (
{
layerId = "CCC13C4D-3D6C-43F7-997A-F2ED370E8D32";
shapes = (
{
closed = 1;
nodes = (
(97,6,o),
(121,-20,o),
(153,-20,cs),
(165,-20,o),
(175,-16,o),
(184,-11,c),
(179,-48,o),
(149,-93,o),
(105,-122,c),
(114,-134,l),
(181,-97,o),
(211,-30,o),
(211,24,cs),
(211,71,o),
(188,94,o),
(155,94,cs),
(121,94,o),
(97,69,o),
(97,38,cs)
);
}
);
width = 308;
}
);
unicode = 8218;
},
{
glyphname = equal;
layers = (
{
layerId = "CCC13C4D-3D6C-43F7-997A-F2ED370E8D32";
shapes = (
{
closed = 1;
nodes = (
(50,137,l),
(464,137,l),
(464,173,l),
(50,173,l)
);
},
{
closed = 1;
nodes = (
(50,393,l),
(50,357,l),
(464,357,l),
(464,393,l)
);
}
);
width = 514;
}
);
unicode = 61;
},
{
glyphname = notequal;
layers = (
{
layerId = "CCC13C4D-3D6C-43F7-997A-F2ED370E8D32";
shapes = (
{
closed = 1;
nodes = (
(135,44,l),
(183,44,l),
(230,140,l),
(469,140,l),
(469,160,l),
(239,160,l),
(341,370,l),
(469,370,l),
(469,390,l),
(351,390,l),
(388,466,l),
(340,466,l),
(303,390,l),
(55,390,l),
(55,370,l),
(293,370,l),
(191,160,l),
(55,160,l),
(55,140,l),
(182,140,l)
);
}
);
width = 523;
}
);
unicode = 8800;
},
{
glyphname = brokenbar;
layers = (
{
layerId = "CCC13C4D-3D6C-43F7-997A-F2ED370E8D32";
shapes = (
{
closed = 1;
nodes = (
(51,341,l),
(89,341,l),
(89,751,l),
(51,751,l)
);
},
{
closed = 1;
nodes = (
(51,155,l),
(51,-254,l),
(89,-254,l),
(89,155,l)
);
}
);
width = 140;
}
);
unicode = 166;
},
{
glyphname = micro;
layers = (
{
anchors = (
{
name = topgr;
position = "{300, 520}";
}
);
layerId = "CCC13C4D-3D6C-43F7-997A-F2ED370E8D32";
shapes = (
{
closed = 1;
nodes = (
(86,-200,l),
(176,-200,l),
(176,500,l),
(86,500,l)
);
},
{
closed = 1;
nodes = (
(429,203,l),
(417,263,l),
(417,125.293,o),
(367,50,o),
(279,50,cs),
(210,50,o),
(176,96.792,o),
(176,184.403,cs),
(176,500,l),
(86,500,l),
(86,196,ls),
(86,51,o),
(146,-20,o),
(255,-20,cs),
(349,-20,o),
(402,32,o),
(429,130,c)
);
},
{
closed = 1;
nodes = (
(507,500,l),
(417,500,l),
(417,0,l),
(507,0,l)
);
}
);
width = 600;
}
);
leftKerningGroup = i;
rightKerningGroup = a1;
},
{
glyphname = bracketleft;
layers = (
{
layerId = "CCC13C4D-3D6C-43F7-997A-F2ED370E8D32";
shapes = (
{
closed = 1;
nodes = (
(357,778,l),
(97,778,l),
(97,-217,l),
(357,-217,l),
(357,-162,l),
(182,-162,l),
(182,723,l),
(357,723,l)
);
}
);
width = 420;
}
);
unicode = 91;
},
{
glyphname = bracketright;
layers = (
{
layerId = "CCC13C4D-3D6C-43F7-997A-F2ED370E8D32";
shapes = (
{
closed = 1;
nodes = (
(55,778,l),
(55,723,l),
(241,723,l),
(241,-162,l),
(55,-162,l),
(55,-217,l),
(326,-217,l),
(326,778,l)
);
}
);
width = 418;
}
);
unicode = 93;
},
{
glyphname = minus;
layers = (
{
layerId = "CCC13C4D-3D6C-43F7-997A-F2ED370E8D32";
shapes = (
{
closed = 1;
nodes = (
(50,323,l),
(516,323,l),
(516,357,l),
(50,357,l)
);
}
);
width = 566;
}
);
unicode = 8722;
},
{
glyphname = daggerdbl;
layers = (
{
layerId = "CCC13C4D-3D6C-43F7-997A-F2ED370E8D32";
shapes = (
{
closed = 1;
nodes = (
(309,-222,l),
(395,-222,l),
(387,25,l),
(650,11,l),
(650,66,l),
(385,52,l),
(367,237,l),
(385,422,l),
(650,408,l),
(650,463,l),
(387,449,l),
(395,696,l),
(309,696,l),
(318,449,l),
(50,463,l),
(50,408,l),
(320,422,l),
(338,237,l),
(320,52,l),
(50,66,l),
(50,11,l),
(318,25,l)
);
}
);
width = 722;
}
);
unicode = 8225;
},
{
glyphname = multiply;
layers = (
{
layerId = "CCC13C4D-3D6C-43F7-997A-F2ED370E8D32";
shapes = (
{
closed = 1;
nodes = (
(386,110,l),
(411,135,l),
(65,482,l),
(40,457,l)
);
},
{
closed = 1;
nodes = (
(65,110,l),
(411,457,l),
(386,482,l),
(40,135,l)
);
}
);
width = 452;
}
);
unicode = 215;
},
{
glyphname = dagger;
layers = (
{
layerId = "CCC13C4D-3D6C-43F7-997A-F2ED370E8D32";
shapes = (
{
closed = 1;
nodes = (
(364,-104,l),
(387,421,l),
(650,408,l),
(650,463,l),
(389,450,l),
(394,696,l),
(310,696,l),
(315,449,l),
(50,463,l),
(50,408,l),
(317,421,l),
(340,-104,l)
);
}
);
width = 701;
}
);
unicode = 8224;
},
{
glyphname = plus;
layers = (
{
layerId = "CCC13C4D-3D6C-43F7-997A-F2ED370E8D32";
shapes = (
{
closed = 1;
nodes = (
(260,262,l),
(260,55,l),
(296,55,l),
(296,262,l),
(516,262,l),
(516,298,l),
(296,298,l),
(296,505,l),
(260,505,l),
(260,298,l),
(50,298,l),
(50,262,l)
);
}
);
width = 566;
}
);
unicode = 43;
},
{
glyphname = florin;
layers = (
{
layerId = "CCC13C4D-3D6C-43F7-997A-F2ED370E8D32";
shapes = (
{
closed = 1;
nodes = (
(238,720,o),
(174,627,o),
(174,369,cs),
(174,135,o),
(121,54,o),
(48,54,cs),
(26,54,o),
(-1,61,o),
(-65,80,c),
(-80,6,l),
(-24,-11,o),
(7,-20,o),
(51,-20,cs),
(201,-20,o),
(264,85,o),
(264,347,cs),
(264,588,o),
(317,648,o),
(395,648,cs),
(429,648,o),
(459,637,o),
(508,619,c),
(524,696,l),
(469,713,o),
(437,720,o),
(394,720,cs)
);
},
{
closed = 1;
nodes = (
(29,470,l),
(29,400,l),
(475,400,l),
(475,470,l)
);
}
);
width = 533;
}
);
unicode = 402;
},
{
glyphname = integral;
layers = (
{
layerId = "CCC13C4D-3D6C-43F7-997A-F2ED370E8D32";
shapes = (
{
closed = 1;
nodes = (
(169,54,ls),
(166.467,-37.987,o),
(140,-73,o),
(75,-73,cs),
(42,-73,o),
(-12,-64,o),
(-71,-10,c),
(-95,-102,l),
(-49,-133,o),
(9,-153,o),
(78,-153,cs),
(206,-153,o),
(254.724,-84.97,o),
(259,71,cs),
(271.5,527,ls),
(274.323,629.981,o),
(305.433,670,o),
(379.286,670,cs),
(405.234,670,o),
(467.111,665,o),
(523,618,c),
(547,699,l),
(509,732,o),
(441,750,o),
(374,750,cs),
(247,750,o),
(186.351,683.991,o),
(182,526,cs)
);
}
);
width = 452;
}
);
unicode = 8747;
},
{
glyphname = one;
layers = (
{
layerId = "CCC13C4D-3D6C-43F7-997A-F2ED370E8D32";
shapes = (
{
closed = 1;
nodes = (
(45,429,l),
(189,460,o),
(223,490,o),
(269,544,c),
(269,0,l),
(359,0,l),
(359,700,l),
(278,700,l),
(229,608,o),
(157,535,o),
(45,515,c)
);
}
);
width = 456;
}
);
unicode = 49;
},
{
glyphname = two;
layers = (
{
layerId = "CCC13C4D-3D6C-43F7-997A-F2ED370E8D32";
shapes = (
{
closed = 1;
nodes = (
(381,640,o),
(455,603,o),
(455,490,cs),
(455,330,o),
(308,220,o),
(84,150,c),
(84,70,l),
(402,173,o),
(545,300,o),
(545,487,cs),
(545,636,o),
(455,720,o),
(311,720,cs),
(218,720,o),
(142,685,o),
(94,637,c),
(152,579,l),
(194,616,o),
(247,640,o),
(307,640,cs)
);
},
{
closed = 1;
nodes = (
(84,80,l),
(84,0,l),
(545,0,l),
(545,80,l)
);
}
);
width = 632;
}
);
unicode = 50;
},
{
glyphname = quotesingle;
layers = (
{
layerId = "CCC13C4D-3D6C-43F7-997A-F2ED370E8D32";
shapes = (
{
closed = 1;
nodes = (
(73,566,l),
(131,566,l),
(146,803,l),
(58,803,l)
);
}
);
width = 204;
}
);
unicode = 39;
},
{
glyphname = quotedbl;
layers = (
{
layerId = "CCC13C4D-3D6C-43F7-997A-F2ED370E8D32";
shapes = (
{
closed = 1;
nodes = (
(75,572,l),
(133,572,l),
(148,803,l),
(60,803,l)
);
},
{
closed = 1;
nodes = (
(276,572,l),
(334,572,l),
(349,803,l),
(261,803,l)
);
}
);
width = 409;
}
);
unicode = 34;
},
{
glyphname = logicalnot;
layers = (
{
layerId = "CCC13C4D-3D6C-43F7-997A-F2ED370E8D32";
shapes = (
{
closed = 1;
nodes = (
(50,292,l),
(435,292,l),
(435,93,l),
(483,93,l),
(483,322,l),
(50,322,l)
);
}
);
width = 553;
}
);
unicode = 172;
},
{
glyphname = pi;
layers = (
{
anchors = (
{
name = topgr;
position = "{322, 520}";
}
);
layerId = "CCC13C4D-3D6C-43F7-997A-F2ED370E8D32";
shapes = (
{
closed = 1;
nodes = (
(418,145.756,ls),
(418.185,40.645,o),
(466.487,0,o),
(583.25,0,c),
(583.25,70,l),
(527.545,70,o),
(508,88.947,o),
(508,145.789,cs),
(508.5,430,l),
(586,430,l),
(586,500,l),
(49,500,l),
(49,430,l),
(125,430,l),
(125,0,l),
(215,0,l),
(215,430,l),
(417.5,430,l)
);
}
);
width = 645;
}
);
leftKerningGroup = i;
unicode = 960;
},
{
glyphname = three;
layers = (
{
layerId = "CCC13C4D-3D6C-43F7-997A-F2ED370E8D32";
shapes = (
{
closed = 1;
nodes = (
(34,84,l),
(100,18,o),
(187,-19,o),
(287,-19,cs),
(421,-19,o),
(523,48,o),
(523,183,cs),
(523,310,o),
(434,370,o),
(192,360,c),
(192,315,l),
(349,315,o),
(433,266,o),
(433,175,cs),
(433,101,o),
(377,61,o),
(284,61,cs),
(209,61,o),
(157,87,o),
(92,142,c)
);
},
{
closed = 1;
nodes = (
(500,644,o),
(423,720,o),
(279,720,cs),
(182,720,o),
(108,685,o),
(62,637,c),
(120,579,l),
(162,616,o),
(211,640,o),
(274,640,cs),
(356,640,o),
(410,599,o),
(410,531,cs),
(410,451,o),
(335,403,o),
(192,403,c),
(192,358,l),
(401,348,o),
(500,415,o),
(500,537,cs)
);
}
);
width = 578;
}
);
unicode = 51;
},
{
glyphname = zero;
layers = (
{
layerId = "CCC13C4D-3D6C-43F7-997A-F2ED370E8D32";
shapes = (
{
closed = 1;
nodes = (
(59,110,o),
(149,-19,o),
(316,-19,cs),
(481,-19,o),
(568,107,o),
(568,350,cs),
(568,592,o),
(482,720,o),
(320,720,cs),
(152,720,o),
(59,583,o),
(59,345,cs)
);
},
{
closed = 1;
nodes = (
(149,545,o),
(213,640,o),
(317,640,cs),
(418,640,o),
(478,551,o),
(478,352,cs),
(478,152,o),
(417,61,o),
(314,61,cs),
(211,61,o),
(149,153,o),
(149,347,cs)
);
}
);
width = 627;
}
);
unicode = 48;
},
{
glyphname = four;
layers = (
{
layerId = "CCC13C4D-3D6C-43F7-997A-F2ED370E8D32";
shapes = (
{
closed = 1;
nodes = (
(62,171,l),
(412,171,l),
(412,0,l),
(502,0,l),
(502,171,l),
(638,171,l),
(638,252,l),
(502,252,l),
(502,700,l),
(388,700,l),
(62,217,l)
);
},
{
closed = 1;
nodes = (
(183,252,l),
(412,591,l),
(412,252,l)
);
}
);
width = 685;
}
);
unicode = 52;
},
{
glyphname = five;
layers = (
{
layerId = "CCC13C4D-3D6C-43F7-997A-F2ED370E8D32";
shapes = (
{
closed = 1;
nodes = (
(208,620,l),
(518,620,l),
(518,700,l),
(136,700,l),
(73,300,l),
(159,351,o),
(239,378,o),
(312,378,cs),
(412,378,o),
(460,328,o),
(460,231,cs),
(460,122,o),
(399,60,o),
(292,60,cs),
(208,60,o),
(161,99,o),
(105,160,c),
(47,102,l),
(122,17,o),
(196,-20,o),
(295,-20,cs),
(452,-20,o),
(550,73,o),
(550,225,cs),
(550,367,o),
(465,453,o),
(327,453,cs),
(270,453,o),
(220,438,o),
(181,419,c)
);
}
);
width = 615;
}
);
unicode = 53;
},
{
glyphname = six;
layers = (
{
layerId = "CCC13C4D-3D6C-43F7-997A-F2ED370E8D32";
shapes = (
{
closed = 1;
nodes = (
(396.215,640,o),
(445.215,616,o),
(487.215,579,c),
(545.215,637,l),
(499.215,685,o),
(427,720,o),
(330,720,cs),
(156,720,o),
(48,581,o),
(48,329,cs),
(48,102,o),
(144,-20,o),
(319,-20,cs),
(484,-20,o),
(579,89,o),
(579,228,cs),
(579,367,o),
(477,458,o),
(341,458,cs),
(239,458,o),
(154,408,o),
(124,343,c),
(124,529.626,o),
(200.215,640,o),
(333.215,640,cs)
);
},
{
closed = 1;
nodes = (
(149,324,o),
(215,388,o),
(322,388,cs),
(421,388,o),
(489,333,o),
(489,228,cs),
(489,126,o),
(425,60,o),
(317,60,cs),
(214,60,o),
(149,120,o),
(149,222,cs)
);
}
);
width = 631;
}
);
unicode = 54;
},
{
glyphname = seven;
layers = (
{
layerId = "CCC13C4D-3D6C-43F7-997A-F2ED370E8D32";
shapes = (
{
closed = 1;
nodes = (
(142,0,l),
(240,0,l),
(520,660,l),
(520,700,l),
(54,700,l),
(54,620,l),
(405,620,l)
);
}
);
width = 565;
}
);
unicode = 55;
},
{
glyphname = eight;
layers = (
{
layerId = "CCC13C4D-3D6C-43F7-997A-F2ED370E8D32";
shapes = (
{
closed = 1;
nodes = (
(453.705,-20,o),
(558.5,53,o),
(558.5,182,cs),
(558.5,285,o),
(492.681,351,o),
(377,370,c),
(471.379,390,o),
(529,453,o),
(529,537,cs),
(529,647,o),
(436.306,720,o),
(301.75,720,cs),
(170.184,720,o),
(74.5,650,o),
(74.5,542,cs),
(74.5,453,o),
(135.308,391,o),
(233,370,c),
(116.313,351,o),
(46.5,282,o),
(46.5,181,cs),
(46.5,54,o),
(156.286,-20,o),
(305.993,-20,cs)
);
},
{
closed = 1;
nodes = (
(136.5,268.782,o),
(191.666,327,o),
(303.002,327,cs),
(412.331,327,o),
(468.5,271.793,o),
(468.5,191.492,cs),
(468.5,102.158,o),
(400.295,60,o),
(300.995,60,cs),
(203.702,60,o),
(136.5,101.154,o),
(136.5,189.485,cs)
);
},
{
closed = 1;
nodes = (
(391.742,640,o),
(439,602.68,o),
(439,529.048,cs),
(439,457.433,o),
(393.753,407,o),
(302.253,407,cs),
(213.769,407,o),
(164.5,453.398,o),
(164.5,528.039,cs),
(164.5,601.671,o),
(211.758,640,o),
(302.253,640,cs)
);
}
);
width = 605;
}
);
unicode = 56;
},
{
glyphname = question;
layers = (
{
layerId = "CCC13C4D-3D6C-43F7-997A-F2ED370E8D32";
shapes = (
{
closed = 1;
nodes = (
(82,589,l),
(140,652,o),
(200,687,o),
(273,687,cs),
(356,687,o),
(416,650.295,o),
(416,567.265,cs),
(416,484.235,o),
(355,418.262,o),
(191,345,c),
(191,250,l),
(281,250,l),
(281,332,l),
(378,364,o),
(506,452,o),
(506,581,cs),
(506,690,o),
(415,767,o),
(280,767,cs),
(176,767,o),
(85,722,o),
(25,646,c)
);
},
{
closed = 1;
nodes = (
(189.5,3.259,o),
(211.896,-20,o),
(242,-20,cs),
(271.192,-20,o),
(294.5,3.259,o),
(294.5,31.895,cs),
(294.5,59.636,o),
(271.192,82,o),
(242,82,cs),
(211.896,82,o),
(189.5,59.636,o),
(189.5,31.895,cs)
);
}
);
width = 551;
}
);
unicode = 63;
},
{
glyphname = section;
layers = (
{
layerId = "CCC13C4D-3D6C-43F7-997A-F2ED370E8D32";
shapes = (
{
closed = 1;
nodes = (
(389,113,l),
(433.308,132,o),
(461,163,o),
(461,207,cs),
(461,276,o),
(411.049,316.218,o),
(298,339,cs),
(148.049,369.218,o),
(68,438,o),
(68,542,cs),
(68,652,o),
(153.245,720,o),
(282.549,720,cs),
(382.16,720,o),
(461.658,679,o),
(522,599,c),
(464,541,l),
(408.62,605,o),
(350.423,639,o),
(280.963,639,cs),
(209.626,639,o),
(158,603,o),
(158,536,cs),
(158,479,o),
(196.904,435.591,o),
(324,409,cs),
(478.906,376.591,o),
(551,310,o),
(551,203,cs),
(551,127,o),
(506.292,73,o),
(435,42,c)
);
},
{
closed = 1;
nodes = (
(190,387,l),
(158,368,o),
(138,337,o),
(138,293,cs),
(138,224,o),
(186.682,183.781,o),
(296.852,161,cs),
(442.991,130.781,o),
(521,62,o),
(521,-42,cs),
(521,-152,o),
(433.878,-220,o),
(301.726,-220,cs),
(199.92,-220,o),
(118.671,-179,o),
(57,-99,c),
(115,-41,l),
(172.19,-105,o),
(232.288,-139,o),
(304.018,-139,cs),
(377.687,-139,o),
(431,-103,o),
(431,-36,cs),
(431,21,o),
(393.081,64.41,o),
(269.224,91,cs),
(118.255,123.41,o),
(48,190,o),
(48,297,cs),
(48,373,o),
(85,427,o),
(144,458,c)
);
}
);
width = 590;
}
);
unicode = 167;
},
{
glyphname = numbersign;
layers = (
{
layerId = "CCC13C4D-3D6C-43F7-997A-F2ED370E8D32";
shapes = (
{
closed = 1;
nodes = (
(84,485,l),
(84,445,l),
(228,445,l),
(188,250,l),
(38,250,l),
(38,210,l),
(180,210,l),
(137,0,l),
(229,0,l),
(272,210,l),
(500,210,l),
(457,0,l),
(549,0,l),
(592,210,l),
(745,210,l),
(745,250,l),
(600,250,l),
(640,445,l),
(792,445,l),
(792,485,l),
(648,485,l),
(692,700,l),
(600,700,l),
(556,485,l),
(328,485,l),
(372,700,l),
(280,700,l),
(237,485,l)
);
},
{
closed = 1;
nodes = (
(280,250,l),
(320,445,l),
(548,445,l),
(508,250,l)
);
}
);
width = 830;
}
);
unicode = 35;
},
{
glyphname = asterisk;
layers = (
{
layerId = "CCC13C4D-3D6C-43F7-997A-F2ED370E8D32";
shapes = (
{
closed = 1;
nodes = (
(253,700,l),
(266,505,l),
(101,621,l),
(78,580,l),
(259,486,l),
(78,393,l),
(101,351,l),
(266,468,l),
(253,272,l),
(300,272,l),
(286,468,l),
(450,353,l),
(472,394,l),
(293,486,l),
(472,579,l),
(449,620,l),
(286,505,l),
(300,700,l)
);
}
);
width = 553;
}
);
unicode = 42;
},
{
glyphname = copyright;
layers = (
{
layerId = "CCC13C4D-3D6C-43F7-997A-F2ED370E8D32";
shapes = (
{
closed = 1;
nodes = (
(589,12,o),
(773,137.814,o),
(773,356.49,cs),
(773,571.172,o),
(596,687,o),
(411,687,cs),
(227,687,o),
(44,572.17,o),
(44,356.49,cs),
(44,136.815,o),
(233,12,o),
(411,12,cs)
);
},
{
closed = 1;
nodes = (
(585,628,o),
(713,513.795,o),
(713,353.507,cs),
(713,185.205,o),
(573,71,o),
(411,71,cs),
(243,71,o),
(104,194.221,o),
(104,357.514,cs),
(104,512.793,o),
(231,628,o),
(408,628,cs)
);
},
{
closed = 1;
nodes = (
(337.187,206.873,o),
(302.699,255.977,o),
(302.699,354.186,cs),
(302.699,449.505,o),
(336.469,494.277,o),
(408.32,494.277,cs,{name = sv01;}),
(450.712,494.277,o),
(490.948,475.336,o),
(516.814,441.826,c),
(554.895,479.907,l),
(525.437,517.988,o),
(473.704,544.572,o),
(406.164,544.572,cs,{name = at01;}),
(298.388,544.572,o),
(238.033,473.44,o),
(238.033,354.168,cs),
(238.033,227.71,o),
(299.825,156.578,o),
(406.883,156.578,cs,{name = dv01;}),
(475.859,156.578,o),
(529.748,183.162,o),
(559.206,221.243,c),
(521.125,259.324,l),
(495.259,225.814,o),
(451.43,206.873,o),
(406.883,206.873,cs,{name = dv02;})
);
}
);
width = 817;
}
);
unicode = 169;
},
{
glyphname = registered;
layers = (
{
layerId = "CCC13C4D-3D6C-43F7-997A-F2ED370E8D32";
shapes = (
{
closed = 1;
nodes = (
(589,12,o),
(773,137.814,o),
(773,356.49,cs),
(773,571.172,o),
(596,687,o),
(411,687,cs),
(227,687,o),
(44,572.17,o),
(44,356.49,cs),
(44,136.815,o),
(233,12,o),
(411,12,cs)
);
},
{
closed = 1;
nodes = (
(585,628,o),
(713,513.795,o),
(713,353.507,cs),
(713,185.205,o),
(573,71,o),
(411,71,cs),
(243,71,o),
(104,194.221,o),
(104,357.514,cs),
(104,512.793,o),
(231,628,o),
(408,628,cs)
);
},
{
closed = 1;
nodes = (
(342.8,150,l,{name = ab01;}),
(342.8,487.2,l,{name = sv01;}),
(420.449,487.2,ls),
(482.426,487.2,o),
(505.4,469.161,o),
(505.4,419.92,cs),
(505.4,370.679,o),
(480.725,352.64,o),
(413.585,352.64,cs),
(286,352.64,l,{name = dv02;}),
(286,297.84,l,{name = dv01;}),
(422.4,297.84,ls),
(513,297.84,o),
(569.4,344.88,o),
(569.4,421.04,cs),
(569.4,496.64,o),
(514.8,542,o),
(424.8,542,cs,{name = at01;}),
(278.8,542,l),
(278.8,150,l)
);
},
{
closed = 1;
nodes = (
(433.8,307.36,l),
(519.6,150,l,{name = ab02;}),
(580.2,150,l),
(478.2,336.48,l)
);
}
);
width = 817;
}
);
unicode = 174;
},
{
glyphname = ordfeminine;
layers = (
{
layerId = "CCC13C4D-3D6C-43F7-997A-F2ED370E8D32";
shapes = (
{
closed = 1;
nodes = (
(389,335,l),
(471,335,l),
(471,702,l),
(389,702,l)
);
},
{
closed = 1;
nodes = (
(408,642,o),
(345,720,o),
(244,720,cs),
(144,720,o),
(83,643,o),
(83,521,cs),
(83,399,o),
(145,320,o),
(245,320,cs),
(345,320,o),
(408,398,o),
(408,520,cs)
);
},
{
closed = 1;
nodes = (
(166,609,o),
(203,655,o),
(276,655,cs),
(347,655,o),
(389,612,o),
(389,525,cs),
(389,442,o),
(350,390,o),
(276,390,cs),
(205,390,o),
(166,437,o),
(166,524,cs)
);
}
);
width = 549;
}
);
unicode = 170;
},
{
glyphname = ordmasculine;
layers = (
{
layerId = "CCC13C4D-3D6C-43F7-997A-F2ED370E8D32";
shapes = (
{
closed = 1;
nodes = (
(82,393,o),
(146,317,o),
(259,317,cs),
(373,317,o),
(435,393,o),
(435,523,cs),
(435,631,o),
(372,720,o),
(259,720,cs),
(145,720,o),
(82,631,o),
(82,523,cs)
);
},
{
closed = 1;
nodes = (
(362,419,o),
(314,377,o),
(256,377,cs),
(201,377,o),
(155,417,o),
(155,527,cs),
(155,619,o),
(202,660,o),
(257,660,cs),
(315,660,o),
(362,628,o),
(362,524,cs)
);
}
);
width = 516;
}
);
unicode = 186;
},
{
glyphname = paragraph;
layers = (
{
layerId = "CCC13C4D-3D6C-43F7-997A-F2ED370E8D32";
shapes = (
{
closed = 1;
nodes = (
(50,383,o),
(108,282,o),
(308,282,cs),
(338,282,l),
(338,-132,l),
(386,-132,l),
(386,731,l),
(476,731,l),
(476,-132,l),
(524,-132,l),
(524,751,l),
(308,751,ls),
(129,751,o),
(50,663,o),
(50,523,cs)
);
}
);
width = 590;
}
);
unicode = 182;
},
{
glyphname = partialdiff;
layers = (
{
layerId = "CCC13C4D-3D6C-43F7-997A-F2ED370E8D32";
shapes = (
{
closed = 1;
nodes = (
(198,583,l),
(242,617,o),
(312,639,o),
(374,639,cs),
(484,639,o),
(579,569,o),
(579,418,cs),
(579,358,o),
(564,300,o),
(526,255,c),
(552,256,l),
(562,278,l),
(585,372,o),
(479,467,o),
(330,467,cs),
(171,467,o),
(38,360,o),
(38,206,cs),
(38,73,o),
(137,-20,o),
(280,-20,cs),
(493,-20,o),
(665,188,o),
(665,425,cs),
(665,613,o),
(557,720,o),
(385,720,cs),
(309,720,o),
(208,699,o),
(140,641,c)
);
},
{
closed = 1;
nodes = (
(443,395,o),
(515,335,o),
(515,243,cs),
(515,128,o),
(403,63,o),
(301,63,cs),
(202,63,o),
(128,124,o),
(128,219,cs),
(128,317,o),
(207,395,o),
(333,395,cs)
);
}
);
width = 730;
}
);
unicode = 8706;
},
{
glyphname = sterling;
layers = (
{
layerId = "CCC13C4D-3D6C-43F7-997A-F2ED370E8D32";
shapes = (
{
closed = 1;
nodes = (
(31,353,l),
(31,303,l),
(485,303,l),
(485,353,l)
);
},
{
closed = 1;
nodes = (
(376,639,o),
(431,610,o),
(497,541,c),
(555,599,l),
(490,680,o),
(407,720,o),
(311,720,cs),
(172,720,o),
(77,636,o),
(77,515,cs),
(77,387,o),
(182,311,o),
(182,201,cs),
(182,121,o),
(126,76,o),
(61,36,c),
(50,-44,l),
(112,32,o),
(147,50,o),
(191,50,cs),
(281,50,o),
(290,-26,o),
(407,-26,cs),
(502,-26,o),
(571,24,o),
(596,104,c),
(576,144,l),
(555,81,o),
(488,35,o),
(409,35,cs),
(307,35,o),
(316,112,o),
(220,112,c),
(235,134,o),
(260,166,o),
(260,224,cs),
(260,337,o),
(166,403,o),
(166,510,cs),
(166,597,o),
(227,639,o),
(308,639,cs)
);
}
);
width = 634;
}
);
unicode = 163;
},
{
glyphname = asciitilde;
layers = (
{
layerId = "CCC13C4D-3D6C-43F7-997A-F2ED370E8D32";
shapes = (
{
closed = 1;
nodes = (
(36,243,l),
(54,286,o),
(104,307,o),
(149,307,cs),
(179,307,o),
(199.968,296.958,o),
(240,266,cs),
(274.968,238.958,o),
(298,226,o),
(340,226,cs),
(395,226,o),
(441,248,o),
(465,329,c),
(455,329,l),
(438,289,o),
(404,277,o),
(365,277,cs),
(329,277,o),
(304.965,286.956,o),
(268,316,cs),
(234.965,341.956,o),
(208,356,o),
(171,356,cs),
(113,356,o),
(52,321,o),
(26,243,c)
);
}
);
width = 496;
}
);
unicode = 126;
},
{
glyphname = approxequal;
layers = (
{
layerId = "CCC13C4D-3D6C-43F7-997A-F2ED370E8D32";
shapes = (
{
closed = 1;
nodes = (
(42,166,l),
(60,209,o),
(110,230,o),
(155,230,cs),
(185,230,o),
(205.968,219.958,o),
(246,189,cs),
(280.968,161.958,o),
(304,149,o),
(346,149,cs),
(401,149,o),
(447,171,o),
(471,252,c),
(461,252,l),
(444,212,o),
(410,200,o),
(371,200,cs),
(335,200,o),
(310.965,209.956,o),
(274,239,cs),
(240.965,264.956,o),
(214,279,o),
(177,279,cs),
(119,279,o),
(58,244,o),
(32,166,c)
);
},
{
closed = 1;
nodes = (
(40,323,l),
(58,366,o),
(108,387,o),
(153,387,cs),
(183,387,o),
(203.968,376.958,o),
(244,346,cs),
(278.968,318.958,o),
(302,306,o),
(344,306,cs),
(399,306,o),
(445,328,o),
(469,409,c),
(459,409,l),
(442,369,o),
(408,357,o),
(369,357,cs),
(333,357,o),
(308.965,366.956,o),
(272,396,cs),
(238.965,421.956,o),
(212,436,o),
(175,436,cs),
(117,436,o),
(56,401,o),
(30,323,c)
);
}
);
width = 542;
}
);
unicode = 8776;
},
{
glyphname = at;
layers = (
{
layerId = "CCC13C4D-3D6C-43F7-997A-F2ED370E8D32";
shapes = (
{
closed = 1;
nodes = (
(44,-6,o),
(199,-159,o),
(423,-159,cs),
(463,-159,o),
(499,-154,o),
(534,-147,c),
(534,-97,l),
(502,-103,o),
(463,-109,o),
(424,-109,cs),
(245,-109,o),
(104,17,o),
(104,247,cs),
(104,491,o),
(264,611,o),
(447,611,cs),
(631,611,o),
(781,489.771,o),
(781,280.375,cs),
(781,144.117,o),
(724.597,82,o),
(663.717,82,cs),
(622.534,82,o),
(610,110.083,o),
(610,150.201,cs),
(610,163.239,l),
(629,422,l),
(584,447,o),
(538,460,o),
(483,460,cs),
(321,460,o),
(244,349,o),
(244,221,cs),
(244,90,o),
(326.717,21,o),
(421.689,21,cs),
(506.449,21,o),
(533,75,o),
(553,138,c),
(549.032,69,o),
(588,23,o),
(664,23,cs),
(783,23,o),
(841,136,o),
(841,282,cs),
(841,507,o),
(680,661,o),
(448,661,cs),
(216,661,o),
(44,507,o),
(44,244,cs)
);
},
{
closed = 1;
nodes = (
(324,320.757,o),
(374,398,o),
(467,398,cs),
(499,398,o),
(532,388.972,o),
(554,370.915,c),
(545,279.628,o),
(544,80,o),
(414,80,cs),
(354,80,o),
(324,123.136,o),
(324,209.407,cs)
);
}
);
width = 885;
}
);
unicode = 64;
},
{
glyphname = ampersand;
layers = (
{
layerId = "CCC13C4D-3D6C-43F7-997A-F2ED370E8D32";
shapes = (
{
closed = 1;
nodes = (
(265,409,l),
(210.348,456,o),
(186.5,495,o),
(186.5,543,cs),
(186.5,605,o),
(226.209,640,o),
(287.757,640,cs),
(351.291,640,o),
(391,603,o),
(391,551,cs),
(391,471,o),
(296.569,432,o),
(225,395,c)
);
},
{
closed = 1;
nodes = (
(301,365,l),
(425.693,425,o),
(481,474,o),
(481,559,cs),
(481,656,o),
(408.718,720,o),
(290.256,720,cs),
(171.794,720,o),
(96.5,656,o),
(96.5,554,cs),
(96.5,476,o),
(140.724,424,o),
(195,372,c),
(115,338,o),
(47,270,o),
(47,173,cs),
(47,58,o),
(142,-20,o),
(286,-20,cs),
(429,-20,o),
(545,58,o),
(642,206,c),
(584,264,l),
(513,127,o),
(396,60,o),
(291,60,cs),
(210,60,o),
(137,109,o),
(137,192,cs),
(137,247,o),
(170,299,o),
(229,325,c),
(515,0,l),
(626,0,l)
);
}
);
width = 664;
}
);
unicode = 38;
},
{
glyphname = degree;
layers = (
{
layerId = "CCC13C4D-3D6C-43F7-997A-F2ED370E8D32";
shapes = (
{
closed = 1;
nodes = (
(67,460,o),
(144,390,o),
(247,390,cs),
(349,390,o),
(418,458,o),
(418,556,cs),
(418,654,o),
(350,719,o),
(248,719,cs),
(143,719,o),
(67,651,o),
(67,556,cs)
);
},
{
closed = 1;
nodes = (
(144,628,o),
(181,668,o),
(244,668,cs),
(308,668,o),
(342,627,o),
(342,554,cs),
(342,474,o),
(301,441,o),
(243,441,cs),
(180,441,o),
(144,481,o),
(144,554,cs)
);
}
);
width = 483;
}
);
unicode = 176;
},
{
glyphname = asciicircum;
layers = (
{
layerId = "CCC13C4D-3D6C-43F7-997A-F2ED370E8D32";
shapes = (
{
closed = 1;
nodes = (
(50,520,l),
(98,520,l),
(257,739,l),
(417,519,l),
(465,519,l),
(303,779,l),
(211,779,l)
);
}
);
width = 515;
}
);
unicode = 94;
},
{
glyphname = bullet;
layers = (
{
layerId = "CCC13C4D-3D6C-43F7-997A-F2ED370E8D32";
shapes = (
{
closed = 1;
nodes = (
(281,234,o),
(319,271,o),
(319,318,cs),
(319,365,o),
(281,403,o),
(234,403,cs),
(188,403,o),
(150,365,o),
(150,318,cs),
(150,271,o),
(188,234,o),
(234,234,cs)
);
}
);
width = 471;
}
);
unicode = 8226;
},
{
glyphname = summation;
layers = (
{
layerId = "CCC13C4D-3D6C-43F7-997A-F2ED370E8D32";
shapes = (
{
closed = 1;
nodes = (
(611,-125,l),
(611,-45,l),
(180,-45,l),
(478,287,l),
(180,620,l),
(611,620,l),
(611,700,l),
(40,700,l),
(40,650,l),
(362,287,l),
(40,-75,l),
(40,-125,l)
);
}
);
width = 662;
}
);
unicode = 8721;
},
{
glyphname = radical;
layers = (
{
layerId = "CCC13C4D-3D6C-43F7-997A-F2ED370E8D32";
shapes = (
{
closed = 1;
nodes = (
(391,-123.956,l),
(691.152,799.874,l),
(596.152,799.874,l),
(317,-59.956,l),
(199,282.044,l),
(11,282.044,l),
(11,212.044,l),
(130,212.044,l),
(252,-123.956,l)
);
}
);
width = 660;
}
);
unicode = 8730;
},
{
glyphname = fraction;
layers = (
{
layerId = "CCC13C4D-3D6C-43F7-997A-F2ED370E8D32";
shapes = (
{
closed = 1;
nodes = (
(-90,0,l),
(-50,0,l),
(306,700,l),
(266,700,l)
);
}
);
width = 216;
}
);
unicode = 8260;
},
{
glyphname = ampersand.ss09;
layers = (
{
layerId = "CCC13C4D-3D6C-43F7-997A-F2ED370E8D32";
shapes = (
{
closed = 1;
nodes = (
(457,122,l),
(579,0,l),
(631,0,l),
(631,64,l),
(510,195,l)
);
},
{
closed = 1;
nodes = (
(198,379,l),
(105,339,o),
(47,280,o),
(47,182,cs),
(47,63,o),
(132,-20,o),
(290,-20,cs),
(496,-20,o),
(590,122,o),
(590,310,c),
(500,310,l),
(500,152,o),
(440,61,o),
(302,61,cs),
(196,61,o),
(138,115,o),
(138,207,cs),
(138,286,o),
(181,331,o),
(296,378,c),
(186,524,ls),
(148,575,o),
(153,620,o),
(220,620,cs),
(461,620,l),
(461,700,l),
(220,700,ls),
(60,700,o),
(49,577,o),
(103,505,cs)
);
}
);
width = 660;
}
);
},
{
glyphname = g.ss03;
layers = (
{
anchors = (
{
name = top;
position = "{295, 520}";
},
{
name = bottom;
position = "{295, -220}";
}
);
layerId = "CCC13C4D-3D6C-43F7-997A-F2ED370E8D32";
shapes = (
{
closed = 1;
nodes = (
(420,124,o),
(511,206,o),
(511,322,cs,{name = sv14;}),
(511,437,o),
(421,520,o),
(296,520,cs,{name = at01;}),
(169,520,o),
(79,435,o),
(79,318,cs),
(79,202,o),
(168,124,o),
(292,124,cs,{name = dv05;})
);
},
{
closed = 1;
nodes = (
(376,450,o),
(421,404,o),
(421,319,cs,{name = sv13;}),
(421,236,o),
(378,194,o),
(293,194,cs,{name = dv06;}),
(210,194,o),
(169,235,o),
(169,314,cs,{name = sv09;}),
(169,400,o),
(217,450,o),
(298,450,cs,{name = sv01;})
);
},
{
closed = 1;
nodes = (
(201,-150,o),
(161,-118,o),
(156,-33,c,{name = sv04;}),
(66,-33,l,{name = sv12;}),
(73,-154,o),
(158,-220,o),
(311,-220,cs,{name = dv01;}),
(451,-220,o),
(534,-164.807,o),
(534,-64.456,cs,{name = sv08;}),
(534,24.856,o),
(469,66,o),
(256,66,cs,{name = sv05;}),
(168,66,o),
(129,72.94,o),
(129,115.573,cs,{name = sv06;}),
(129,149.282,o),
(153,173.077,o),
(195,182,c,{name = sv10;}),
(194,229,l,{name = sv11;}),
(99,201,o),
(62,167,o),
(62,105,cs),
(62,26,o),
(123,1,o),
(274,1,cs,{name = ab01;}),
(409,1,o),
(448,-19,o),
(448,-71,cs,{name = sv07;}),
(448,-127,o),
(403,-150,o),
(310,-150,cs,{name = dv02;})
);
},
{
closed = 1;
nodes = (
(569,564,o),
(548,584,o),
(518,584,cs,{name = dv04;}),
(466,584,o),
(399,523,o),
(389,435,c,{name = sv02;}),
(406,432,l,{name = sv03;}),
(413,483,o),
(458,525,o),
(475,536,c,{name = at02;}),
(472,508,o),
(498,487,o),
(523,487,cs,{name = dv03;}),
(548,487,o),
(569,508,o),
(569,536,cs)
);
}
);
width = 590;
}
);
leftKerningGroup = a;
},
{
glyphname = y.ss04;
layers = (
{
anchors = (
{
name = bottom;
position = "{428, 0}";
},
{
name = top;
position = "{283, 520}";
}
);
layerId = "CCC13C4D-3D6C-43F7-997A-F2ED370E8D32";
shapes = (
{
closed = 1;
nodes = (
(526,500,l,{name = av01;}),
(431,500,l),
(249,-57.857,ls),
(229.651,-117.164,o),
(207,-151,o),
(163,-151,cs,{name = dv02;}),
(145,-151,o),
(113,-145.643,o),
(88,-136,c),
(66,-198,l),
(108,-212,o),
(121,-221,o),
(178,-221,cs,{name = dv01;}),
(260,-221,o),
(295,-171,o),
(327,-78,cs)
);
},
{
closed = 1;
nodes = (
(297,0,l),
(135,500,l,{name = av02;}),
(40,500,l),
(212,0,l)
);
}
);
width = 565;
}
);
leftKerningGroup = v;
rightKerningGroup = v1;
},
{
glyphname = n;
layers = (
{
anchors = (
{
name = top;
position = "{318, 520}";
},
{
name = bottom;
position = "{318, -20}";
}
);
layerId = "CCC13C4D-3D6C-43F7-997A-F2ED370E8D32";
shapes = (
{
closed = 1;
nodes = (
(177,274,l),
(184,217,l,{name = iv01;}),
(184,357.203,o),
(240,450,o),
(350,450,cs,{name = sv01;}),
(425,450,o),
(451,407.812,o),
(451,294.308,cs),
(451,0,l,{name = ab01;}),
(541,0,l),
(541,304,ls),
(541,448,o),
(486,520,o),
(372,520,cs,{name = at01;}),
(275,520,o),
(199,451,o),
(176,342,c)
);
},
{
closed = 1;
nodes = (
(94,0,l,{name = ab02;}),
(184,0,l),
(184,500,l,{name = av01;}),
(94,500,l)
);
}
);
width = 635;
}
);
leftKerningGroup = i;
rightKerningGroup = h;
unicode = 110;
},
{
glyphname = Schwa;
layers = (
{
anchors = (
{
name = top;
position = "{390, 719}";
},
{
name = bottom;
position = "{390, -20}";
}
);
layerId = "CCC13C4D-3D6C-43F7-997A-F2ED370E8D32";
shapes = (
{
closed = 1;
nodes = (
(587,720,o),
(716,581,o),
(716,355,cs,{name = sh03;}),
(716,129,o),
(587,-20,o),
(392,-20,cs,{name = dv01;}),
(197,-20,o),
(63,130,o),
(63,337,cs,{name = sh01;}),
(63,362,o),
(65,383,o),
(67,398,c,{name = sh04;}),
(638,398,l,{name = dv06;}),
(639,318,l,{name = dv05;}),
(154,318,l,{name = sh02;}),
(164,160,o),
(256,61,o),
(395,61,cs,{name = dv02;}),
(539,61,o),
(627,167,o),
(627,354,cs),
(627,538,o),
(541,640,o),
(388,640,cs,{name = dv03;}),
(298,640,o),
(241,613,o),
(175,541,c),
(117,599,l),
(179,677,o),
(270,720,o),
(391,720,cs,{name = dv04;})
);
}
);
width = 779;
}
);
leftKerningGroup = C1;
rightKerningGroup = C;
unicode = 399;
},
{
glyphname = schwa;
layers = (
{
anchors = (
{
name = top;
position = "{306, 520}";
},
{
name = bottom;
position = "{306, -20}";
}
);
layerId = "CCC13C4D-3D6C-43F7-997A-F2ED370E8D32";
shapes = (
{
closed = 1;
nodes = (
(453,224,l,{name = ah01;}),
(449,112.358,o),
(395,50,o),
(302,50,cs,{name = dv02;}),
(207,50,o),
(151,115,o),
(151,224,c,{name = dv03;})
);
},
{
closed = 1;
nodes = (
(208,520,o),
(133,483,o),
(91,430,c),
(142,379,l),
(183.111,423.629,o),
(242,450,o),
(302,450,cs,{name = sv01;}),
(403,450,o),
(449.667,376.552,o),
(453,286,c,{name = sh03;}),
(63,286,l,{name = dv04;}),
(61,271,o),
(60,262,o),
(60,246,cs,{name = sh01;}),
(60,86,o),
(158,-20,o),
(304,-20,cs,{name = dv01;}),
(452,-20,o),
(544,89,o),
(544,256,cs,{name = sh02;}),
(544,421,o),
(454,520,o),
(301,520,cs,{name = at01;})
);
}
);
width = 613;
}
);
leftKerningGroup = a;
rightKerningGroup = b1;
unicode = 601;
},
{
glyphname = yen;
layers = (
{
layerId = "CCC13C4D-3D6C-43F7-997A-F2ED370E8D32";
shapes = (
{
closed = 1;
nodes = (
(130,150,l),
(130,117,l),
(533,117,l),
(533,150,l)
);
},
{
closed = 1;
nodes = (
(130,281,l),
(130,248,l),
(533,248,l),
(533,281,l)
);
},
{
alignment = -1;
ref = Y;
}
);
width = 662;
}
);
unicode = 165;
},
{
glyphname = G.ss03;
layers = (
{
anchors = (
{
name = bottom;
position = "{397, -19}";
},
{
name = top;
position = "{387, 719}";
}
);
layerId = "CCC13C4D-3D6C-43F7-997A-F2ED370E8D32";
shapes = (
{
closed = 1;
nodes = (
(504,720,o),
(595,680,o),
(663,603,c),
(627,499,l),
(555,618.85,o),
(474,640,o),
(389,640,cs),
(255,640,o),
(153,530.623,o),
(153,351.003,cs,{name = dv07;}),
(153,164.36,o),
(262,60,o),
(402,60,cs,{name = dv04;}),
(532,60,o),
(620,156,o),
(620,290,c,{name = sv02;}),
(380,290,l,{name = dv05;}),
(380,370,l,{name = dv06;}),
(710,370,l,{name = sv01;}),
(710,316.864,ls,{name = sv03;}),
(710,117.352,o),
(588,-20,o),
(396,-20,cs,{name = dv03;}),
(201,-20,o),
(63,132,o),
(63,348,cs,{name = dv08;}),
(63,561,o),
(184,720,o),
(389,720,cs)
);
}
);
width = 773;
}
);
leftKerningGroup = C1;
rightKerningGroup = C;
},
{
glyphname = softhyphen;
layers = (
{
layerId = "CCC13C4D-3D6C-43F7-997A-F2ED370E8D32";
shapes = (
{
closed = 1;
nodes = (
(50,262,l),
(414,262,l),
(414,296,l),
(50,296,l)
);
}
);
width = 464;
}
);
unicode = 173;
},
{
glyphname = lira;
layers = (
{
layerId = "CCC13C4D-3D6C-43F7-997A-F2ED370E8D32";
shapes = (
{
closed = 1;
nodes = (
(42,410,l),
(42,360,l),
(500,360,l),
(500,410,l)
);
},
{
closed = 1;
nodes = (
(42,288,l),
(42,238,l),
(500,238,l),
(500,288,l)
);
},
{
closed = 1;
nodes = (
(247,720,o),
(154,627,o),
(154,474,cs),
(154,208,ls),
(154,138,o),
(108,68,o),
(38,40,c),
(38,0,l),
(633,0,l),
(633,80,l),
(166,80,l),
(232,104,o),
(244,170,o),
(244,243,cs),
(244,483,ls),
(244,556,o),
(285,640,o),
(388,640,cs),
(452,640,o),
(518,607,o),
(579,541,c),
(637,599,l),
(574,681,o),
(493,720,o),
(396,720,cs)
);
}
);
width = 666;
}
);
unicode = 8356;
},
{
glyphname = austral;
layers = (
{
layerId = "CCC13C4D-3D6C-43F7-997A-F2ED370E8D32";
shapes = (
{
closed = 1;
nodes = (
(13,148,l),
(705,148,l),
(705,191,l),
(13,191,l)
);
},
{
closed = 1;
nodes = (
(13,287,l),
(705,287,l),
(705,330,l),
(13,330,l)
);
},
{
alignment = -1;
pos = (31.5,0);
ref = Elcyr.ss08;
}
);
width = 718;
}
);
unicode = 8371;
},
{
glyphname = hryvnia;
layers = (
{
layerId = "CCC13C4D-3D6C-43F7-997A-F2ED370E8D32";
shapes = (
{
closed = 1;
nodes = (
(41,275,l),
(156.94,275,l),
(138.13,245.74,o),
(129,212.11,o),
(129,174.29,cs),
(129,45.09,o),
(235,-20,o),
(369,-20,cs),
(476,-20,o),
(559,21,o),
(622,101,c),
(564,159,l),
(505,94.34,o),
(443,60,o),
(364,60,cs),
(280,60,o),
(219,99.05,o),
(219,176.17,cs),
(219,218.25,o),
(237.54,250.65,o),
(277.54,275,c),
(693,275,l),
(693,311,l),
(41,311,l)
);
},
{
closed = 1;
nodes = (
(41,391,l),
(693,391,l),
(693,427,l),
(583.15,427,l),
(602.24,456.57,o),
(612,490.88,o),
(612,529.71,cs),
(612,646.88,o),
(523,720,o),
(386,720,cs),
(284,720,o),
(201,679,o),
(138,599,c),
(196,541,l),
(255,605.65,o),
(317,640,o),
(389,640,cs),
(467,640,o),
(522,600.94,o),
(522,526.82,cs),
(522,486.79,o),
(505.78,453.44,o),
(460.5,427,c),
(41,427,l)
);
}
);
width = 734;
}
);
unicode = 8372;
},
{
glyphname = turkishlira;
layers = (
{
layerId = "CCC13C4D-3D6C-43F7-997A-F2ED370E8D32";
shapes = (
{
closed = 1;
nodes = (
(21,432,l),
(21,400,l),
(443,527,l),
(443,560,l)
);
},
{
closed = 1;
nodes = (
(21,315,l),
(21,283,l),
(443,410,l),
(443,443,l)
);
},
{
closed = 1;
nodes = (
(505,255,l),
(505,150,o),
(453,80,o),
(318,80,cs),
(234,80,l),
(234,700,l),
(144,700,l),
(144,0,l),
(307,0,ls),
(509,0,o),
(586,78,o),
(586,283,c)
);
}
);
width = 640;
}
);
unicode = 8378;
},
{
glyphname = manat;
layers = (
{
layerId = "CCC13C4D-3D6C-43F7-997A-F2ED370E8D32";
shapes = (
{
closed = 1;
nodes = (
(210,595,o),
(63,439,o),
(63,211,cs),
(63,142,o),
(79,68,o),
(110,0,c),
(205,0,l),
(171,62,o),
(153,143,o),
(153,215,cs),
(153,396,o),
(261,515,o),
(424,515,cs),
(587,515,o),
(693,398,o),
(693,218,cs),
(693,145,o),
(675,63,o),
(640,0,c),
(731,0,l),
(765,74,o),
(783,152,o),
(783,227,cs),
(783,445,o),
(636,595,o),
(425,595,cs)
);
},
{
closed = 1;
nodes = (
(382,110,l),
(462,157,l),
(462,750,l),
(382,703,l)
);
}
);
width = 846;
}
);
unicode = 8380;
},
{
glyphname = ruble;
layers = (
{
layerId = "CCC13C4D-3D6C-43F7-997A-F2ED370E8D32";
shapes = (
{
closed = 1;
nodes = (
(255,0,l),
(255,620,l),
(407,620,ls),
(515,620,o),
(571,569,o),
(571,467,cs),
(571,368,o),
(518,317,o),
(412,317,cs),
(55,317,l),
(55,236,l),
(412,236,ls),
(570,236,o),
(661,319,o),
(661,460,cs),
(661,608,o),
(562,700,o),
(406,700,cs),
(165,700,l),
(165,0,l)
);
},
{
closed = 1;
nodes = (
(55,142,l),
(55,102,l),
(599,102,l),
(599,142,l)
);
}
);
width = 720;
}
);
unicode = 8381;
},
{
glyphname = Gecyr;
layers = (
{
anchors = (
{
name = top;
position = "{272, 719}";
},
{
name = bottom;
position = "{283, -20}";
}
);
layerId = "CCC13C4D-3D6C-43F7-997A-F2ED370E8D32";
shapes = (
{
closed = 1;
nodes = (
(174,0,l),
(174,620,l),
(478,620,l),
(478,700,l),
(84,700,l),
(84,0,l)
);
}
);
width = 544;
}
);
leftKerningGroup = B;
rightKerningGroup = F;
unicode = 1043;
},
{
glyphname = Kacyr;
layers = (
{
anchors = (
{
name = top;
position = "{320, 719}";
},
{
name = bottom;
position = "{320, -20}";
}
);
layerId = "CCC13C4D-3D6C-43F7-997A-F2ED370E8D32";
shapes = (
{
closed = 1;
nodes = (
(88,700,l),
(88,0,l),
(178,0,l),
(178,700,l)
);
},
{
closed = 1;
nodes = (
(149,335,l),
(357,335,ls),
(458,335,o),
(517,380,o),
(529,479,c),
(550,700,l),
(460,700,l),
(445,541,l),
(437,449,o),
(410,415,o),
(350,415,cs),
(149,415,l)
);
},
{
closed = 1;
nodes = (
(372,341,l),
(496,0,l),
(593,0,l),
(460,365,l)
);
}
);
width = 640;
}
);
leftKerningGroup = B;
rightKerningGroup = K;
unicode = 1050;
},
{
glyphname = kacyr;
layers = (
{
anchors = (
{
name = top;
position = "{288, 520}";
},
{
name = bottom;
position = "{288, -20}";
}
);
layerId = "CCC13C4D-3D6C-43F7-997A-F2ED370E8D32";
shapes = (
{
closed = 1;
nodes = (
(84,500,l,{name = av01;}),
(84,0,l,{name = ab01;}),
(174,0,l),
(174,500,l)
);
},
{
closed = 1;
nodes = (
(161,231,l,{name = dv01;}),
(345,231,ls),
(426,231,o),
(473,267,o),
(485,345,c),
(504,500,l,{name = av02;}),
(418,500,l),
(404,386,l),
(397,330,o),
(378,301,o),
(307,301,cs),
(161,301,l,{name = dv02;})
);
},
{
closed = 1;
nodes = (
(336,240,l,{name = iv01;}),
(443,0,l,{name = ab02;}),
(542,0,l),
(430,251,l)
);
}
);
width = 588;
}
);
leftKerningGroup = i;
rightKerningGroup = k;
unicode = 1082;
},
{
glyphname = tshecyr;
layers = (
{
layerId = "CCC13C4D-3D6C-43F7-997A-F2ED370E8D32";
shapes = (
{
closed = 1;
nodes = (
(124,0,l,{name = ab03;}),
(214,0,l),
(214,750,l,{name = ab01;}),
(124,750,l)
);
},
{
closed = 1;
nodes = (
(207,254,l),
(214,197,l,{name = iv01;}),
(214,336,o),
(270,428,o),
(380,428,cs,{name = sv01;}),
(455,428,o),
(481,386,o),
(481,273,cs),
(481,0,l,{name = ab01;}),
(571,0,l),
(571,284,ls),
(571,428,o),
(516,500,o),
(402,500,cs,{name = at01;}),
(305,500,o),
(229,431,o),
(206,322,c)
);
},
{
closed = 1;
nodes = (
(20,590,l),
(425,590,l),
(425,626,l),
(20,626,l)
);
}
);
width = 665;
}
);
leftKerningGroup = f;
rightKerningGroup = h;
unicode = 1115;
},
{
glyphname = Pecyr;
layers = (
{
anchors = (
{
name = bottom;
position = "{350, -20}";
},
{
name = top;
position = "{350, 719}";
}
);
layerId = "CCC13C4D-3D6C-43F7-997A-F2ED370E8D32";
shapes = (
{
closed = 1;
nodes = (
(187,0,l),
(187,620,l),
(513,620,l),
(513,0,l),
(603,0,l),
(603,700,l),
(97,700,l),
(97,0,l)
);
}
);
width = 700;
}
);
leftKerningGroup = B;
rightKerningGroup = H;
unicode = 1055;
},
{
glyphname = djecyr;
layers = (
{
layerId = "CCC13C4D-3D6C-43F7-997A-F2ED370E8D32";
shapes = (
{
closed = 1;
nodes = (
(124,0,l,{name = ab03;}),
(214,0,l),
(214,750,l,{name = ab01;}),
(124,750,l)
);
},
{
closed = 1;
nodes = (
(207,254,l),
(214,197,l,{name = iv01;}),
(214,336,o),
(270,428,o),
(380,428,cs,{name = sv01;}),
(455,428,o),
(481,386,o),
(481,273,cs),
(481,0,l,{name = ab01;}),
(571,0,l),
(571,284,ls),
(571,428,o),
(516,500,o),
(402,500,cs,{name = at01;}),
(305,500,o),
(229,431,o),
(206,322,c)
);
},
{
closed = 1;
nodes = (
(20,590,l),
(412,590,l),
(412,626,l),
(20,626,l)
);
},
{
closed = 1;
nodes = (
(571,240,l),
(481,240,l,{name = av01;}),
(481,-58,ls),
(481,-127,o),
(473,-150,o),
(429,-150,cs,{name = dv02;}),
(411,-150,o),
(379,-145,o),
(354,-136,c),
(332,-198,l),
(374,-212,o),
(387,-221,o),
(444,-221,cs,{name = dv01;}),
(526,-221,o),
(571,-174,o),
(571,-68,cs)
);
}
);
width = 665;
}
);
leftKerningGroup = f;
rightKerningGroup = h;
unicode = 1106;
},
{
glyphname = Yucyr;
layers = (
{
anchors = (
{
name = top;
position = "{545, 719}";
}
);
layerId = "CCC13C4D-3D6C-43F7-997A-F2ED370E8D32";
shapes = (
{
closed = 1;
nodes = (
(172,331,l),
(382,331,l),
(382,411,l),
(172,411,l)
);
},
{
alignment = -1;
pos = (295,0);
ref = O;
},
{
alignment = -1;
pos = (-21,0);
ref = I;
}
);
width = 1090;
}
);
leftKerningGroup = B;
rightKerningGroup = C;
unicode = 1070;
},
{
glyphname = Hardcyr;
layers = (
{
layerId = "CCC13C4D-3D6C-43F7-997A-F2ED370E8D32";
shapes = (
{
closed = 1;
nodes = (
(41,700,l),
(41,620,l),
(214,620,l),
(247,694,l),
(247,700,l)
);
},
{
alignment = -1;
pos = (102,0);
ref = Softcyr;
}
);
width = 735;
}
);
rightKerningGroup = Ljecyr;
unicode = 1066;
},
{
glyphname = Shacyr;
layers = (
{
layerId = "CCC13C4D-3D6C-43F7-997A-F2ED370E8D32";
shapes = (
{
closed = 1;
nodes = (
(873,0,l),
(873,700,l),
(783,700,l),
(783,80,l),
(530,80,l),
(530,700,l),
(440,700,l),
(440,80,l),
(187,80,l),
(187,700,l),
(97,700,l),
(97,0,l)
);
}
);
width = 970;
}
);
leftKerningGroup = B;
rightKerningGroup = H;
unicode = 1064;
},
{
glyphname = Ereversedcyr;
layers = (
{
anchors = (
{
name = top;
position = "{330, 719}";
}
);
layerId = "CCC13C4D-3D6C-43F7-997A-F2ED370E8D32";
shapes = (
{
closed = 1;
nodes = (
(555,320,l),
(220,320,l),
(220,400,l),
(555,400,l)
);
},
{
closed = 1;
nodes = (
(207,-20,o),
(127,18,o),
(53,102,c),
(111,160,l),
(162.523,93,o),
(229.899,60,o),
(304.211,60,cs,{name = dv02;}),
(446.89,60,o),
(543,182,o),
(543,366,cs),
(543,542,o),
(455.807,640,o),
(316.101,640,cs,{name = dv03;}),
(236.835,640,o),
(172.431,609,o),
(111,541,c),
(53,599,l),
(118,681,o),
(203,720,o),
(312,720,cs,{name = dv04;}),
(518,720,o),
(637,581,o),
(637,365,cs),
(637,135,o),
(503,-20,o),
(305,-20,cs,{name = dv01;})
);
}
);
width = 694;
}
);
leftKerningGroup = C1;
rightKerningGroup = C;
unicode = 1069;
},
{
glyphname = Becyr;
layers = (
{
layerId = "CCC13C4D-3D6C-43F7-997A-F2ED370E8D32";
shapes = (
{
closed = 1;
nodes = (
(118,619,l),
(530,619,l),
(530,700,l),
(105,700,l),
(105,695,l)
);
},
{
alignment = -1;
ref = Softcyr;
}
);
width = 633;
}
);
leftKerningGroup = B;
unicode = 1041;
},
{
glyphname = gecyr;
layers = (
{
anchors = (
{
name = top;
position = "{241, 520}";
},
{
name = bottom;
position = "{241, -20}";
}
);
layerId = "CCC13C4D-3D6C-43F7-997A-F2ED370E8D32";
shapes = (
{
closed = 1;
nodes = (
(94,0,l),
(184,0,l),
(184,430,l),
(394,430,l),
(394,500,l),
(94,500,l)
);
}
);
width = 441;
}
);
leftKerningGroup = i;
rightKerningGroup = r;
unicode = 1075;
},
{
glyphname = encyr;
layers = (
{
anchors = (
{
name = bottom;
position = "{306, -20}";
},
{
name = top;
position = "{306, 520}";
}
);
layerId = "CCC13C4D-3D6C-43F7-997A-F2ED370E8D32";
shapes = (
{
closed = 1;
nodes = (
(180,0,l),
(180,235,l),
(433,235,l),
(433,0,l),
(523,0,l),
(523,500,l),
(433,500,l),
(433,305,l),
(180,305,l),
(180,500,l),
(90,500,l),
(90,0,l)
);
}
);
width = 613;
}
);
leftKerningGroup = i;
rightKerningGroup = a1;
unicode = 1085;
},
{
glyphname = pecyr;
layers = (
{
anchors = (
{
name = bottom;
position = "{309, -20}";
},
{
name = top;
position = "{309, 520}";
}
);
layerId = "CCC13C4D-3D6C-43F7-997A-F2ED370E8D32";
shapes = (
{
closed = 1;
nodes = (
(180,0,l),
(180,430,l),
(438,430,l),
(438,0,l),
(528,0,l),
(528,500,l),
(90,500,l),
(90,0,l)
);
}
);
width = 618;
}
);
leftKerningGroup = i;
rightKerningGroup = a1;
unicode = 1087;
},
{
glyphname = icyr;
layers = (
{
anchors = (
{
name = top;
position = "{315, 520}";
},
{
name = bottom;
position = "{315, -20}";
}
);
layerId = "CCC13C4D-3D6C-43F7-997A-F2ED370E8D32";
shapes = (
{
closed = 1;
nodes = (
(90,500,l),
(90,0,l),
(177,0,l),
(449,374,l),
(449,0,l),
(539,0,l),
(539,500,l),
(451,500,l),
(180,127,l),
(180,500,l)
);
}
);
width = 629;
}
);
leftKerningGroup = i;
rightKerningGroup = a1;
unicode = 1080;
},
{
glyphname = Njecyr;
layers = (
{
layerId = "CCC13C4D-3D6C-43F7-997A-F2ED370E8D32";
shapes = (
{
closed = 1;
nodes = (
(98,0,l,{name = ab01;}),
(188,0,l),
(188,310,l,{name = dv01;}),
(518,310,l),
(518,0,l,{name = ab02;}),
(608,0,l),
(608,700,l,{name = at01;}),
(518,700,l),
(518,390,l),
(188,390,l,{name = dv02;}),
(188,700,l,{name = at02;}),
(98,700,l)
);
},
{
closed = 1;
nodes = (
(528,0,l),
(707,0,ls),
(875,0,o),
(931,80,o),
(931,192,cs),
(931,307,o),
(872,390,o),
(694,390,cs),
(525,390,l),
(540,310,l),
(679,310,ls),
(797,310,o),
(841,279,o),
(841,188,cs),
(841,110,o),
(808,80,o),
(680,80,cs),
(594,80,l)
);
}
);
width = 990;
}
);
leftKerningGroup = B;
rightKerningGroup = Ljecyr;
unicode = 1034;
},
{
glyphname = yucyr;
layers = (
{
anchors = (
{
name = bottom;
position = "{438, -20}";
},
{
name = top;
position = "{438, 520}";
}
);
layerId = "CCC13C4D-3D6C-43F7-997A-F2ED370E8D32";
shapes = (
{
closed = 1;
nodes = (
(171,220,l),
(347,220,l),
(347,290,l),
(171,290,l)
);
},
{
closed = 1;
nodes = (
(315,79,o),
(399,-20,o),
(548,-20,cs,{name = dv01;}),
(710,-20,o),
(793,79,o),
(793,255,cs),
(793,421,o),
(710,520,o),
(549,520,cs,{name = at01;}),
(399,520,o),
(315,421,o),
(315,255,cs)
);
},
{
closed = 1;
nodes = (
(703,115.327,o),
(654,50,o),
(550,50,cs,{name = dv02;}),
(453,50,o),
(405,118.342,o),
(405,255.025,cs),
(405,387.688,o),
(452,450,o),
(552,450,cs,{name = sv01;}),
(653,450,o),
(703,383.668,o),
(703,253.015,cs)
);
},
{
closed = 1;
nodes = (
(195,0,l),
(195,500,l),
(105,500,l),
(105,0,l)
);
}
);
width = 877;
}
);
leftKerningGroup = i;
rightKerningGroup = b1;
unicode = 1102;
},
{
glyphname = tecyr;
layers = (
{
anchors = (
{
name = bottom;
position = "{262, -20}";
},
{
name = top;
position = "{263, 520}";
}
);
layerId = "CCC13C4D-3D6C-43F7-997A-F2ED370E8D32";
shapes = (
{
closed = 1;
nodes = (
(42,500,l),
(42,430,l),
(217.5,430,l),
(217.5,0,l),
(307.5,0,l),
(307.5,430,l),
(483,430,l),
(483,500,l)
);
}
);
width = 525;
}
);
unicode = 1090;
},
{
glyphname = Checyr;
layers = (
{
anchors = (
{
name = top;
position = "{337, 719}";
}
);
layerId = "CCC13C4D-3D6C-43F7-997A-F2ED370E8D32";
shapes = (
{
closed = 1;
nodes = (
(487,0,l),
(577,0,l),
(577,700,l),
(487,700,l)
);
},
{
closed = 1;
nodes = (
(80,700,l),
(80,439,ls),
(80,293,o),
(164,223,o),
(283,223,cs),
(414,223,o),
(489,308,o),
(498,388,c),
(487,458,l),
(487,370,o),
(412,303,o),
(302,303,cs),
(216,303,o),
(170,344,o),
(170,441,cs),
(170,700,l)
);
}
);
width = 674;
}
);
rightKerningGroup = H;
unicode = 1063;
},
{
glyphname = checyr;
layers = (
{
anchors = (
{
name = bottom;
position = "{298, -20}";
},
{
name = top;
position = "{298, 520}";
}
);
layerId = "CCC13C4D-3D6C-43F7-997A-F2ED370E8D32";
shapes = (
{
closed = 1;
nodes = (
(415,0,l),
(505,0,l),
(505,500,l),
(415,500,l)
);
},
{
closed = 1;
nodes = (
(86,500,l),
(86,340,ls),
(86,217.68,o),
(147.488,165,o),
(250.01,165,cs),
(348,165,o),
(434,225,o),
(434,344,c),
(415,365,l),
(415,284.382,o),
(345.5,235,o),
(271.936,235,cs),
(208.275,235,o),
(176,266.981,o),
(176,340,cs),
(176,500,l)
);
}
);
width = 595;
}
);
rightKerningGroup = a1;
unicode = 1095;
},
{
glyphname = ereversedcyr;
layers = (
{
anchors = (
{
name = bottom;
position = "{301, -20}";
},
{
name = top;
position = "{281, 520}";
}
);
layerId = "CCC13C4D-3D6C-43F7-997A-F2ED370E8D32";
shapes = (
{
closed = 1;
nodes = (
(430,220,l),
(166,220,l),
(166,285,l),
(430,285,l)
);
},
{
closed = 1;
nodes = (
(368,50,o),
(416,118.342,o),
(416,255.025,cs),
(416,387.688,o),
(369,450,o),
(269,450,cs,{name = sv01;}),
(210,450,o),
(154,423.639,o),
(118,377,c),
(65,430,l),
(106,483,o),
(178,520,o),
(272,520,cs,{name = at01;}),
(422,520,o),
(506,421,o),
(506,255,cs),
(506,79,o),
(420,-20,o),
(271,-20,cs,{name = dv01;}),
(175,-20,o),
(100,17,o),
(59,70,c),
(112,123,l),
(148,76.361,o),
(209,50,o),
(271,50,cs,{name = dv02;})
);
}
);
width = 563;
}
);
leftKerningGroup = zecyr;
rightKerningGroup = b1;
unicode = 1101;
},
{
glyphname = shacyr;
layers = (
{
layerId = "CCC13C4D-3D6C-43F7-997A-F2ED370E8D32";
shapes = (
{
closed = 1;
nodes = (
(789,0,l),
(789,500,l),
(699,500,l),
(699,70,l),
(485,70,l),
(485,500,l),
(395,500,l),
(395,70,l),
(180,70,l),
(180,500,l),
(90,500,l),
(90,0,l)
);
}
);
width = 879;
}
);
leftKerningGroup = i;
rightKerningGroup = a1;
unicode = 1096;
},
{
glyphname = Shchacyr;
layers = (
{
layerId = "CCC13C4D-3D6C-43F7-997A-F2ED370E8D32";
shapes = (
{
closed = 1;
nodes = (
(97,0,l),
(97,700,l),
(187,700,l),
(187,80,l),
(441,80,l),
(441,700,l),
(531,700,l),
(531,80,l),
(785,80,l),
(785,700,l),
(875,700,l),
(875,80,l),
(975,80,o),
(1007,72,o),
(1007,-140,c),
(927,-140,l),
(927,-42,o),
(935,0,o),
(864,0,cs)
);
}
);
width = 1060;
}
);
leftKerningGroup = B;
unicode = 1065;
},
{
glyphname = Tsecyr;
layers = (
{
layerId = "CCC13C4D-3D6C-43F7-997A-F2ED370E8D32";
shapes = (
{
closed = 1;
nodes = (
(576,0,ls),
(647,0,o),
(639,-42,o),
(639,-140,c),
(719,-140,l),
(719,72,o),
(687,80,o),
(587,80,c),
(587,701,l),
(497,701,l),
(497,80,l),
(187,80,l),
(187,701,l),
(97,701,l),
(97,0,l)
);
}
);
width = 760;
}
);
leftKerningGroup = B;
unicode = 1062;
},
{
glyphname = shchacyr;
layers = (
{
layerId = "CCC13C4D-3D6C-43F7-997A-F2ED370E8D32";
shapes = (
{
closed = 1;
nodes = (
(782,0,ls),
(850,0,o),
(835,-82,o),
(835,-140,c),
(910,-140,l),
(910,34,o),
(890,69,o),
(789,69,c),
(789,500,l),
(699,500,l),
(699,70,l),
(485,70,l),
(485,500,l),
(395,500,l),
(395,70,l),
(180,70,l),
(180,500,l),
(90,500,l),
(90,0,l)
);
}
);
width = 954;
}
);
leftKerningGroup = i;
rightKerningGroup = l;
unicode = 1097;
},
{
glyphname = tsecyr;
layers = (
{
layerId = "CCC13C4D-3D6C-43F7-997A-F2ED370E8D32";
shapes = (
{
closed = 1;
nodes = (
(521,0,ls),
(588,0,o),
(574,-72,o),
(574,-140,c),
(650,-140,l),
(650,35,o),
(629,68,o),
(529,68,c),
(529,500,l),
(439,500,l),
(439,70,l),
(180,70,l),
(180,500,l),
(90,500,l),
(90,0,l)
);
}
);
width = 686;
}
);
leftKerningGroup = i;
rightKerningGroup = l;
unicode = 1094;
},
{
glyphname = Decyr;
layers = (
{
layerId = "CCC13C4D-3D6C-43F7-997A-F2ED370E8D32";
shapes = (
{
closed = 1;
nodes = (
(315,620,l),
(602,620,l),
(602,80,l),
(252,80,l),
(330,154,o),
(337,201,o),
(337,682,c)
);
},
{
closed = 1;
nodes = (
(79,81,o),
(40,63,o),
(40,-140,c),
(120,-140,l),
(120,-47,o),
(117,0,o),
(176,0,cs),
(681,0,ls),
(752,0,o),
(744,-42,o),
(744,-140,c),
(824,-140,l),
(824,63,o),
(792,79,o),
(692,79,c),
(692,700,l),
(247,700,l),
(247,669,ls),
(247,199,o),
(233,154,o),
(168,81,c)
);
}
);
width = 864;
}
);
unicode = 1044;
},
{
glyphname = Elcyr;
layers = (
{
layerId = "CCC13C4D-3D6C-43F7-997A-F2ED370E8D32";
shapes = (
{
closed = 1;
nodes = (
(262,-20,o),
(290,105,o),
(290,620,c),
(573,620,l),
(573,0,l),
(663,0,l),
(663,700,l),
(200,700,l),
(200,197,o),
(189,60,o),
(129,60,cs),
(113,60,o),
(92,70,o),
(60,88,c),
(39,9,l),
(75,-14,o),
(95,-20,o),
(125,-20,cs)
);
}
);
width = 760;
}
);
rightKerningGroup = H;
unicode = 1051;
},
{
glyphname = elcyr;
layers = (
{
layerId = "CCC13C4D-3D6C-43F7-997A-F2ED370E8D32";
shapes = (
{
closed = 1;
nodes = (
(123,50,o),
(136,168,o),
(136,500,c),
(507,500,l),
(507,0,l),
(417,0,l),
(417,430,l),
(226,430,l),
(226,71,o),
(193,-20,o),
(61,-20,cs),
(51,-20,o),
(36,-18,o),
(21,-16,c),
(37,53,l),
(47,51,o),
(55,50,o),
(63,50,cs)
);
}
);
width = 600;
}
);
rightKerningGroup = a1;
unicode = 1083;
},
{
glyphname = Efcyr;
layers = (
{
layerId = "CCC13C4D-3D6C-43F7-997A-F2ED370E8D32";
shapes = (
{
closed = 1;
nodes = (
(373,-20,l),
(463,-20,l),
(463,60,l),
(640,60,o),
(773,172,o),
(773,354,cs),
(773,535,o),
(642,642,o),
(463,642,c),
(463,722,l),
(373,722,l),
(373,642,l),
(194,642,o),
(63,535,o),
(63,354,cs),
(63,172,o),
(196,60,o),
(373,60,c)
);
},
{
closed = 1;
nodes = (
(463,562,l),
(597,562,o),
(683,504,o),
(683,354,cs),
(683,208,o),
(602,140,o),
(463,140,c)
);
},
{
closed = 1;
nodes = (
(373,140,l),
(237,140,o),
(153,211,o),
(153,357,cs),
(153,501,o),
(234,562,o),
(373,562,c)
);
}
);
width = 836;
}
);
leftKerningGroup = C1;
rightKerningGroup = C;
unicode = 1060;
},
{
glyphname = Zecyr;
layers = (
{
anchors = (
{
name = bottom;
position = "{294, -20}";
},
{
name = top;
position = "{294, 719}";
}
);
layerId = "CCC13C4D-3D6C-43F7-997A-F2ED370E8D32";
shapes = (
{
closed = 1;
nodes = (
(415,458.243,o),
(356,400,o),
(241,399,c),
(241,329,l),
(365.7,339,o),
(447.5,283,o),
(447.5,189,cs),
(447.5,109,o),
(388.584,60,o),
(283.732,60,cs),
(199.85,60,o),
(137.937,91,o),
(93,160,c),
(35,102,l),
(107.072,20,o),
(186.15,-20,o),
(284.248,-20,cs),
(430.393,-20,o),
(537.5,69,o),
(537.5,197,cs),
(537.5,294,o),
(476.339,355,o),
(346,371,c),
(463,399,o),
(505,451,o),
(505,534,cs),
(505,648,o),
(425,720,o),
(286,720,cs),
(183,720,o),
(99,680,o),
(35,599,c),
(93,541,l),
(147,607.673,o),
(212,640,o),
(295,640,cs),
(377,640,o),
(415,607.866,o),
(415,541.59,cs)
);
}
);
width = 588;
}
);
rightKerningGroup = B1;
unicode = 1047;
},
{
glyphname = Ljecyr;
layers = (
{
layerId = "CCC13C4D-3D6C-43F7-997A-F2ED370E8D32";
shapes = (
{
closed = 1;
nodes = (
(262,-20,o),
(290,105,o),
(290,620,c),
(543,620,l),
(543,0,l),
(633,0,l),
(633,700,l),
(200,700,l),
(200,197,o),
(189,60,o),
(129,60,cs),
(113,60,o),
(92,70,o),
(60,88,c),
(39,9,l),
(75,-14,o),
(95,-20,o),
(125,-20,cs)
);
},
{
closed = 1;
nodes = (
(548,0,l),
(717,0,ls),
(896,0,o),
(955,78,o),
(955,189,cs),
(955,299,o),
(898,380,o),
(723,380,cs),
(557,380,l),
(552,300,l),
(716,300,ls),
(830,300,o),
(865,274,o),
(865,189,cs),
(865,106,o),
(832,80,o),
(690,80,cs),
(628,80,l)
);
}
);
width = 1014;
}
);
rightKerningGroup = Ljecyr;
unicode = 1033;
},
{
glyphname = becyr;
layers = (
{
layerId = "CCC13C4D-3D6C-43F7-997A-F2ED370E8D32";
shapes = (
{
closed = 1;
nodes = (
(507,661,l),
(476.377,634,o),
(412.211,610.499,o),
(332.833,602,cs),
(178.71,585.499,o),
(129,515,o),
(129,343,c),
(159,421,o),
(238.55,479,o),
(343.02,479,cs),
(469.533,479,o),
(551,394,o),
(551,233,cs),
(551,71,o),
(468.896,-20,o),
(314.347,-20,cs),
(148.206,-20,o),
(69,85,o),
(69,330,cs),
(69,548,o),
(131.547,646.187,o),
(325.062,672,cs),
(378.945,679.187,o),
(455.018,696,o),
(507,743,c)
);
},
{
closed = 1;
nodes = (
(410.842,50,o),
(461,123,o),
(461,237,cs),
(461,349,o),
(412.735,409,o),
(315.259,409,cs),
(216.836,409,o),
(161,349,o),
(161,235,cs),
(161,123,o),
(214.943,50,o),
(313.366,50,cs)
);
}
);
width = 620;
}
);
leftKerningGroup = germandbls1;
rightKerningGroup = germandbls;
unicode = 1073;
},
{
glyphname = decyr;
layers = (
{
anchors = (
{
name = bottom;
position = "{409, -20}";
},
{
name = top;
position = "{410, 520}";
}
);
layerId = "CCC13C4D-3D6C-43F7-997A-F2ED370E8D32";
shapes = (
{
closed = 1;
nodes = (
(130,-140,l),
(131,-107,o),
(117,0,o),
(176,0,cs),
(596,0,ls),
(667,0,o),
(648,-102,o),
(648,-140,c),
(725,-140,l),
(725,35,o),
(704,69,o),
(604,69,c),
(604,500,l),
(225,500,l),
(225,315.571,ls),
(225,179.254,o),
(213,101.072,o),
(188,70,c),
(88,70,o),
(54,39.147,o),
(54,-140,c)
);
},
{
closed = 1;
nodes = (
(222,70,l),
(293,94,o),
(315,192,o),
(315,430,c),
(514,430,l),
(514,70,l)
);
}
);
width = 780;
}
);
rightKerningGroup = l;
unicode = 1076;
},
{
glyphname = Tshecyr;
layers = (
{
layerId = "CCC13C4D-3D6C-43F7-997A-F2ED370E8D32";
shapes = (
{
closed = 1;
nodes = (
(41,700,l),
(41,620,l),
(199,620,l),
(199,0,l),
(289,0,l),
(289,620,l),
(542,620,l),
(542,700,l)
);
},
{
closed = 1;
nodes = (
(658,0,l),
(658,259,ls),
(658,405,o),
(582,475,o),
(474,475,cs),
(354,475,o),
(287,390,o),
(278,310,c),
(289,240,l),
(289,328,o),
(355,395,o),
(451,395,cs),
(527,395,o),
(568,354,o),
(568,257,cs),
(568,0,l)
);
}
);
width = 752;
}
);
leftKerningGroup = T;
unicode = 1035;
},
{
glyphname = Djecyr;
layers = (
{
layerId = "CCC13C4D-3D6C-43F7-997A-F2ED370E8D32";
shapes = (
{
closed = 1;
nodes = (
(469,-21,o),
(456,-12,o),
(413,2,c),
(435,74,l),
(459,64.625,o),
(493,59,o),
(512,59,cs,{name = dv02;}),
(573,59,o),
(611,116.828,o),
(611,222.515,cs),
(611,337.175,o),
(566,396,o),
(475,396,cs),
(368,396,o),
(305,313,o),
(305,221,cs),
(305,0,l),
(205,0,l),
(205,620,l),
(41,620,l),
(41,700,l),
(554,700,l),
(554,620,l),
(305,620,l),
(305,342,l),
(329,414,o),
(404,466,o),
(497,466,cs),
(618,466,o),
(701,379,o),
(701,223,cs),
(701,78,o),
(629,-21,o),
(506,-21,cs,{name = dv01;})
);
}
);
width = 770;
}
);
leftKerningGroup = T;
unicode = 1026;
},
{
glyphname = zecyr;
layers = (
{
anchors = (
{
name = top;
position = "{250, 520}";
},
{
name = bottom;
position = "{270, -20}";
}
);
layerId = "CCC13C4D-3D6C-43F7-997A-F2ED370E8D32";
shapes = (
{
closed = 1;
nodes = (
(147,-20,o),
(82,18,o),
(37,82,c),
(90,135,l),
(123,78.333,o),
(169,50,o),
(238,50,cs,{name = dv02;}),
(311,50,o),
(366,81.32,o),
(366,148,cs),
(366,214,o),
(311,245,o),
(185,237,c),
(185,296,l),
(301,302.039,o),
(339,324.335,o),
(339,379.06,cs),
(339,440.879,o),
(291,450,o),
(250,450,cs,{name = sv01;}),
(176,450,o),
(132,419.583,o),
(98,377,c),
(45,430,l),
(86,483,o),
(158,520,o),
(257,520,cs,{name = at01;}),
(387,520,o),
(428,456,o),
(428,390,cs),
(428,315.854,o),
(380.396,273,o),
(294,273,c),
(396.228,273,o),
(455,229.005,o),
(455,149,cs),
(455,57,o),
(380,-20,o),
(243,-20,cs,{name = dv01;})
);
}
);
width = 515;
}
);
leftKerningGroup = s1;
rightKerningGroup = s;
unicode = 1079;
},
{
glyphname = emcyr;
layers = (
{
layerId = "CCC13C4D-3D6C-43F7-997A-F2ED370E8D32";
shapes = (
{
closed = 1;
nodes = (
(180,0,l),
(180,333,l),
(309,110,l),
(380,110,l),
(509,333,l),
(509,0,l),
(599,0,l),
(599,500,l),
(517,500,l),
(344,200,l),
(171,500,l),
(90,500,l),
(90,0,l)
);
}
);
width = 689;
}
);
leftKerningGroup = i;
rightKerningGroup = a1;
unicode = 1084;
},
{
glyphname = softcyr;
layers = (
{
anchors = (
{
name = bottom;
position = "{268, -20}";
},
{
name = top;
position = "{268, 520}";
}
);
layerId = "CCC13C4D-3D6C-43F7-997A-F2ED370E8D32";
shapes = (
{
closed = 1;
nodes = (
(115,315,l),
(115,245,l),
(295,245,ls),
(359,245,o),
(386,211.81,o),
(386,157.5,cs),
(386,103.19,o),
(354,70,o),
(281,70,cs),
(180,70,l),
(180,500,l),
(90,500,l),
(90,0,l),
(300,0,ls),
(409,0,o),
(476,63,o),
(476,162,cs),
(476,258,o),
(407,315,o),
(292,315,cs)
);
}
);
width = 536;
}
);
leftKerningGroup = i;
rightKerningGroup = hardcyr;
unicode = 1100;
},
{
glyphname = hardcyr;
layers = (
{
layerId = "CCC13C4D-3D6C-43F7-997A-F2ED370E8D32";
shapes = (
{
closed = 1;
nodes = (
(21,500,l),
(21,430,l),
(179,430,l),
(212,497,l),
(212,500,l)
);
},
{
alignment = -1;
pos = (64,0);
ref = softcyr;
}
);
width = 600;
}
);
rightKerningGroup = hardcyr;
unicode = 1098;
},
{
glyphname = vecyr;
layers = (
{
anchors = (
{
name = top;
position = "{273, 520}";
},
{
name = bottom;
position = "{273, -20}";
}
);
layerId = "CCC13C4D-3D6C-43F7-997A-F2ED370E8D32";
shapes = (
{
closed = 1;
nodes = (
(90,0,l),
(295,0,ls),
(428,0,o),
(486,44,o),
(486,135,cs),
(486,218,o),
(438,260,o),
(334,265,c),
(422.727,283,o),
(456,314,o),
(456,383,cs),
(456,467,o),
(406.866,500,o),
(278.515,500,cs),
(90,500,l)
);
},
{
closed = 1;
nodes = (
(263.551,430,ls),
(329.198,430,o),
(366,409,o),
(366,360,cs),
(366,309,o),
(327.209,284,o),
(261.562,284,cs),
(180,284,l),
(180,430,l)
);
},
{
closed = 1;
nodes = (
(180,70,l),
(180,222,l),
(279.616,222,ls),
(357.534,222,o),
(396,202,o),
(396,149,cs),
(396,97,o),
(358.521,70,o),
(280.603,70,cs)
);
}
);
width = 546;
}
);
leftKerningGroup = i;
unicode = 1074;
},
{
glyphname = yacyr;
layers = (
{
anchors = (
{
name = bottom;
position = "{300, -20}";
},
{
name = top;
position = "{300, 520}";
}
);
layerId = "CCC13C4D-3D6C-43F7-997A-F2ED370E8D32";
shapes = (
{
closed = 1;
nodes = (
(480,0,l),
(480,500,l),
(271,500,ls),
(142,500,o),
(76,447,o),
(76,354,cs),
(76,288,o),
(109,239,o),
(167,206,c),
(67,0,l),
(167,0,l),
(249,182,l),
(390,182,l),
(390,0,l)
);
},
{
closed = 1;
nodes = (
(390,252,l),
(287,252,ls),
(204,252,o),
(166,282,o),
(166,344,cs),
(166,405,o),
(203,430,o),
(287,430,cs),
(390,430,l)
);
}
);
width = 570;
}
);
rightKerningGroup = a1;
unicode = 1103;
},
{
glyphname = Geupcyr;
layers = (
{
layerId = "CCC13C4D-3D6C-43F7-997A-F2ED370E8D32";
shapes = (
{
closed = 1;
nodes = (
(97,700,l),
(97,0,l),
(187,0,l),
(187,620,l),
(366,620,ls),
(481,620,o),
(517,678,o),
(517,814,c),
(433,814,l),
(433,730,o),
(416,700,o),
(369,700,cs)
);
}
);
width = 557;
}
);
leftKerningGroup = B;
rightKerningGroup = F;
unicode = 1168;
},
{
glyphname = geupcyr;
layers = (
{
layerId = "CCC13C4D-3D6C-43F7-997A-F2ED370E8D32";
shapes = (
{
closed = 1;
nodes = (
(326,430,ls),
(439,430,o),
(463,463,o),
(463,638,c),
(383,638,l),
(383,601,o),
(391,500,o),
(337,500,cs),
(90,500,l),
(90,0,l),
(180,0,l),
(180,430,l)
);
}
);
width = 510;
}
);
leftKerningGroup = i;
rightKerningGroup = r;
unicode = 1169;
},
{
glyphname = Dzhecyr;
layers = (
{
layerId = "CCC13C4D-3D6C-43F7-997A-F2ED370E8D32";
shapes = (
{
closed = 1;
nodes = (
(302,0,l),
(314,-38,o),
(315,-119,o),
(304,-158,c),
(385,-158,l),
(398,-105,o),
(397,-52,o),
(381,0,c),
(586,0,l),
(586,700,l),
(496,700,l),
(496,81,l),
(187,81,l),
(187,700,l),
(97,700,l),
(97,0,l)
);
}
);
width = 683;
}
);
leftKerningGroup = B;
rightKerningGroup = H;
unicode = 1039;
},
{
glyphname = dzhecyr;
layers = (
{
layerId = "CCC13C4D-3D6C-43F7-997A-F2ED370E8D32";
shapes = (
{
closed = 1;
nodes = (
(264,0,l),
(279,-42,o),
(277,-97,o),
(268,-141,c),
(347,-141,l),
(363,-88,o),
(359,-52,o),
(341,0,c),
(515,0,l),
(515,500,l),
(425,500,l),
(425,71,l),
(180,71,l),
(180,500,l),
(90,500,l),
(90,0,l)
);
}
);
width = 605;
}
);
leftKerningGroup = i;
rightKerningGroup = a1;
unicode = 1119;
},
{
glyphname = tau;
layers = (
{
anchors = (
{
name = topgr;
position = "{210, 520}";
}
);
layerId = "CCC13C4D-3D6C-43F7-997A-F2ED370E8D32";
shapes = (
{
closed = 1;
nodes = (
(42,500,l),
(42,430,l),
(372,430,l),
(372,500,l)
);
},
{
alignment = -1;
pos = (62,0);
ref = iota;
}
);
width = 421;
}
);
rightKerningGroup = l;
unicode = 964;
},
{
glyphname = gamma;
layers = (
{
anchors = (
{
name = topgr;
position = "{272, 520}";
}
);
layerId = "CCC13C4D-3D6C-43F7-997A-F2ED370E8D32";
shapes = (
{
closed = 1;
nodes = (
(226,-200,l),
(316,-200,l),
(316,60,l),
(313,-13,l),
(508,500,l),
(411,500,l),
(267,81,l),
(275,84,l),
(132,500,l),
(35,500,l),
(230,-13,l),
(226,60,l)
);
}
);
width = 543;
}
);
leftKerningGroup = v;
rightKerningGroup = v1;
unicode = 947;
},
{
glyphname = Sigma;
layers = (
{
layerId = "CCC13C4D-3D6C-43F7-997A-F2ED370E8D32";
shapes = (
{
closed = 1;
nodes = (
(504,0,l),
(504,80,l),
(177,80,l),
(388,350,l),
(177,620,l),
(504,620,l),
(504,700,l),
(41,700,l),
(41,652,l),
(277,350,l),
(41,48,l),
(41,0,l)
);
}
);
width = 570;
}
);
unicode = 931;
},
{
glyphname = Xi;
layers = (
{
layerId = "CCC13C4D-3D6C-43F7-997A-F2ED370E8D32";
shapes = (
{
closed = 1;
nodes = (
(75,620,l),
(528,620,l),
(528,700,l),
(75,700,l)
);
},
{
closed = 1;
nodes = (
(75,80,l),
(75,0,l),
(528,0,l),
(528,80,l)
);
},
{
closed = 1;
nodes = (
(473,311,l),
(473,387,l),
(131,387,l),
(131,311,l)
);
}
);
width = 593;
}
);
rightKerningGroup = E;
unicode = 926;
},
{
glyphname = iota;
layers = (
{
anchors = (
{
name = topgr;
position = "{137, 520}";
}
);
layerId = "CCC13C4D-3D6C-43F7-997A-F2ED370E8D32";
shapes = (
{
closed = 1;
nodes = (
(86,500,l),
(176,500,l),
(176,147,ls),
(176,85,o),
(195,70,o),
(250,70,c),
(250,0,l),
(219,0,ls),
(123,0,o),
(86,47,o),
(86,153,cs)
);
}
);
width = 310;
}
);
leftKerningGroup = i;
rightKerningGroup = l;
unicode = 953;
},
{
glyphname = Psi;
layers = (
{
anchors = (
{
name = topgr;
position = "{442, 720}";
}
);
layerId = "CCC13C4D-3D6C-43F7-997A-F2ED370E8D32";
shapes = (
{
closed = 1;
nodes = (
(396,0,l),
(486,0,l),
(486,700,l),
(396,700,l)
);
},
{
closed = 1;
nodes = (
(80,701,l),
(80,445,ls),
(80,281,o),
(215,182,o),
(441,182,cs),
(668,182,o),
(803,280,o),
(803,445,cs),
(803,701,l),
(713,701,l),
(713,436,ls),
(713,324,o),
(626,262,o),
(445,262,cs),
(262,262,o),
(170,326,o),
(170,436,cs),
(170,701,l)
);
}
);
width = 883;
}
);
unicode = 936;
},
{
glyphname = ae.ss02;
layers = (
{
layerId = "CCC13C4D-3D6C-43F7-997A-F2ED370E8D32";
shapes = (
{
closed = 1;
nodes = (
(197.79,520,o),
(129.38,483,o),
(90.44,430,c),
(140.79,377,l),
(175,423.63,o),
(226.29,450,o),
(280.44,450,cs,{name = sv01;}),
(339.34,450,o),
(380.19,419.93,o),
(380.19,363.8,cs),
(380.19,227.99,l,{name = sv03;}),
(354.99,274.63,o),
(299.56,312,o),
(229.14,312,cs),
(133.19,312,o),
(61,243,o),
(61,146,cs),
(61,49,o),
(133.19,-20,o),
(229.899,-20,cs),
(311.574,-20,o),
(383.846,29.214,o),
(409.85,104.35,c),
(449.03,21.98,o),
(525.03,-20,o),
(621.63,-20,cs,{name = dv01;}),
(712.83,-20,o),
(781.95,17,o),
(821.31,70,c),
(770.43,123,l),
(735.77,76.36,o),
(683.76,50,o),
(622.13,50,cs,{name = dv02;}),
(516.19,50,o),
(467.07,128.41,o),
(467.07,237,c,{name = sv04;}),
(844.35,237,l,{name = dv03;}),
(844.35,421,o),
(762.75,520,o),
(616.83,520,cs,{name = at01;}),
(543.6,520,o),
(482.79,494.95,o),
(441.22,446.26,c),
(413.95,490.61,o),
(363.17,520,o),
(285.19,520,cs,{name = at01;})
);
},
{
closed = 1;
nodes = (
(146.49,212,o),
(190.19,242,o),
(257.64,242,cs),
(316.29,242,o),
(361.36,219.37,o),
(380.19,176.86,c),
(380.13,95.95,o),
(328.85,50,o),
(256.69,50,cs),
(192.09,50,o),
(146.49,87,o),
(146.49,150,cs)
);
},
{
closed = 1;
nodes = (
(470.91,296,l,{name = sv02;}),
(480.51,398.32,o),
(537.35,450,o),
(616.35,450,cs,{name = sv01;}),
(695.35,450,o),
(745.44,398.32,o),
(755.07,296,c,{name = dv04;})
);
}
);
width = 904;
}
);
leftKerningGroup = a.ss02;
},
{
glyphname = upsilon;
layers = (
{
anchors = (
{
name = topgr;
position = "{283, 520}";
}
);
layerId = "CCC13C4D-3D6C-43F7-997A-F2ED370E8D32";
shapes = (
{
closed = 1;
nodes = (
(86,500,l),
(86,185,ls),
(86,54,o),
(169,-20,o),
(302,-20,cs),
(454,-20,o),
(539,76,o),
(539,257,cs),
(539,349,o),
(517,434,o),
(481,500,c),
(388,500,l),
(423,424,o),
(449,344,o),
(449,255,cs),
(449,124,o),
(392,50,o),
(297,50,cs),
(222,50,o),
(176,97,o),
(176,194,cs),
(176,500,l)
);
}
);
width = 608;
}
);
leftKerningGroup = i;
rightKerningGroup = b1;
unicode = 965;
},
{
glyphname = delta;
layers = (
{
anchors = (
{
name = topgr;
position = "{308, 721}";
}
);
layerId = "CCC13C4D-3D6C-43F7-997A-F2ED370E8D32";
shapes = (
{
closed = 1;
nodes = (
(457,117,o),
(410,50,o),
(305,50,cs),
(206,50,o),
(159,109,o),
(159,224,cs),
(159,340,o),
(207,397,o),
(301,397,cs),
(412,397,o),
(457,317,o),
(457,218,cs)
);
},
{
closed = 1;
nodes = (
(69,82,o),
(155,-20,o),
(309,-20,cs),
(458,-20,o),
(547,75,o),
(547,226,cs),
(547,376,o),
(459,467,o),
(309,467,cs),
(154,467,o),
(69,369,o),
(69,226,cs)
);
},
{
closed = 1;
nodes = (
(219,622.856,o),
(257,651,o),
(308,651,cs),
(356,651,o),
(401,626.613,o),
(440,588,c),
(493,641,l),
(449,685,o),
(387,721,o),
(306,721,cs),
(197,721,o),
(129,657,o),
(129,578,cs),
(129,497,o),
(199,447,o),
(309,438,c),
(391,456,l),
(248,489.17,o),
(219,522.34,o),
(219,569.582,cs)
);
}
);
width = 616;
}
);
leftKerningGroup = germandbls1;
rightKerningGroup = germandbls;
unicode = 948;
},
{
glyphname = sigmafinal;
layers = (
{
anchors = (
{
name = topgr;
position = "{295, 520}";
}
);
layerId = "CCC13C4D-3D6C-43F7-997A-F2ED370E8D32";
shapes = (
{
closed = 1;
nodes = (
(218,450,o),
(149,381.638,o),
(149,244.955,cs),
(149,128.372,o),
(200,50,o),
(333,50,cs),
(457,50,o),
(533,-13.745,o),
(533,-102.39,cs),
(533,-147.211,o),
(515.439,-183.068,o),
(499.727,-200,c),
(411,-200,l),
(436,-166,o),
(453,-143,o),
(453,-109,cs),
(453,-53,o),
(406.828,-20,o),
(311.406,-20,cs),
(140.057,-20,o),
(59,86,o),
(59,247,cs),
(59,418,o),
(149,520,o),
(304,520,cs,{name = at01;}),
(397,520,o),
(469,483,o),
(510,430,c),
(457,377,l),
(421,421.611,o),
(369,450,o),
(311,450,cs,{name = sv01;})
);
}
);
width = 590;
}
);
leftKerningGroup = a;
unicode = 962;
},
{
glyphname = theta;
layers = (
{
anchors = (
{
name = topgr;
position = "{322, 721}";
}
);
layerId = "CCC13C4D-3D6C-43F7-997A-F2ED370E8D32";
shapes = (
{
closed = 1;
nodes = (
(69.5,110,o),
(158.324,-20,o),
(323.996,-20,cs),
(487.672,-20,o),
(574.5,109,o),
(574.5,348,cs),
(574.5,586,o),
(484.678,720,o),
(323.996,720,cs),
(161.318,720,o),
(69.5,585,o),
(69.5,348,cs)
);
},
{
closed = 1;
nodes = (
(210.657,50,o),
(159.5,141,o),
(159.5,346,cs),
(159.5,560,o),
(206.645,650,o),
(324.006,650,cs),
(438.358,650,o),
(484.5,561,o),
(484.5,346,cs),
(484.5,135,o),
(439.361,50,o),
(324.006,50,cs)
);
},
{
closed = 1;
nodes = (
(156,320,l),
(488,320,l),
(488,379,l),
(156,379,l)
);
}
);
width = 644;
}
);
leftKerningGroup = germandbls1;
rightKerningGroup = germandbls;
unicode = 952;
},
{
glyphname = sigma;
layers = (
{
anchors = (
{
name = ogonek;
position = "{410, -3}";
},
{
name = bottom;
position = "{308, -20}";
},
{
name = topgr;
position = "{308, 520}";
}
);
layerId = "CCC13C4D-3D6C-43F7-997A-F2ED370E8D32";
shapes = (
{
closed = 1;
nodes = (
(69,75.333,o),
(153,-20,o),
(302,-20,cs,{name = dv01;}),
(464,-20,o),
(547,75.333,o),
(547,244.815,cs),
(547,404.667,o),
(464,500,o),
(303,500,cs,{name = at01;}),
(153,500,o),
(69,404.667,o),
(69,244.815,cs)
);
},
{
closed = 1;
nodes = (
(457,108.693,o),
(408,45,o),
(304,45,cs,{name = dv02;}),
(207,45,o),
(159,111.633,o),
(159,244.899,cs),
(159,374.246,o),
(206,435,o),
(306,435,cs,{name = sv01;}),
(407,435,o),
(457,370.327,o),
(457,242.94,cs)
);
},
{
closed = 1;
nodes = (
(301,500,l),
(360,430,l),
(601,430,l),
(601,500,l)
);
}
);
width = 648;
}
);
leftKerningGroup = a;
unicode = 963;
},
{
glyphname = chi;
layers = (
{
anchors = (
{
name = topgr;
position = "{323, 520}";
}
);
layerId = "CCC13C4D-3D6C-43F7-997A-F2ED370E8D32";
shapes = (
{
closed = 1;
nodes = (
(580,-149,l),
(451.852,-149,o),
(395.615,-70.545,o),
(351.521,169.747,cs),
(304.044,428.48,o),
(233.619,520,o),
(82,520,c),
(82,450,l),
(187.939,450,o),
(235.272,378.921,o),
(276.47,157.969,cs),
(328.408,-120.583,o),
(407.652,-219,o),
(580,-219,c)
);
},
{
closed = 1;
nodes = (
(68,-200,l,{name = ab01;}),
(172,-200,l),
(576,500,l,{name = at01;}),
(472,500,l)
);
}
);
width = 646;
}
);
unicode = 967;
},
{
glyphname = lambda;
layers = (
{
anchors = (
{
name = topgr;
position = "{300, 721}";
}
);
layerId = "CCC13C4D-3D6C-43F7-997A-F2ED370E8D32";
shapes = (
{
closed = 1;
nodes = (
(279,359,l),
(250,534,l),
(45,0,l),
(141,0,l)
);
},
{
closed = 1;
nodes = (
(499,-20,o),
(522,-16,o),
(565,2,c),
(549,68,l),
(529,59,o),
(504,53,o),
(487,53,cs,{name = dv02;}),
(464,53,o),
(439.674,62.904,o),
(419,145.867,cs),
(312,575.251,ls),
(274.166,727.074,o),
(231,750,o),
(162,750,cs,{name = dv02;}),
(130,750,o),
(105,745.217,o),
(53,728,c),
(68,668,l),
(92,676,o),
(128,680,o),
(141,680,cs,{name = dv01;}),
(197,680,o),
(211,607,o),
(232,524,cs),
(310,210,ls),
(359,12,o),
(405,-20,o),
(474,-20,cs,{name = dv01;})
);
}
);
width = 600;
}
);
unicode = 955;
},
{
glyphname = zeta;
layers = (
{
anchors = (
{
name = topgr;
position = "{280, 721}";
}
);
layerId = "CCC13C4D-3D6C-43F7-997A-F2ED370E8D32";
shapes = (
{
closed = 1;
nodes = (
(422,50,o),
(491,-13.745,o),
(491,-102.39,cs),
(491,-147.211,o),
(473.439,-183.068,o),
(457.727,-200,c),
(369,-200,l),
(394,-166,o),
(411,-143,o),
(411,-109,cs),
(411,-53,o),
(368.707,-20,o),
(292.372,-20,cs),
(165.492,-20,o),
(84,72,o),
(84,227,cs),
(84,371,o),
(162,497,o),
(359,630,c),
(69,630,l),
(69,700,l),
(472,700,l),
(472,636.903,l),
(238,480.663,o),
(174,383.513,o),
(174,240.293,cs),
(174,120.108,o),
(219,50,o),
(322,50,cs)
);
}
);
width = 560;
}
);
leftKerningGroup = germandbls1;
rightKerningGroup = germandbls;
unicode = 950;
},
{
glyphname = xi;
layers = (
{
layerId = "CCC13C4D-3D6C-43F7-997A-F2ED370E8D32";
shapes = (
{
closed = 1;
nodes = (
(92,630,l),
(415,630,l),
(415,700,l),
(92,700,l)
);
},
{
closed = 1;
nodes = (
(356.653,-20,o),
(403,-53,o),
(403,-109,cs),
(403,-143,o),
(386,-166,o),
(361,-200,c),
(449.727,-200,l),
(465.439,-183.068,o),
(483,-147.211,o),
(483,-102.39,cs),
(483,-13.745,o),
(407,50,o),
(284,50,cs),
(192,50,o),
(149,82.308,o),
(149,150.417,cs),
(149,246.467,o),
(232,291,o),
(413,291,c),
(413,353,l),
(260,353,o),
(185,394,o),
(185,477,cs),
(185,558,o),
(257,606,o),
(414,630,c),
(406.998,640.024,o),
(380.989,657.08,o),
(346,652,cs),
(193,629.788,o),
(95,553.055,o),
(95,462.187,cs),
(95,388.482,o),
(158,338,o),
(268,324,c),
(139,319,o),
(59,249.048,o),
(59,141.429,cs),
(59,38.294,o),
(132.126,-20,o),
(261.898,-20,cs)
);
}
);
width = 529;
}
);
leftKerningGroup = germandbls1;
rightKerningGroup = germandbls;
unicode = 958;
},
{
glyphname = f_f;
layers = (
{
layerId = "CCC13C4D-3D6C-43F7-997A-F2ED370E8D32";
shapes = (
{
closed = 1;
nodes = (
(139,430,l,{name = dv03;}),
(139,0,l,{name = ab01;}),
(229,0,l),
(229,430,l,{name = sv01;}),
(370,430,l),
(370,500,l,{name = sv02;}),
(229,500,l),
(229,609,ls),
(229,670,o),
(248,680,o),
(280,680,cs,{name = dv01;}),
(301,680,o),
(337,676,o),
(361,668,c),
(376,728,l),
(324,745.217,o),
(299,750,o),
(271,750,cs,{name = dv02;}),
(188,750,o),
(139,708.167,o),
(139,607.57,cs),
(139,500,l,{name = dv04;}),
(32,500,l),
(32,430,l)
);
},
{
closed = 1;
nodes = (
(516,430,l,{name = dv03;}),
(516,0,l,{name = ab01;}),
(606,0,l),
(606,430,l,{name = sv01;}),
(747,430,l),
(747,500,l,{name = sv02;}),
(606,500,l),
(606,609,ls),
(606,670,o),
(625,680,o),
(657,680,cs,{name = dv01;}),
(678,680,o),
(714,676,o),
(738,668,c),
(753,728,l),
(701,745.217,o),
(676,750,o),
(648,750,cs,{name = dv02;}),
(565,750,o),
(516,708.167,o),
(516,607.57,cs),
(516,500,l,{name = dv04;}),
(350.332,500,l),
(350.332,430,l)
);
}
);
width = 800;
}
);
leftKerningGroup = f;
rightKerningGroup = f1;
unicode = 64256;
},
{
glyphname = dieresistonos;
layers = (
{
anchors = (
{
name = topgr;
position = "{166, 688}";
},
{
name = _topgr;
position = "{166, 500}";
}
);
layerId = "CCC13C4D-3D6C-43F7-997A-F2ED370E8D32";
shapes = (
{
closed = 1;
nodes = (
(159,713,l),
(128,550,l),
(174,550,l),
(225,713,l)
);
},
{
closed = 1;
nodes = (
(307.482,564.307,o),
(321.598,585.009,o),
(321.598,606.653,cs),
(321.598,629.238,o),
(307.482,649,o),
(279.251,649,cs),
(251.961,649,o),
(236.904,626.415,o),
(236.904,606.653,cs),
(236.904,587.833,o),
(251.961,564.307,o),
(279.251,564.307,cs)
);
},
{
closed = 1;
nodes = (
(83.98,564.307,o),
(98.096,585.009,o),
(98.096,606.653,cs),
(98.096,629.238,o),
(83.98,649,o),
(55.749,649,cs),
(28.459,649,o),
(13.402,626.415,o),
(13.402,606.653,cs),
(13.402,587.833,o),
(28.459,564.307,o),
(55.749,564.307,cs)
);
}
);
width = 333;
}
);
unicode = 901;
},
{
glyphname = anoteleia;
layers = (
{
layerId = "CCC13C4D-3D6C-43F7-997A-F2ED370E8D32";
shapes = (
{
closed = 1;
nodes = (
(74,387,o),
(97,361,o),
(131,361,cs),
(164,361,o),
(188,387,o),
(188,419,cs),
(188,451,o),
(164,475,o),
(131,475,cs),
(97,475,o),
(74,451,o),
(74,419,cs)
);
}
);
width = 262;
}
);
unicode = 903;
},
{
glyphname = caron.salt;
layers = (
{
anchors = (
{
name = _topright;
position = "{0, 700}";
}
);
layerId = "CCC13C4D-3D6C-43F7-997A-F2ED370E8D32";
shapes = (
{
closed = 1;
nodes = (
(0,540,l),
(50,540,l),
(105,700,l),
(35,700,l)
);
}
);
width = 135;
}
);
},
{
glyphname = dotlessi;
layers = (
{
anchors = (
{
name = top;
position = "{136, 520}";
},
{
name = bottom;
position = "{136, -20}";
},
{
name = ogonek;
position = "{178, -3}";
}
);
layerId = "CCC13C4D-3D6C-43F7-997A-F2ED370E8D32";
shapes = (
{
closed = 1;
nodes = (
(181,0,l),
(181,500,l),
(91,500,l),
(91,0,l)
);
}
);
width = 272;
}
);
leftKerningGroup = i;
unicode = 305;
},
{
glyphname = trademark;
layers = (
{
layerId = "CCC13C4D-3D6C-43F7-997A-F2ED370E8D32";
shapes = (
{
closed = 1;
nodes = (
(41,700,l),
(41,633,l),
(195,633,l),
(195,248,l),
(276,248,l),
(276,633,l),
(430,633,l),
(430,700,l)
);
},
{
closed = 1;
nodes = (
(561,518,l),
(681,248,l),
(746,248,l),
(866,518,l),
(866,248,l),
(947,248,l),
(947,700,l),
(875,700,l),
(713,336,l),
(551,700,l),
(480,700,l),
(480,248,l),
(561,248,l)
);
}
);
width = 1016;
}
);
unicode = 8482;
},
{
glyphname = M.ss01;
layers = (
{
anchors = (
{
name = top;
position = "{435, 719}";
},
{
name = bottom;
position = "{435, -20}";
}
);
layerId = "CCC13C4D-3D6C-43F7-997A-F2ED370E8D32";
shapes = (
{
closed = 1;
nodes = (
(435,266,l,{name = iv01;}),
(184,700,l,{name = at01;}),
(97,700,l),
(97,0,l,{name = ab01;}),
(187,0,l),
(187,533,l,{name = iv02;}),
(392,178,l),
(478,178,l),
(683,533,l,{name = iv03;}),
(683,0,l,{name = ab02;}),
(773,0,l),
(773,700,l,{name = at02;}),
(686,700,l)
);
}
);
width = 870;
}
);
leftKerningGroup = B;
rightKerningGroup = H;
},
{
glyphname = a.ss02;
layers = (
{
anchors = (
{
name = top;
position = "{287, 520}";
},
{
name = bottom;
position = "{280, -20}";
},
{
name = ogonek;
position = "{483, -3}";
}
);
layerId = "CCC13C4D-3D6C-43F7-997A-F2ED370E8D32";
shapes = (
{
closed = 1;
nodes = (
(150,212,o),
(196,242,o),
(267,242,cs),
(347,242,o),
(403,204,o),
(406,134,c),
(411,183,l),
(404,248,o),
(334,312,o),
(237,312,cs),
(136,312,o),
(60,243,o),
(60,146,cs),
(60,49,o),
(136,-20,o),
(235,-20,cs),
(333,-20,o),
(399,48,o),
(411,120,c),
(396,177,l),
(396,96,o),
(342,50,o),
(266,50,cs),
(198,50,o),
(150,87,o),
(150,150,cs)
);
},
{
closed = 1;
nodes = (
(204,520,o),
(132,483,o),
(91,430,c),
(144,377,l),
(180,423.639,o),
(234,450,o),
(291,450,cs,{name = sv01;}),
(353,450,o),
(396,419.933,o),
(396,363.808,cs),
(396,0,l),
(486,0,l),
(486,352,ls),
(486,444,o),
(428,520,o),
(296,520,cs,{name = at01;})
);
}
);
width = 580;
}
);
leftKerningGroup = a.ss02;
rightKerningGroup = a.ss021;
},
{
glyphname = u.ss05;
layers = (
{
anchors = (
{
name = bottom;
position = "{300, -20}";
},
{
name = top;
position = "{300, 520}";
},
{
name = ogonek;
position = "{504, -3}";
}
);
layerId = "CCC13C4D-3D6C-43F7-997A-F2ED370E8D32";
shapes = (
{
closed = 1;
nodes = (
(429,203,l),
(417,263,l),
(417,125.293,o),
(367,50,o),
(279,50,cs),
(210,50,o),
(176,96.792,o),
(176,184.403,cs),
(176,500,l),
(86,500,l),
(86,196,ls),
(86,51,o),
(146,-20,o),
(255,-20,cs),
(349,-20,o),
(402,32,o),
(429,130,c)
);
},
{
closed = 1;
nodes = (
(507,500,l),
(417,500,l),
(417,0,l),
(507,0,l)
);
}
);
width = 600;
}
);
leftKerningGroup = u;
rightKerningGroup = a1;
},
{
glyphname = Q.ss06;
layers = (
{
anchors = (
{
name = top;
position = "{398, 719}";
},
{
name = bottom;
position = "{398, -20}";
},
{
name = ogonek;
position = "{524, -1}";
}
);
layerId = "CCC13C4D-3D6C-43F7-997A-F2ED370E8D32";
shapes = (
{
closed = 1;
nodes = (
(283.32,81,l),
(308.144,134.078,o),
(347.495,165.671,o),
(383.595,165.671,cs),
(432.369,165.671,o),
(449.452,117.025,o),
(469.518,59.882,cs),
(498.079,-21.452,o),
(532.685,-120,o),
(673.32,-120,c),
(673.32,-40,l),
(606.744,-40,o),
(587.947,13.147,o),
(568.131,69.177,cs),
(546.041,131.633,o),
(522.685,197.671,o),
(430.472,197.671,cs),
(348.759,197.671,o),
(304.081,140.743,o),
(276.32,85,c)
);
},
{
alignment = -1;
ref = O;
}
);
width = 795;
}
);
leftKerningGroup = C1;
rightKerningGroup = C;
},
{
glyphname = J.ss07;
layers = (
{
anchors = (
{
name = top;
position = "{272, 719}";
},
{
name = bottom;
position = "{172, -71}";
}
);
layerId = "CCC13C4D-3D6C-43F7-997A-F2ED370E8D32";
shapes = (
{
closed = 1;
nodes = (
(20,-134,l),
(234,-134,o),
(311,-57,o),
(311,155,cs),
(311,700,l),
(221,700,l),
(221,112,ls),
(221,-16,o),
(165,-54,o),
(20,-54,c)
);
}
);
width = 400;
}
);
leftKerningGroup = J;
rightKerningGroup = J1;
},
{
glyphname = R.ss08;
layers = (
{
anchors = (
{
name = top;
position = "{323, 719}";
},
{
name = bottom;
position = "{323, -20}";
}
);
layerId = "CCC13C4D-3D6C-43F7-997A-F2ED370E8D32";
shapes = (
{
closed = 1;
nodes = (
(178,0,l),
(178,254,l),
(310,254,l),
(461,254,o),
(556,341,o),
(556,479,cs),
(556,611,o),
(465,700,o),
(330,700,cs),
(88,700,l),
(88,0,l)
);
},
{
closed = 1;
nodes = (
(178,334,l),
(178,620,l),
(300,620,ls),
(412,620,o),
(465,579,o),
(465,480,cs),
(465,381,o),
(415,334,o),
(300,334,cs)
);
},
{
closed = 1;
nodes = (
(318,254,l),
(393,254,o),
(433,239,o),
(454,190,cs),
(471,150,o),
(454,60,o),
(469,0,c),
(560,0,l),
(540,56,o),
(560,171,o),
(535,222,cs),
(510,273,o),
(468,279,o),
(372,305,c)
);
}
);
width = 645;
}
);
leftKerningGroup = B;
rightKerningGroup = R;
},
{
glyphname = C.ss09;
layers = (
{
anchors = (
{
name = bottom;
position = "{407, -19}";
},
{
name = top;
position = "{387, 719}";
}
);
layerId = "CCC13C4D-3D6C-43F7-997A-F2ED370E8D32";
shapes = (
{
closed = 1;
nodes = (
(63,135,o),
(202,-20,o),
(400,-20,cs),
(560,-20,o),
(677,79,o),
(710,261,c),
(620,261,l),
(604,140,o),
(513,60,o),
(397,60,cs),
(253,60,o),
(153,181,o),
(153,354,cs),
(153,524,o),
(249,640,o),
(390,640,cs),
(489,640,o),
(577,584,o),
(610,485,c),
(700,485,l),
(654,637,o),
(551,720,o),
(400,720,cs),
(200,720,o),
(63,572,o),
(63,355,cs)
);
}
);
width = 773;
}
);
leftKerningGroup = C1;
rightKerningGroup = C;
},
{
glyphname = c.ss09;
layers = (
{
anchors = (
{
name = top;
position = "{306, 520}";
},
{
name = bottom;
position = "{336, -20}";
}
);
layerId = "CCC13C4D-3D6C-43F7-997A-F2ED370E8D32";
shapes = (
{
closed = 1;
nodes = (
(446,-20,o),
(530,47,o),
(540,167,c),
(450,167,l),
(447,98.414,o),
(396,50,o),
(324,50,cs),
(218,50,o),
(159,122.362,o),
(159,246.985,cs),
(159,373.618,o),
(213,450,o),
(317,450,cs),
(389,450,o),
(444,401.593,o),
(452,331,c),
(542,331,l),
(524,457,o),
(439,520,o),
(316,520,cs),
(161,520,o),
(69,417,o),
(69,255,cs),
(69,85,o),
(165,-20,o),
(321,-20,cs)
);
}
);
width = 611;
}
);
leftKerningGroup = a;
rightKerningGroup = b1;
},
{
glyphname = C.ss10;
layers = (
{
anchors = (
{
name = bottom;
position = "{407, -19}";
},
{
name = top;
position = "{387, 719}";
}
);
layerId = "CCC13C4D-3D6C-43F7-997A-F2ED370E8D32";
shapes = (
{
closed = 1;
nodes = (
(509,-20,o),
(602,19,o),
(672,97,c),
(636,201,l),
(577,105.321,o),
(501,60,o),
(412,60,cs),
(256,60,o),
(153,184.429,o),
(153,353.01,cs),
(153,520.588,o),
(245,640,o),
(401,640,cs),
(490,640,o),
(570,593.671,o),
(627,499,c),
(663,603,l),
(595,680,o),
(505,720,o),
(399,720,cs),
(196,720,o),
(63,573,o),
(63,357,cs),
(63,137,o),
(200,-20,o),
(406,-20,cs)
);
}
);
width = 735;
}
);
leftKerningGroup = C1;
rightKerningGroup = C;
},
{
glyphname = c.ss10;
layers = (
{
anchors = (
{
name = top;
position = "{316, 520}";
},
{
name = bottom;
position = "{316, -20}";
}
);
layerId = "CCC13C4D-3D6C-43F7-997A-F2ED370E8D32";
shapes = (
{
closed = 1;
nodes = (
(401,-20,o),
(473,12,o),
(516,65,c),
(489,150,l),
(448,85,o),
(388,50,o),
(313,50,cs),
(215,50,o),
(159,134,o),
(159,256,cs),
(159,375,o),
(221,450,o),
(319,450,cs),
(387,450,o),
(455,410,o),
(489,350,c),
(516,435,l),
(473,488,o),
(401,520,o),
(309,520,cs),
(161,520,o),
(69,412,o),
(69,255,cs),
(69,91,o),
(160,-20,o),
(309,-20,cs)
);
}
);
width = 585;
}
);
leftKerningGroup = a;
rightKerningGroup = b1;
},
{
glyphname = S.ss09;
layers = (
{
anchors = (
{
name = top;
position = "{280, 719}";
},
{
name = bottom;
position = "{295, -20}";
}
);
layerId = "CCC13C4D-3D6C-43F7-997A-F2ED370E8D32";
shapes = (
{
closed = 1;
nodes = (
(518,502,l),
(495,633,o),
(420,720,o),
(279,720,cs),
(143,720,o),
(63,637.876,o),
(63,521.7,cs),
(63,372.708,o),
(173.622,343.004,o),
(275.179,315.734,cs),
(361.352,292.595,o),
(441,271.209,o),
(441,180.183,cs),
(441,98.059,o),
(391,59,o),
(302,59,cs),
(205,59,o),
(152,105.336,o),
(138,197,c),
(48,197,l),
(72,66,o),
(151,-21,o),
(300,-21,cs),
(441,-21,o),
(531,56.117,o),
(531,181.306,cs),
(531,330.82,o),
(419.602,361.389,o),
(317.755,389.337,cs),
(231.991,412.872,o),
(153,434.548,o),
(153,523.824,cs),
(153,603.945,o),
(197,640,o),
(281,640,cs),
(366,640,o),
(414,595.679,o),
(428,502,c)
);
}
);
width = 590;
}
);
leftKerningGroup = S1;
rightKerningGroup = S;
},
{
glyphname = s.ss09;
layers = (
{
anchors = (
{
name = bottom;
position = "{255, -20}";
},
{
name = top;
position = "{245, 520}";
}
);
layerId = "CCC13C4D-3D6C-43F7-997A-F2ED370E8D32";
shapes = (
{
closed = 1;
nodes = (
(56,150,l),
(68,40.355,o),
(140,-20,o),
(258,-20,cs),
(376,-20,o),
(442,40,o),
(442,129,cs),
(442,221,o),
(371,275,o),
(256,290,cs),
(177,301,o),
(145,326.169,o),
(145,373.486,cs),
(145,425.838,o),
(184,450,o),
(240,450,cs),
(308,450,o),
(347,412.626,o),
(350,350,c),
(440,350,l),
(428,459.645,o),
(355,520,o),
(237,520,cs),
(119,520,o),
(56,460,o),
(56,369,cs),
(56,280,o),
(116,235,o),
(223,220,cs),
(318,207,o),
(351,173.788,o),
(351,126.487,cs),
(351,74.154,o),
(312,50,o),
(255,50,cs),
(188,50,o),
(152,84.337,o),
(146,150,c)
);
}
);
width = 510;
}
);
leftKerningGroup = s1;
rightKerningGroup = s;
},
{
glyphname = s.ss10;
layers = (
{
anchors = (
{
name = top;
position = "{249, 520}";
},
{
name = bottom;
position = "{265, -20}";
}
);
layerId = "CCC13C4D-3D6C-43F7-997A-F2ED370E8D32";
shapes = (
{
closed = 1;
nodes = (
(331,520,o),
(403,488,o),
(446,435,c),
(419,350,l),
(385,410,o),
(317,450,o),
(245,450,cs),
(186,450,o),
(154,423,o),
(154,379.67,cs),
(154,318.473,o),
(217.832,297.845,o),
(286.608,275.62,cs),
(366.932,249.663,o),
(454,221.526,o),
(454,124.036,cs),
(454,36,o),
(383,-20,o),
(264,-20,cs),
(174,-20,o),
(99,12,o),
(56,65,c),
(83,150,l),
(131,75,o),
(202,50,o),
(274,50,cs),
(333,50,o),
(364,83,o),
(364,122.165,cs),
(364,177.119,o),
(302.965,195.893,o),
(235.955,216.504,cs),
(154.402,241.589,o),
(64,269.396,o),
(64,368.456,cs),
(64,455,o),
(133,520,o),
(245,520,cs)
);
}
);
width = 522;
}
);
leftKerningGroup = s1;
rightKerningGroup = s;
},
{
glyphname = S.ss10;
layers = (
{
anchors = (
{
name = top;
position = "{275, 719}";
},
{
name = bottom;
position = "{290, -20}";
}
);
layerId = "CCC13C4D-3D6C-43F7-997A-F2ED370E8D32";
shapes = (
{
closed = 1;
nodes = (
(57,375.536,o),
(164.779,344.377,o),
(264.62,315.513,cs),
(350.765,290.609,o),
(431,267.413,o),
(431,174.173,cs),
(431,102.064,o),
(385.87,60,o),
(299.621,60,cs),
(227.413,60,o),
(151.194,89.207,o),
(84,201,c),
(48,97,l),
(113.138,23,o),
(198.318,-20,o),
(300.534,-20,cs),
(441.833,-20,o),
(521,54.108,o),
(521,177.294,cs),
(521,316.193,o),
(415.398,354.916,o),
(316.423,384.649,cs),
(229.135,410.87,o),
(147,425.544,o),
(147,520.819,cs),
(147,592.929,o),
(192,640,o),
(276,640,cs),
(341,640,o),
(409,611.8,o),
(474,499,c),
(510,603,l),
(446,677,o),
(367,720,o),
(271,720,cs),
(133,720,o),
(57,631.866,o),
(57,520.698,cs)
);
}
);
width = 580;
}
);
leftKerningGroup = S1;
rightKerningGroup = S;
},
{
glyphname = G.ss10;
layers = (
{
anchors = (
{
name = bottom;
position = "{394, -19}";
},
{
name = top;
position = "{394, 719}";
}
);
layerId = "CCC13C4D-3D6C-43F7-997A-F2ED370E8D32";
shapes = (
{
closed = 1;
nodes = (
(687,0,l),
(707,0,l),
(707,348,l),
(363,348,l),
(363,272,l),
(619,272,l)
);
},
{
closed = 1;
nodes = (
(191,720,o),
(63,565,o),
(63,356,cs),
(63,130.4,o),
(191,-20,o),
(383,-20,cs),
(532,-20,o),
(620,90,o),
(641,229,c),
(639,315,l),
(619,344,l),
(619,339.986,o),
(620,326.94,o),
(620,311.887,cs),
(620,169.385,o),
(527,60,o),
(394,60,cs),
(249.4,60,o),
(153,177.606,o),
(153,354.014,cs),
(153,528.616,o),
(244,640,o),
(401,640,cs),
(473,640,o),
(573,618.85,o),
(644,499,c),
(680,603,l),
(612,680,o),
(511,720,o),
(396,720,cs)
);
}
);
width = 770;
}
);
leftKerningGroup = C1;
rightKerningGroup = G;
},
{
glyphname = G.ss09;
layers = (
{
anchors = (
{
name = bottom;
position = "{390, -19}";
},
{
name = top;
position = "{390, 719}";
}
);
layerId = "CCC13C4D-3D6C-43F7-997A-F2ED370E8D32";
shapes = (
{
closed = 1;
nodes = (
(633,252,l,{name = dv08;}),
(611,271,l,{name = dv07;}),
(325,271,l,{name = dv05;}),
(325,351,l,{name = dv06;}),
(717,351,l,{name = iv02;}),
(717,0,l,{name = dv14;}),
(696,0,l,{name = dv15;})
);
},
{
closed = 1;
nodes = (
(253,640,o),
(153,527.807,o),
(153,349.499,cs,{name = dv12;}),
(153,164.18,o),
(254,60,o),
(387,60,cs,{name = dv02;}),
(535,60,o),
(613,189.49,o),
(617,324,c,{name = iv01;}),
(639,295,l,{name = dv09;}),
(641,243,l,{name = dv10;}),
(622,82,o),
(522,-20,o),
(378,-20,cs,{name = dv01;}),
(189,-20,o),
(63,128.4,o),
(63,351,cs,{name = dv11;}),
(63,569,o),
(197,720,o),
(401,720,cs,{name = dv04;}),
(549,720,o),
(653,640,o),
(700,485,c),
(610,485,l),
(580,584,o),
(495,640,o),
(392,640,cs,{name = dv03;})
);
}
);
width = 780;
}
);
leftKerningGroup = C1;
rightKerningGroup = G;
},
{
glyphname = G.ss13;
layers = (
{
anchors = (
{
name = bottom;
position = "{392, -19}";
},
{
name = top;
position = "{392, 719}";
}
);
layerId = "CCC13C4D-3D6C-43F7-997A-F2ED370E8D32";
shapes = (
{
closed = 1;
nodes = (
(197,720,o),
(63,576,o),
(63,352,cs),
(63,130,o),
(195,-20,o),
(397,-20,cs),
(590,-20,o),
(720,117,o),
(720,321,cs),
(720,360,l),
(390,360,l),
(390,280,l),
(630,280,l),
(630,152.42,o),
(533,60,o),
(396,60,cs),
(245,60,o),
(153,171.384,o),
(153,348.997,cs),
(153,531.626,o),
(249,640,o),
(397,640,cs),
(503,640,o),
(581,583.636,o),
(610,485,c),
(700,485,l),
(653,640,o),
(546,720,o),
(397,720,cs)
);
}
);
width = 783;
}
);
leftKerningGroup = C1;
rightKerningGroup = C;
},
{
glyphname = G.ss14;
layers = (
{
anchors = (
{
name = bottom;
position = "{387, -19}";
},
{
name = top;
position = "{387, 719}";
}
);
layerId = "CCC13C4D-3D6C-43F7-997A-F2ED370E8D32";
shapes = (
{
closed = 1;
nodes = (
(194.781,720,o),
(63,576,o),
(63,358,cs),
(63,130,o),
(191.776,-20,o),
(388.433,-20,cs),
(532.183,-20,o),
(637,102,o),
(637,321,cs),
(637,360,l),
(384,360,l),
(384,280,l),
(616,280,l),
(616,152.42,o),
(521.205,60,o),
(401.463,60,cs),
(250.789,60,o),
(153,171.384,o),
(153,355.017,cs),
(153,531.626,o),
(245.805,640,o),
(392.497,640,cs),
(477.319,640,o),
(557.151,618.85,o),
(629,499,c),
(665,603,l),
(597.113,680,o),
(507.262,720,o),
(392.453,720,cs)
);
},
{
closed = 1;
nodes = (
(616,0,l),
(696,0,l),
(696,360,l),
(616,360,l)
);
}
);
width = 775;
}
);
leftKerningGroup = C1;
rightKerningGroup = G;
},
{
glyphname = J.ss09;
layers = (
{
anchors = (
{
name = bottom;
position = "{277, -20}";
},
{
name = top;
position = "{456, 719}";
}
);
layerId = "CCC13C4D-3D6C-43F7-997A-F2ED370E8D32";
shapes = (
{
closed = 1;
nodes = (
(50,195,l),
(70,52,o),
(138,-20,o),
(271,-20,cs),
(423,-20,o),
(495,75,o),
(495,252,cs),
(495,700,l),
(405,700,l),
(405,239.28,ls),
(405,115.086,o),
(355,60,o),
(269,60,cs),
(193,60,o),
(147,102.313,o),
(140,195,c)
);
}
);
width = 584;
}
);
leftKerningGroup = J;
rightKerningGroup = J1;
},
{
glyphname = J.ss10;
layers = (
{
anchors = (
{
name = top;
position = "{446, 719}";
},
{
name = bottom;
position = "{267, -20}";
}
);
layerId = "CCC13C4D-3D6C-43F7-997A-F2ED370E8D32";
shapes = (
{
closed = 1;
nodes = (
(489,700,l),
(399,700,l),
(399,239.28,ls),
(399,107.074,o),
(347,60,o),
(271,60,cs),
(199.029,60,o),
(121.832,115.084,o),
(79,197,c),
(42,93,l),
(108,16,o),
(190,-20,o),
(268,-20,cs),
(410,-20,o),
(489,67,o),
(489,242,cs)
);
}
);
width = 578;
}
);
leftKerningGroup = J;
rightKerningGroup = J1;
},
{
glyphname = a.ss10;
layers = (
{
anchors = (
{
name = top;
position = "{284, 520}";
},
{
name = bottom;
position = "{284, -20}";
},
{
name = ogonek;
position = "{480, -3}";
}
);
layerId = "CCC13C4D-3D6C-43F7-997A-F2ED370E8D32";
shapes = (
{
closed = 1;
nodes = (
(186,520,o),
(114,488,o),
(71,435,c),
(98,350,l),
(132,410,o),
(200,450,o),
(277,450,cs),
(358,450,o),
(392,405,o),
(392,361,cs),
(392,313,o),
(353,281,o),
(255,281,cs),
(134,281,o),
(55,232,o),
(55,135,cs),
(55,38,o),
(134,-20,o),
(222,-20,cs),
(336,-20,o),
(402,79,o),
(405,138,c),
(393,166,l),
(393,109,o),
(333,50,o),
(245,50,cs),
(192,50,o),
(145,71,o),
(145,133,cs),
(145,185,o),
(179,222,o),
(267,222,cs),
(331,222,o),
(372,242,o),
(393,273,c),
(393,90,l),
(483,-10,l),
(483,352,ls),
(483,456,o),
(410,520,o),
(279,520,cs)
);
}
);
width = 568;
}
);
leftKerningGroup = a.ss02;
rightKerningGroup = a.ss021;
},
{
glyphname = a.ss09;
layers = (
{
anchors = (
{
name = top;
position = "{290, 520}";
},
{
name = ogonek;
position = "{473, -3}";
},
{
name = bottom;
position = "{285, -20}";
}
);
layerId = "CCC13C4D-3D6C-43F7-997A-F2ED370E8D32";
shapes = (
{
closed = 1;
nodes = (
(140,83,o),
(176,50,o),
(238,50,cs),
(312,50,o),
(386,96,o),
(386,177,c),
(397,122,l),
(380,40,o),
(305,-20,o),
(213,-20,cs),
(114,-20,o),
(50,49,o),
(50,146,cs),
(50,243,o),
(114,312,o),
(216,312,cs),
(306,312,o),
(385,258,o),
(402,183,c),
(397,134,l),
(394,204,o),
(322,242,o),
(251,242,cs),
(181,242,o),
(140,205,o),
(140,142,cs)
);
},
{
closed = 1;
nodes = (
(426,520,o),
(476,444,o),
(476,352,cs),
(476,0,l),
(386,0,l),
(386,363.808,ls),
(386,429.955,o),
(343,450,o),
(289,450,cs),
(216,450,o),
(169,422.75,o),
(162,341,c),
(71,341,l),
(79.904,457,o),
(154,520,o),
(289,520,cs)
);
}
);
width = 570;
}
);
leftKerningGroup = a.ss02;
rightKerningGroup = a.ss021;
},
{
glyphname = Schwa.ss09;
layers = (
{
anchors = (
{
name = top;
position = "{390, 719}";
},
{
name = bottom;
position = "{390, -20}";
}
);
layerId = "CCC13C4D-3D6C-43F7-997A-F2ED370E8D32";
shapes = (
{
closed = 1;
nodes = (
(224.114,720,o),
(128.038,637,o),
(79,485,c),
(169,485,l),
(201.964,584,o),
(283.874,640,o),
(391.757,640,cs,{name = dv03;}),
(551.582,640,o),
(625.5,540.829,o),
(625.5,349.499,cs),
(625.5,167.185,o),
(538.5,60,o),
(391.5,60,cs,{name = dv02;}),
(252.5,60,o),
(153.5,153,o),
(153.5,318,c,{name = sh02;}),
(639,318,l,{name = dv05;}),
(638,398,l,{name = dv06;}),
(67,398,l,{name = sh04;}),
(65.25,383,o),
(63.5,362,o),
(63.5,347,cs,{name = sh01;}),
(63.5,125,o),
(193.5,-20,o),
(390.5,-20,cs,{name = dv01;}),
(587.5,-20,o),
(715.5,121,o),
(715.5,350,cs,{name = sh03;}),
(715.5,573,o),
(602.411,720,o),
(395.248,720,cs,{name = dv04;})
);
}
);
width = 779;
}
);
leftKerningGroup = C1;
rightKerningGroup = C;
},
{
glyphname = schwa.ss09;
layers = (
{
anchors = (
{
name = bottom;
position = "{302, -20}";
},
{
name = top;
position = "{302, 520}";
}
);
layerId = "CCC13C4D-3D6C-43F7-997A-F2ED370E8D32";
shapes = (
{
closed = 1;
nodes = (
(71,289,l),
(70,281,o),
(69,268,o),
(69,250,cs),
(69,80,o),
(154,-20,o),
(299,-20,cs),
(447,-20,o),
(535,87,o),
(535,249,cs),
(535,398,o),
(460,520,o),
(299,520,cs),
(168,520,o),
(97,441,o),
(73,351,c),
(163,351,l),
(179,400.5,o),
(223,450,o),
(299,450,cs),
(379,450,o),
(434,393.65,o),
(443,289,c)
);
},
{
closed = 1;
nodes = (
(441,219,l),
(435,112,o),
(385,50,o),
(297,50,cs),
(212,50,o),
(166,106,o),
(162,219,c)
);
}
);
width = 604;
}
);
leftKerningGroup = a;
rightKerningGroup = b1;
},
{
glyphname = Schwa.ss10;
layers = (
{
anchors = (
{
name = top;
position = "{390, 719}";
},
{
name = bottom;
position = "{390, -20}";
}
);
layerId = "CCC13C4D-3D6C-43F7-997A-F2ED370E8D32";
shapes = (
{
closed = 1;
nodes = (
(301,640,o),
(220,618.85,o),
(148,499,c),
(112,603,l),
(180,680,o),
(270,720,o),
(382,720,cs),
(592,720,o),
(716,581,o),
(716,357,cs,{name = sh03;}),
(716,129,o),
(587,-20,o),
(392,-20,cs,{name = dv01;}),
(193,-20,o),
(63,135,o),
(63,337,cs,{name = sh01;}),
(63,362,o),
(65,383,o),
(67,398,c,{name = sh04;}),
(650,398,l,{name = dv06;}),
(651,318,l,{name = dv05;}),
(154,318,l,{name = sh02;}),
(154,152.358,o),
(253,60,o),
(390,60,cs,{name = dv02;}),
(538,60,o),
(626,166.367,o),
(626,348.997,cs),
(626,534.637,o),
(535,640,o),
(373,640,cs)
);
}
);
width = 779;
}
);
leftKerningGroup = C1;
rightKerningGroup = C;
},
{
glyphname = schwa.ss10;
layers = (
{
anchors = (
{
name = bottom;
position = "{300, -20}";
},
{
name = top;
position = "{300, 520}";
}
);
layerId = "CCC13C4D-3D6C-43F7-997A-F2ED370E8D32";
shapes = (
{
closed = 1;
nodes = (
(153,219,l),
(153,113,o),
(205,50,o),
(292,50,cs),
(379,50,o),
(438,118,o),
(438,219,c)
);
},
{
closed = 1;
nodes = (
(440,520,o),
(531,420,o),
(531,250,cs),
(531,83,o),
(443,-20,o),
(295,-20,cs),
(147,-20,o),
(60,84,o),
(60,245,cs),
(60,269,o),
(62,280,o),
(63,289,c),
(439,289,l),
(439,387,o),
(379,450,o),
(287,450,cs),
(208,450,o),
(153,410,o),
(116,350,c),
(89,435,l),
(132,488,o),
(204,520,o),
(289,520,cs)
);
}
);
width = 600;
}
);
leftKerningGroup = a;
rightKerningGroup = b1;
},
{
glyphname = e.ss10;
layers = (
{
anchors = (
{
name = top;
position = "{297, 520}";
},
{
name = bottom;
position = "{297, -20}";
},
{
name = ogonek;
position = "{417, -3}";
}
);
layerId = "CCC13C4D-3D6C-43F7-997A-F2ED370E8D32";
shapes = (
{
closed = 1;
nodes = (
(430,303,l),
(430,390,o),
(374,450,o),
(293,450,cs),
(210,450,o),
(150,388,o),
(150,303,c)
);
},
{
closed = 1;
nodes = (
(382,50,o),
(442.684,74.365,o),
(485,150,c),
(512,65,l),
(469.095,12,o),
(397.253,-20,o),
(311.249,-20,cs),
(151.793,-20,o),
(58,90,o),
(58,255,cs),
(58,410,o),
(149.805,520,o),
(296.493,520,cs),
(442.183,520,o),
(528,407,o),
(528,238,c),
(149,238,l),
(149,104,o),
(217,50,o),
(307,50,cs)
);
}
);
width = 585;
}
);
leftKerningGroup = a;
rightKerningGroup = b1;
},
{
glyphname = e.ss09;
layers = (
{
anchors = (
{
name = top;
position = "{298, 520}";
},
{
name = bottom;
position = "{298, -20}";
},
{
name = ogonek;
position = "{407, -3}";
}
);
layerId = "CCC13C4D-3D6C-43F7-997A-F2ED370E8D32";
shapes = (
{
closed = 1;
nodes = (
(442,308,l),
(442,403,o),
(382,450,o),
(300,450,cs),
(217,450,o),
(149,402,o),
(149,308,c)
);
},
{
closed = 1;
nodes = (
(371,50,o),
(437,85.302,o),
(441,167,c),
(532,167,l),
(511,50,o),
(437,-20,o),
(300,-20,cs),
(149,-20,o),
(58,95,o),
(58,255,cs),
(58,401,o),
(141,520,o),
(300,520,cs),
(459,520,o),
(538,402,o),
(538,243,c),
(149,243,l),
(149,120.365,o),
(208,50,o),
(302,50,cs)
);
}
);
width = 595;
}
);
leftKerningGroup = a;
rightKerningGroup = b1;
},
{
glyphname = b.ss11;
layers = (
{
anchors = (
{
name = bottom;
position = "{348, -20}";
},
{
name = top;
position = "{330, 750}";
}
);
layerId = "CCC13C4D-3D6C-43F7-997A-F2ED370E8D32";
shapes = (
{
closed = 1;
nodes = (
(173,107,l),
(173,700,l),
(83,700,l),
(83,-10,l)
);
},
{
closed = 1;
nodes = (
(479,130.2,o),
(423,50,o),
(338,50,cs,{name = dv02;}),
(234,50,o),
(173,138.221,o),
(173,256.516,cs,{name = sh02;}),
(173,353.759,o),
(237,450,o),
(337,450,cs,{name = sv01;}),
(427,450,o),
(479,377.82,o),
(479,255.514,cs,{name = ah01;})
);
},
{
closed = 1;
nodes = (
(151,78.449,o),
(220.389,-20,o),
(344.826,-20,cs,{name = dv01;}),
(477,-20,o),
(569,91,o),
(569,255,cs,{name = sh03;}),
(569,416,o),
(488,520,o),
(355.211,520,cs,{name = at01;}),
(225,520,o),
(151,420,o),
(151,255,cs)
);
}
);
width = 629;
}
);
leftKerningGroup = b;
rightKerningGroup = b1;
},
{
glyphname = d.ss11;
layers = (
{
anchors = (
{
name = bottom;
position = "{305, -20}";
},
{
name = top;
position = "{318, 750}";
},
{
name = topright;
position = "{582, 700}";
}
);
layerId = "CCC13C4D-3D6C-43F7-997A-F2ED370E8D32";
shapes = (
{
closed = 1;
nodes = (
(452,104,l),
(542,-10,l),
(542,700,l),
(452,700,l)
);
},
{
closed = 1;
nodes = (
(150,376.817,o),
(207,450,o),
(288,450,cs),
(392,450,o),
(452,373.81,o),
(452,256.516,cs),
(452,133.208,o),
(386,50,o),
(287,50,cs),
(208,50,o),
(150,130.201,o),
(150,255.514,cs)
);
},
{
closed = 1;
nodes = (
(474,426,o),
(408,520,o),
(284,520,cs),
(145,520,o),
(60,419,o),
(60,255,cs),
(60,88,o),
(148,-20,o),
(284,-20,cs),
(412,-20,o),
(474,84,o),
(474,255,cs)
);
}
);
width = 635;
}
);
leftKerningGroup = a;
},
{
glyphname = f.ss11;
layers = (
{
anchors = (
{
name = top;
position = "{250, 750}";
},
{
name = bottom;
position = "{183, -20}";
}
);
layerId = "CCC13C4D-3D6C-43F7-997A-F2ED370E8D32";
shapes = (
{
closed = 1;
nodes = (
(144,430,l),
(144,0,l),
(234,0,l),
(234,430,l),
(365,430,l),
(365,500,l),
(234,500,l),
(234,569.463,ls),
(234,620.805,o),
(247,650,o),
(287,650,cs),
(306,650,o),
(329,645.636,o),
(376,638,c),
(376,707,l),
(334,716,o),
(315,720,o),
(276,720,cs),
(192,720,o),
(144,669,o),
(144,577,cs),
(144,500,l),
(32,500,l),
(32,430,l)
);
}
);
width = 423;
}
);
leftKerningGroup = f;
rightKerningGroup = f1;
},
{
glyphname = h.ss11;
layers = (
{
anchors = (
{
name = bottom;
position = "{318, -20}";
},
{
name = top;
position = "{139, 750}";
}
);
layerId = "CCC13C4D-3D6C-43F7-997A-F2ED370E8D32";
shapes = (
{
closed = 1;
nodes = (
(94,0,l),
(184,0,l),
(184,700,l),
(94,700,l)
);
},
{
closed = 1;
nodes = (
(177,274,l),
(184,217,l,{name = iv01;}),
(184,357.203,o),
(240,450,o),
(350,450,cs,{name = sv01;}),
(425,450,o),
(451,407.812,o),
(451,294.308,cs),
(451,0,l,{name = ab01;}),
(541,0,l),
(541,304,ls),
(541,448,o),
(486,520,o),
(372,520,cs,{name = at01;}),
(275,520,o),
(199,451,o),
(176,342,c)
);
}
);
width = 635;
}
);
leftKerningGroup = b;
rightKerningGroup = h;
},
{
glyphname = l.ss11;
layers = (
{
anchors = (
{
name = bottom;
position = "{136, -20}";
},
{
name = top;
position = "{136, 750}";
},
{
name = topright;
position = "{222, 700}";
}
);
layerId = "CCC13C4D-3D6C-43F7-997A-F2ED370E8D32";
shapes = (
{
closed = 1;
nodes = (
(181,700,l),
(91,700,l),
(91,0,l),
(181,0,l)
);
}
);
width = 272;
}
);
leftKerningGroup = b;
},
{
glyphname = t.ss11;
layers = (
{
anchors = (
{
name = top;
position = "{154, 630}";
},
{
name = bottom;
position = "{148, -20}";
},
{
name = topright;
position = "{237, 700}";
}
);
layerId = "CCC13C4D-3D6C-43F7-997A-F2ED370E8D32";
shapes = (
{
closed = 1;
nodes = (
(194,0,l),
(194,430,l),
(314,430,l),
(314,500,l),
(194,500,l),
(194,620,l),
(104,620,l),
(104,500,l),
(19,500,l),
(19,430,l),
(104,430,l),
(104,0,l)
);
}
);
width = 353;
}
);
leftKerningGroup = f;
},
{
glyphname = k.ss11;
layers = (
{
anchors = (
{
name = top;
position = "{129, 750}";
},
{
name = bottom;
position = "{296, -20}";
}
);
layerId = "CCC13C4D-3D6C-43F7-997A-F2ED370E8D32";
shapes = (
{
closed = 1;
nodes = (
(174,0,l,{name = ab02;}),
(174,700,l,{name = ab01;}),
(84,700,l),
(84,0,l,{name = sv03;})
);
},
{
closed = 1;
nodes = (
(354,345,l,{name = iv02;}),
(91,345,l),
(95,275,l),
(334,275,l,{name = iv01;}),
(445,0,l,{name = ab02;}),
(546,0,l),
(408,283,l),
(534,500,l,{name = av02;}),
(441,500,l)
);
}
);
width = 592;
}
);
leftKerningGroup = b;
rightKerningGroup = k;
},
{
glyphname = AE;
layers = (
{
anchors = (
{
name = top;
position = "{480, 719}";
},
{
name = bottom;
position = "{480, -20}";
}
);
layerId = "CCC13C4D-3D6C-43F7-997A-F2ED370E8D32";
shapes = (
{
closed = 1;
nodes = (
(815,0,l,{name = ab01;}),
(815,80,l,{name = sv01;}),
(504,80,l),
(504,325,l,{name = dv01;}),
(775,325,l),
(775,405,l),
(504,405,l,{name = dv02;}),
(504,620,l,{name = sv02;}),
(801,620,l),
(801,700,l,{name = at01;}),
(414,700,l),
(414,0,l)
);
},
{
closed = 1;
nodes = (
(270,620,l),
(489,620,l),
(490,700,l),
(304,700,l)
);
},
{
closed = 1;
nodes = (
(138,141,l,{name = dv01;}),
(491,141,l),
(457,221,l,{name = dv03;}),
(172,221,l,{name = dv02;})
);
},
{
closed = 1;
nodes = (
(259,700,l),
(32,0,l),
(128,0,l),
(339,700,l)
);
}
);
width = 880;
}
);
leftKerningGroup = A1;
rightKerningGroup = E;
unicode = 198;
},
{
glyphname = ae;
layers = (
{
anchors = (
{
name = top;
position = "{516, 520}";
},
{
name = bottom;
position = "{508, -20}";
}
);
layerId = "CCC13C4D-3D6C-43F7-997A-F2ED370E8D32";
shapes = (
{
closed = 1;
nodes = (
(462,0,l,{name = ab01;}),
(552,0,l),
(552,500,l,{name = av01;}),
(462.5,500,l)
);
},
{
closed = 1;
nodes = (
(484,422,o),
(412,520,o),
(279,520,cs,{name = at01;}),
(139,520,o),
(60,411,o),
(60,259,cs),
(60,99,o),
(148,-20,o),
(288,-20,cs,{name = dv01;}),
(415,-20,o),
(484,78,o),
(484,248,cs)
);
},
{
closed = 1;
nodes = (
(150,377.82,o),
(206.09,450,o),
(298.237,450,cs,{name = sv01;}),
(395.393,450,o),
(462.5,369.799,o),
(462.5,253.509,cs),
(462.5,139.223,o),
(397.396,50,o),
(301.242,50,cs,{name = dv02;}),
(209.095,50,o),
(150,131.203,o),
(150,256.516,cs)
);
},
{
closed = 1;
nodes = (
(552.5,298,l,{name = sv02;}),
(562.517,399,o),
(621.618,450,o),
(702.756,450,cs,{name = sv01;}),
(783.894,450,o),
(835.983,399,o),
(846,298,c,{name = dv04;})
);
},
{
closed = 1;
nodes = (
(806,-20,o),
(876,17,o),
(915,70,c),
(862,123,l),
(826.943,77,o),
(773.858,51,o),
(710.756,51,cs,{name = dv02;}),
(602.581,51,o),
(552.5,129,o),
(552.5,237,c,{name = sv04;}),
(939,237,l,{name = dv03;}),
(939,421,o),
(858,520,o),
(712,520,cs,{name = at01;}),
(571,520,o),
(476,427,o),
(476,251,cs,{name = sv03;}),
(476,72,o),
(574,-20,o),
(717,-20,cs,{name = dv01;})
);
}
);
width = 996;
}
);
leftKerningGroup = a;
rightKerningGroup = b1;
unicode = 230;
},
{
glyphname = hbar;
layers = (
{
anchors = (
{
name = bottom;
position = "{325, -20}";
},
{
name = top;
position = "{146, 890}";
}
);
layerId = "CCC13C4D-3D6C-43F7-997A-F2ED370E8D32";
shapes = (
{
closed = 1;
nodes = (
(100,0,l,{name = ab03;}),
(190,0,l),
(190,750,l,{name = ab01;}),
(100,750,l)
);
},
{
closed = 1;
nodes = (
(183,254,l),
(190,197,l,{name = iv01;}),
(190,337.203,o),
(246,430,o),
(356,430,cs,{name = sv01;}),
(431,430,o),
(457,387.812,o),
(457,274.308,cs),
(457,0,l,{name = ab01;}),
(547,0,l),
(547,284,ls),
(547,428,o),
(492,500,o),
(378,500,cs,{name = at01;}),
(281,500,o),
(205,431,o),
(182,322,c)
);
},
{
closed = 1;
nodes = (
(20,631,l),
(413.12,631,l),
(413.12,667,l),
(20,667,l)
);
}
);
width = 641;
}
);
leftKerningGroup = f;
rightKerningGroup = h;
unicode = 295;
},
{
glyphname = kgreenlandic;
layers = (
{
layerId = "CCC13C4D-3D6C-43F7-997A-F2ED370E8D32";
shapes = (
{
closed = 1;
nodes = (
(84,0,l),
(174,0,l),
(174,500,l),
(84,500,l)
);
},
{
closed = 1;
nodes = (
(351,300,l,{name = iv02;}),
(88,300,l),
(95,232,l),
(333,232,l,{name = iv01;}),
(446,0,l,{name = ab02;}),
(548,0,l),
(408,263,l),
(534,500,l,{name = av02;}),
(453,500,l)
);
}
);
width = 594;
}
);
leftKerningGroup = i;
rightKerningGroup = k;
unicode = 312;
},
{
glyphname = Lslash;
layers = (
{
layerId = "CCC13C4D-3D6C-43F7-997A-F2ED370E8D32";
shapes = (
{
closed = 1;
nodes = (
(0,280,l),
(0,231,l),
(350,469,l),
(350,518,l)
);
},
{
alignment = -1;
ref = L;
}
);
width = 554;
}
);
leftKerningGroup = Eth;
rightKerningGroup = L;
unicode = 321;
},
{
glyphname = lslash;
layers = (
{
layerId = "CCC13C4D-3D6C-43F7-997A-F2ED370E8D32";
shapes = (
{
closed = 1;
nodes = (
(6,291,l),
(6,250,l),
(292,445,l),
(292,486,l)
);
},
{
alignment = -1;
ref = l;
}
);
width = 350;
}
);
leftKerningGroup = f;
rightKerningGroup = l;
unicode = 322;
},
{
glyphname = OE;
layers = (
{
anchors = (
{
name = top;
position = "{484, 719}";
},
{
name = bottom;
position = "{484, -20}";
}
);
layerId = "CCC13C4D-3D6C-43F7-997A-F2ED370E8D32";
shapes = (
{
closed = 1;
nodes = (
(407.561,80,ls),
(251.084,80,o),
(157,181,o),
(157,349,cs),
(157,518,o),
(251.084,620,o),
(407.561,620,cs),
(500.316,620,l,{name = sv02;}),
(500.316,80,l,{name = sv01;})
);
},
{
closed = 1;
nodes = (
(580.315,700,l),
(399,700,ls,{name = at01;}),
(200,700,o),
(63,557,o),
(63,350,cs),
(63,142,o),
(199,0,o),
(399,0,cs),
(580.316,0,l,{name = ab01;})
);
},
{
closed = 1;
nodes = (
(902.315,0,l,{name = ab01;}),
(902.315,80,l,{name = sv01;}),
(591.315,80,l),
(591.315,325,l,{name = dv01;}),
(862.315,325,l),
(862.315,405,l),
(591.315,405,l,{name = dv02;}),
(591.315,620,l,{name = sv02;}),
(888.315,620,l),
(888.315,700,l,{name = at01;}),
(511.315,700,l),
(511.315,0,l)
);
}
);
width = 968;
}
);
leftKerningGroup = C1;
rightKerningGroup = E;
unicode = 338;
},
{
glyphname = oe;
layers = (
{
anchors = (
{
name = top;
position = "{479, 520}";
},
{
name = bottom;
position = "{479, -20}";
}
);
layerId = "CCC13C4D-3D6C-43F7-997A-F2ED370E8D32";
shapes = (
{
closed = 1;
nodes = (
(69.55,79,o),
(149.35,-20,o),
(290.9,-20,cs,{name = dv01;}),
(444.8,-20,o),
(523.65,79,o),
(523.65,255,cs),
(523.65,421,o),
(444.8,520,o),
(291.85,520,cs,{name = at01;}),
(149.35,520,o),
(69.55,421,o),
(69.55,255,cs)
);
},
{
closed = 1;
nodes = (
(438.15,115.327,o),
(391.6,50,o),
(292.8,50,cs,{name = dv02;}),
(200.65,50,o),
(155.05,118.342,o),
(155.05,255.025,cs),
(155.05,387.688,o),
(199.7,450,o),
(294.7,450,cs,{name = sv01;}),
(390.65,450,o),
(438.15,383.668,o),
(438.15,253.015,cs)
);
},
{
closed = 1;
nodes = (
(528.92,296,l,{name = sv02;}),
(538.52,398.329,o),
(595.359,450,o),
(674.355,450,cs,{name = sv01;}),
(753.351,450,o),
(803.446,398.329,o),
(813.08,296,c,{name = dv04;})
);
},
{
closed = 1;
nodes = (
(770.84,-20,o),
(839.96,17,o),
(879.32,70,c),
(828.44,123,l),
(793.77,76.361,o),
(741.766,50,o),
(680.131,50,cs,{name = dv02;}),
(574.195,50,o),
(525.08,128.419,o),
(525.08,237,c,{name = sv04;}),
(902.36,237,l,{name = dv03;}),
(902.36,421,o),
(820.76,520,o),
(674.84,520,cs,{name = at01;}),
(533.72,520,o),
(438.68,427,o),
(438.68,251,cs,{name = sv03;}),
(438.68,72,o),
(536.6,-20,o),
(679.64,-20,cs,{name = dv01;})
);
}
);
width = 957;
}
);
leftKerningGroup = a;
rightKerningGroup = b1;
unicode = 339;
},
{
glyphname = dotlessj;
layers = (
{
anchors = (
{
name = top;
position = "{163, 520}";
},
{
name = bottom;
position = "{100, -217}";
}
);
layerId = "CCC13C4D-3D6C-43F7-997A-F2ED370E8D32";
shapes = (
{
closed = 1;
nodes = (
(206,500,l),
(116,500,l,{name = av01;}),
(116,-58.858,ls),
(116,-127.965,o),
(108,-151,o),
(64,-151,cs,{name = dv02;}),
(46,-151,o),
(14,-145.643,o),
(-11,-136,c),
(-33,-198,l),
(9,-212,o),
(22,-221,o),
(79,-221,cs,{name = dv01;}),
(161,-221,o),
(206,-174,o),
(206,-68,cs)
);
}
);
width = 300;
}
);
leftKerningGroup = j1;
rightKerningGroup = j;
unicode = 567;
},
{
glyphname = Thorn;
layers = (
{
layerId = "CCC13C4D-3D6C-43F7-997A-F2ED370E8D32";
shapes = (
{
closed = 1;
nodes = (
(128,468,l),
(305,468,ls),
(427,468,o),
(468,442,o),
(468,365,cs),
(468,283,o),
(421,253,o),
(305,253,cs),
(140,253,l),
(140,173,l),
(315,173,ls),
(475,173,o),
(558,227,o),
(558,363,cs),
(558,497,o),
(477,548,o),
(315,548,cs),
(128,548,l)
);
},
{
closed = 1;
nodes = (
(178,0,l),
(178,700,l),
(88,700,l),
(88,0,l)
);
}
);
width = 617;
}
);
leftKerningGroup = B;
rightKerningGroup = P;
unicode = 222;
},
{
glyphname = thorn;
layers = (
{
layerId = "CCC13C4D-3D6C-43F7-997A-F2ED370E8D32";
shapes = (
{
closed = 1;
nodes = (
(93,-200,l,{name = av01;}),
(183,-200,l),
(183.01,117.12,l),
(211.59,36.31,o),
(267.41,-20,o),
(347,-20,cs,{name = dv01;}),
(489,-20,o),
(575,99,o),
(575,255,cs),
(575,411,o),
(498,520,o),
(353,520,cs,{name = at01;}),
(270.58,520,o),
(212.43,467.03,o),
(183.01,387.86,c),
(183.01,751,l),
(93.36,751,l)
);
},
{
closed = 1;
nodes = (
(485,130.19,o),
(428,50,o),
(338,50,cs,{name = dv02;}),
(246.31,50,o),
(183.01,140.619,o),
(183.01,255.36,cs),
(183.01,368.041,o),
(248.3,450,o),
(339,450,cs,{name = sv01;}),
(431,450,o),
(485,378.82,o),
(485,255.51,cs)
);
}
);
width = 635;
}
);
leftKerningGroup = b;
rightKerningGroup = b1;
unicode = 254;
},
{
glyphname = Eng;
layers = (
{
anchors = (
{
name = top;
position = "{376, 719}";
},
{
name = bottom;
position = "{378, -202}";
}
);
layerId = "CCC13C4D-3D6C-43F7-997A-F2ED370E8D32";
shapes = (
{
closed = 1;
nodes = (
(187,0,l,{name = ab01;}),
(187,554,l,{name = iv01;}),
(575,0,l,{name = ab02;}),
(655,24.601,l),
(655,700,l,{name = at01;}),
(565,700,l),
(565,146,l,{name = iv02;}),
(177,700,l,{name = at02;}),
(97,700,l),
(97,0,l)
);
},
{
closed = 1;
nodes = (
(210,-79,l),
(274,-176,o),
(344,-221,o),
(443,-221,cs,{name = dv01;}),
(578,-221,o),
(655,-137,o),
(655,21,cs),
(655,499,l,{name = at01;}),
(565,499,l),
(565,14,ls),
(565,-84,o),
(520,-141,o),
(438,-141,cs,{name = dv02;}),
(372,-141,o),
(318,-104,o),
(268,-21,c)
);
}
);
width = 752;
}
);
leftKerningGroup = B;
rightKerningGroup = H;
unicode = 330;
},
{
glyphname = eng;
layers = (
{
layerId = "CCC13C4D-3D6C-43F7-997A-F2ED370E8D32";
shapes = (
{
closed = 1;
nodes = (
(177,274,l),
(184,217,l,{name = iv01;}),
(184,356,o),
(240,448,o),
(350,448,cs,{name = sv01;}),
(425,448,o),
(451,406,o),
(451,293,cs),
(451,0,l,{name = ab01;}),
(541,0,l),
(541,304,ls),
(541,448,o),
(486,520,o),
(372,520,cs,{name = at01;}),
(275,520,o),
(199,451,o),
(176,342,c)
);
},
{
closed = 1;
nodes = (
(94,0,l,{name = ab02;}),
(184,0,l),
(184,500,l,{name = av01;}),
(94,500,l)
);
},
{
closed = 1;
nodes = (
(541,243,l),
(451,243,l,{name = av01;}),
(451,-58,ls),
(451,-127,o),
(443,-150,o),
(399,-150,cs,{name = dv02;}),
(381,-150,o),
(349,-145,o),
(324,-136,c),
(302,-198,l),
(344,-212,o),
(357,-221,o),
(414,-221,cs,{name = dv01;}),
(496,-221,o),
(541,-174,o),
(541,-68,cs)
);
}
);
width = 635;
}
);
leftKerningGroup = i;
rightKerningGroup = j;
unicode = 331;
},
{
glyphname = Icyr;
layers = (
{
anchors = (
{
name = top;
position = "{376, 719}";
},
{
name = bottom;
position = "{376, -20}";
}
);
layerId = "CCC13C4D-3D6C-43F7-997A-F2ED370E8D32";
shapes = (
{
closed = 1;
nodes = (
(655,0,l),
(655,700,l,{name = at01;}),
(575,700,l),
(187,146,l,{name = iv02;}),
(187,700,l,{name = at02;}),
(97,700,l),
(97,0,l),
(177,0,l,{name = ab01;}),
(565,554,l,{name = iv01;}),
(565,0,l,{name = ab02;})
);
}
);
width = 752;
}
);
leftKerningGroup = B;
rightKerningGroup = H;
unicode = 1048;
},
{
glyphname = Yacyr;
layers = (
{
anchors = (
{
name = top;
position = "{324, 719}";
},
{
name = bottom;
position = "{324, -20}";
}
);
layerId = "CCC13C4D-3D6C-43F7-997A-F2ED370E8D32";
shapes = (
{
closed = 1;
nodes = (
(560,0,l),
(560,700,l),
(292.216,700,ls),
(137.725,700,o),
(44,619,o),
(44,484,cs),
(44,348,o),
(140.883,264,o),
(296.515,264,cs),
(548,264,l),
(548,344,l),
(300.015,344,ls),
(178.617,344,o),
(134,381,o),
(134,482,cs),
(134,583,o),
(179.009,620,o),
(300.43,620,cs),
(470,620,l),
(470,0,l)
);
},
{
closed = 1;
nodes = (
(231,333,l),
(41,0,l),
(142,0,l),
(305,281,l)
);
}
);
width = 648;
}
);
leftKerningGroup = Yacyr;
rightKerningGroup = H;
unicode = 1071;
},
{
glyphname = Zhecyr;
layers = (
{
anchors = (
{
name = top;
position = "{463, 720}";
}
);
layerId = "CCC13C4D-3D6C-43F7-997A-F2ED370E8D32";
shapes = (
{
closed = 1;
nodes = (
(418,700,l),
(418,0,l),
(508,0,l),
(508,700,l)
);
},
{
closed = 1;
nodes = (
(434,335,l),
(652,335,ls),
(752,335,o),
(802,380,o),
(814,479,c),
(835,700,l),
(744,700,l),
(729,541,l),
(720,445,o),
(699,415,o),
(640,415,cs),
(434,415,l)
);
},
{
closed = 1;
nodes = (
(656,340,l),
(780,0,l),
(878,0,l),
(745,365,l)
);
},
{
closed = 1;
nodes = (
(492,335,l),
(492,415,l),
(283,415,ls),
(215,415,o),
(204,465,o),
(197,541,c),
(182,700,l),
(91,700,l),
(112,479,l),
(125,369,o),
(184,335,o),
(274,335,cs)
);
},
{
closed = 1;
nodes = (
(270,340,l),
(181,365,l),
(48,0,l),
(146,0,l)
);
}
);
width = 925;
}
);
leftKerningGroup = X;
rightKerningGroup = K;
unicode = 1046;
},
{
glyphname = Softcyr;
layers = (
{
layerId = "CCC13C4D-3D6C-43F7-997A-F2ED370E8D32";
shapes = (
{
closed = 1;
nodes = (
(97,700,l),
(97,0,l),
(343,0,ls),
(484,0,o),
(574,83,o),
(574,211,cs),
(574,341,o),
(481,419,o),
(340,419,cs),
(187,419,l),
(187,700,l)
);
},
{
closed = 1;
nodes = (
(187,80,l),
(187,339,l),
(340,339,ls),
(443,339,o),
(484,292,o),
(484,210,cs),
(484,128,o),
(443,80,o),
(340,80,cs)
);
}
);
width = 633;
}
);
leftKerningGroup = B;
rightKerningGroup = Ljecyr;
unicode = 1068;
},
{
glyphname = zhecyr;
layers = (
{
anchors = (
{
name = bottom;
position = "{398, -20}";
},
{
name = top;
position = "{400, 520}";
}
);
layerId = "CCC13C4D-3D6C-43F7-997A-F2ED370E8D32";
shapes = (
{
closed = 1;
nodes = (
(357,500,l),
(357,0,l),
(447,0,l,{name = ab01;}),
(447,500,l,{name = av01;})
);
},
{
closed = 1;
nodes = (
(403,231,l,{name = dv01;}),
(575,231,ls),
(653,231,o),
(697,274,o),
(708,352,c),
(726,500,l,{name = av02;}),
(635,500,l),
(623,385,l),
(616,329,o),
(599,301,o),
(535,301,cs),
(403,301,l,{name = dv02;})
);
},
{
closed = 1;
nodes = (
(556,240,l,{name = iv01;}),
(663,0,l,{name = ab02;}),
(764,0,l),
(652,251,l)
);
},
{
closed = 1;
nodes = (
(397,231,l,{name = dv01;}),
(397,301,l,{name = dv02;}),
(266,301,ls),
(201,301,o),
(184,329,o),
(177,385,c),
(165,500,l),
(74,500,l,{name = av02;}),
(91,350,l),
(102,272,o),
(146,231,o),
(224,231,cs)
);
},
{
closed = 1;
nodes = (
(244,240,l,{name = iv01;}),
(148,251,l),
(36,0,l),
(137,0,l,{name = ab02;})
);
}
);
width = 800;
}
);
leftKerningGroup = x;
rightKerningGroup = k;
unicode = 1078;
},
{
glyphname = efcyr;
layers = (
{
layerId = "CCC13C4D-3D6C-43F7-997A-F2ED370E8D32";
shapes = (
{
closed = 1;
nodes = (
(466,750,l),
(376,750,l),
(376,-200,l),
(466,-200,l)
);
},
{
closed = 1;
nodes = (
(207,51,o),
(159,119,o),
(159,255,cs),
(159,387,o),
(206,449,o),
(306,449,cs,{name = sv01;}),
(365,449,o),
(421,423,o),
(457,377,c),
(457,478,l),
(417,504,o),
(365,520,o),
(303,520,cs,{name = at01;}),
(153,520,o),
(69,421,o),
(69,255,cs),
(69,79,o),
(155,-20,o),
(304,-20,cs,{name = dv01;}),
(367,-20,o),
(421,-4,o),
(462,22,c),
(463,123,l),
(427,77,o),
(366,51,o),
(304,51,cs,{name = dv02;})
);
},
{
closed = 1;
nodes = (
(478,51,o),
(417,77,o),
(381,123,c),
(381,22,l),
(422,-4,o),
(477,-20,o),
(540,-20,cs,{name = dv01;}),
(689,-20,o),
(775,79,o),
(775,255,cs),
(775,421,o),
(691,520,o),
(541,520,cs,{name = at01;}),
(479,520,o),
(427,504,o),
(387,478,c),
(387,377,l),
(423,423,o),
(479,449,o),
(538,449,cs,{name = sv01;}),
(638,449,o),
(685,387,o),
(685,255,cs),
(685,119,o),
(637,51,o),
(540,51,cs,{name = dv02;})
);
}
);
width = 844;
}
);
leftKerningGroup = a;
rightKerningGroup = b1;
unicode = 1092;
},
{
glyphname = ljecyr;
layers = (
{
layerId = "CCC13C4D-3D6C-43F7-997A-F2ED370E8D32";
shapes = (
{
closed = 1;
nodes = (
(444,295,l),
(444,225,l),
(592,225,ls),
(647,225,o),
(670,199.345,o),
(670,150.172,cs),
(670,97.793,o),
(641,70,o),
(585,70,cs),
(468,70,l),
(456,162,l),
(413,165,l),
(398,0,l),
(592,0,ls),
(696,0,o),
(760,59,o),
(760,154.228,cs),
(760,245.316,o),
(710,295,o),
(597,295,cs)
);
},
{
closed = 1;
nodes = (
(136,500,l),
(136,168,o),
(123,50,o),
(63,50,cs),
(55,50,o),
(47,51,o),
(37,53,c),
(21,-16,l),
(36,-18,o),
(51,-20,o),
(61,-20,cs),
(193,-20,o),
(226,71,o),
(226,430,c),
(390,430,l),
(390,0,l),
(480,0,l),
(480,500,l)
);
}
);
width = 820;
}
);
rightKerningGroup = hardcyr;
unicode = 1113;
},
{
glyphname = njecyr;
layers = (
{
layerId = "CCC13C4D-3D6C-43F7-997A-F2ED370E8D32";
shapes = (
{
closed = 1;
nodes = (
(180,0,l),
(180,225,l),
(400,225,l),
(400,0,l),
(490,0,l),
(490,500,l),
(400,500,l),
(400,295,l),
(180,295,l),
(180,500,l),
(90,500,l),
(90,0,l)
);
},
{
closed = 1;
nodes = (
(454,295,l),
(454,225,l),
(612,225,ls),
(657,225,o),
(680,199.345,o),
(680,150.172,cs),
(680,99.931,o),
(645,70,o),
(588,70,cs),
(486,70,l),
(486,500,l),
(408,500,l),
(408,0,l),
(606,0,ls),
(710,0,o),
(770,57.965,o),
(770,154.228,cs),
(770,246.351,o),
(711,295,o),
(597,295,cs)
);
}
);
width = 830;
}
);
leftKerningGroup = i;
rightKerningGroup = hardcyr;
unicode = 1114;
},
{
glyphname = Ucyr;
layers = (
{
anchors = (
{
name = top;
position = "{306, 719}";
},
{
name = bottom;
position = "{317, -20}";
}
);
layerId = "CCC13C4D-3D6C-43F7-997A-F2ED370E8D32";
shapes = (
{
closed = 1;
nodes = (
(574,700,l),
(478,700,l),
(275,109,ls),
(249,33,o),
(187,20,o),
(91,20,c),
(91,-60,l),
(227,-60,o),
(302,-44,o),
(335,45,cs)
);
},
{
closed = 1;
nodes = (
(325,142,l),
(137,700,l),
(38,700,l),
(243,138,l),
(300,138,l)
);
}
);
width = 612;
}
);
unicode = 1059;
},
{
glyphname = Zecyr.ss09;
layers = (
{
anchors = (
{
name = bottom;
position = "{299, -20}";
},
{
name = top;
position = "{299, 719}";
}
);
layerId = "CCC13C4D-3D6C-43F7-997A-F2ED370E8D32";
shapes = (
{
closed = 1;
nodes = (
(447.4,-21,o),
(547.5,56,o),
(547.5,179,cs),
(547.5,294,o),
(486.339,355,o),
(356,371,c),
(473,399,o),
(514,451,o),
(514,542,cs),
(514,649,o),
(433,720,o),
(302,720,cs),
(156,720,o),
(76,633,o),
(52,502,c),
(142,502,l),
(157,598.701,o),
(216,640,o),
(300,640,cs),
(378,640,o),
(424,602.844,o),
(424,542.591,cs),
(424,474.304,o),
(377,402,o),
(261,402,c),
(261,327,l),
(407.629,327,o),
(457.5,268.783,o),
(457.5,190.491,cs),
(457.5,101.157,o),
(387.61,59,o),
(304.738,59,cs),
(199.9,59,o),
(151.974,102.314,o),
(135,197,c),
(45,197,l),
(71.026,66,o),
(149.103,-21,o),
(304.257,-21,cs)
);
}
);
width = 598;
}
);
rightKerningGroup = B1;
},
{
glyphname = Ereversedcyr.ss09;
layers = (
{
anchors = (
{
name = top;
position = "{387, 719}";
}
);
layerId = "CCC13C4D-3D6C-43F7-997A-F2ED370E8D32";
shapes = (
{
closed = 1;
nodes = (
(629,320,l),
(296,320,l),
(296,400,l),
(629,400,l)
);
},
{
closed = 1;
nodes = (
(710,135,o),
(571,-20,o),
(373,-20,cs),
(213,-20,o),
(96,79,o),
(63,261,c),
(153,261,l),
(169,140,o),
(260,60,o),
(376,60,cs),
(520,60,o),
(620,181,o),
(620,354,cs),
(620,524,o),
(524,640,o),
(383,640,cs),
(284,640,o),
(196,584,o),
(163,485,c),
(73,485,l),
(119,637,o),
(222,720,o),
(373,720,cs),
(573,720,o),
(710,572,o),
(710,355,cs)
);
}
);
width = 773;
}
);
leftKerningGroup = C1;
rightKerningGroup = C;
},
{
glyphname = zecyr.ss09;
layers = (
{
anchors = (
{
name = top;
position = "{262, 520}";
},
{
name = bottom;
position = "{282, -20}";
}
);
layerId = "CCC13C4D-3D6C-43F7-997A-F2ED370E8D32";
shapes = (
{
closed = 1;
nodes = (
(450,480,o),
(369.798,520,o),
(274.559,520,cs),
(151.249,520,o),
(69.043,454,o),
(52,331,c),
(142,331,l),
(146.977,404.619,o),
(191.772,450,o),
(272.402,450,cs),
(327.151,450,o),
(360,428.876,o),
(360,381.6,cs),
(360,334.324,o),
(327.188,279,o),
(185,279,c),
(185,219,l),
(322.292,219,o),
(378,189.827,o),
(378,131.482,cs),
(378,77.161,o),
(329.21,50,o),
(264.483,50,cs),
(184.819,50,o),
(146.979,91.353,o),
(142,167,c),
(52,167,l),
(63.026,53,o),
(140.212,-20,o),
(271.526,-20,cs),
(370.764,-20,o),
(468,22,o),
(468,129,cs),
(468,215,o),
(406.644,263,o),
(294,261,c),
(402.697,273,o),
(450,314,o),
(450,386,cs)
);
}
);
width = 525;
}
);
leftKerningGroup = s1;
rightKerningGroup = s;
},
{
glyphname = ereversedcyr.ss09;
layers = (
{
anchors = (
{
name = top;
position = "{305, 520}";
},
{
name = bottom;
position = "{305, -20}";
}
);
layerId = "CCC13C4D-3D6C-43F7-997A-F2ED370E8D32";
shapes = (
{
closed = 1;
nodes = (
(537,217,l),
(263,217,l),
(263,282,l),
(537,282,l)
);
},
{
closed = 1;
nodes = (
(165,-20,o),
(81,47,o),
(71,167,c),
(161,167,l),
(164,98.414,o),
(215,50,o),
(287,50,cs),
(393,50,o),
(452,122.362,o),
(452,246.985,cs),
(452,373.618,o),
(398,450,o),
(294,450,cs),
(222,450,o),
(167,401.593,o),
(159,331,c),
(69,331,l),
(87,457,o),
(172,520,o),
(295,520,cs),
(450,520,o),
(542,417,o),
(542,255,cs),
(542,85,o),
(446,-20,o),
(290,-20,cs)
);
}
);
width = 611;
}
);
leftKerningGroup = a;
rightKerningGroup = b1;
},
{
glyphname = Zecyr.ss10;
layers = (
{
anchors = (
{
name = bottom;
position = "{299, -20}";
},
{
name = top;
position = "{299, 719}";
}
);
layerId = "CCC13C4D-3D6C-43F7-997A-F2ED370E8D32";
shapes = (
{
closed = 1;
nodes = (
(245.791,60,o),
(164.902,81.15,o),
(93,201,c),
(57,97,l),
(125.069,20,o),
(215.161,-20,o),
(320.268,-20,cs),
(466.417,-20,o),
(547.5,57,o),
(547.5,184,cs),
(547.5,294,o),
(486.339,355,o),
(356,371,c),
(473,399,o),
(515,451,o),
(515,540,cs),
(515,648,o),
(442,720,o),
(302,720,cs),
(215,720,o),
(125,680,o),
(57,603,c),
(93,499,l),
(165,618.85,o),
(246,640,o),
(299,640,cs),
(386,640,o),
(425,607.865,o),
(425,547.612,cs),
(425,470.287,o),
(378,402,o),
(286,402,c),
(286,327,l),
(408.645,327,o),
(457.5,268.782,o),
(457.5,190.489,cs),
(457.5,102.158,o),
(393.589,60,o),
(306.708,60,cs)
);
}
);
width = 598;
}
);
rightKerningGroup = B1;
},
{
glyphname = Ereversedcyr.ss10;
layers = (
{
anchors = (
{
name = top;
position = "{357, 719}";
}
);
layerId = "CCC13C4D-3D6C-43F7-997A-F2ED370E8D32";
shapes = (
{
closed = 1;
nodes = (
(535,-20,o),
(672,137,o),
(672,357,cs),
(672,573,o),
(539,720,o),
(336,720,cs),
(230,720,o),
(140,680,o),
(72,603,c),
(108,499,l),
(165,593.671,o),
(245,640,o),
(334,640,cs),
(490,640,o),
(582,520.588,o),
(582,353.01,cs),
(582,184.429,o),
(479,60,o),
(323,60,cs),
(234,60,o),
(158,105.321,o),
(99,201,c),
(63,97,l),
(133,19,o),
(226,-20,o),
(329,-20,cs)
);
},
{
closed = 1;
nodes = (
(246,324,l),
(591,324,l),
(591,404,l),
(246,404,l)
);
}
);
width = 735;
}
);
leftKerningGroup = C1;
rightKerningGroup = C;
},
{
glyphname = zecyr.ss10;
layers = (
{
anchors = (
{
name = top;
position = "{250, 520}";
},
{
name = bottom;
position = "{257, -20}";
}
);
layerId = "CCC13C4D-3D6C-43F7-997A-F2ED370E8D32";
shapes = (
{
closed = 1;
nodes = (
(166,50,o),
(109,85.35,o),
(74,151,c),
(47,66,l),
(92,12,o),
(171,-20,o),
(243,-20,cs),
(371,-20,o),
(443,40,o),
(443,137,cs),
(443,226,o),
(372,251,o),
(248,260,c),
(375,274,o),
(425,320,o),
(425,386,cs),
(425,455,o),
(384,520,o),
(241,520,cs),
(169,520,o),
(91,488,o),
(47,435,c),
(74,350,l),
(109,415,o),
(165,450,o),
(236,450,cs),
(296,450,o),
(335,425,o),
(335,386,cs),
(335,324,o),
(279,288,o),
(175,288,c),
(175,228,l),
(319,228,o),
(353,198.836,o),
(353,132.463,cs),
(353,75.141,o),
(306,50,o),
(238,50,cs)
);
}
);
width = 500;
}
);
leftKerningGroup = s1;
rightKerningGroup = s;
},
{
glyphname = ereversedcyr.ss10;
layers = (
{
anchors = (
{
name = top;
position = "{293, 520}";
},
{
name = bottom;
position = "{293, -20}";
}
);
layerId = "CCC13C4D-3D6C-43F7-997A-F2ED370E8D32";
shapes = (
{
closed = 1;
nodes = (
(425,-20,o),
(516,91,o),
(516,255,cs),
(516,412,o),
(424,520,o),
(276,520,cs),
(184,520,o),
(112,488,o),
(69,435,c),
(96,350,l),
(130,410,o),
(198,450,o),
(266,450,cs),
(364,450,o),
(426,375,o),
(426,256,cs),
(426,134,o),
(370,50,o),
(272,50,cs),
(197,50,o),
(137,85,o),
(96,150,c),
(69,65,l),
(112,12,o),
(184,-20,o),
(276,-20,cs)
);
},
{
closed = 1;
nodes = (
(484,285,l),
(210,285,l),
(210,220,l),
(484,220,l)
);
}
);
width = 585;
}
);
leftKerningGroup = a;
rightKerningGroup = b1;
},
{
glyphname = efcyr.ss11;
layers = (
{
layerId = "CCC13C4D-3D6C-43F7-997A-F2ED370E8D32";
shapes = (
{
closed = 1;
nodes = (
(466,700,l),
(376,700,l),
(376,-200,l),
(466,-200,l)
);
},
{
closed = 1;
nodes = (
(207,51,o),
(159,119,o),
(159,255,cs),
(159,387,o),
(206,449,o),
(306,449,cs,{name = sv01;}),
(365,449,o),
(421,423,o),
(457,377,c),
(457,478,l),
(417,504,o),
(365,520,o),
(303,520,cs,{name = at01;}),
(153,520,o),
(69,421,o),
(69,255,cs),
(69,79,o),
(155,-20,o),
(304,-20,cs,{name = dv01;}),
(367,-20,o),
(421,-4,o),
(462,22,c),
(463,123,l),
(427,77,o),
(366,51,o),
(304,51,cs,{name = dv02;})
);
},
{
closed = 1;
nodes = (
(478,51,o),
(417,77,o),
(381,123,c),
(381,22,l),
(422,-4,o),
(477,-20,o),
(540,-20,cs,{name = dv01;}),
(689,-20,o),
(775,79,o),
(775,255,cs),
(775,421,o),
(691,520,o),
(541,520,cs,{name = at01;}),
(479,520,o),
(427,504,o),
(387,478,c),
(387,377,l),
(423,423,o),
(479,449,o),
(538,449,cs,{name = sv01;}),
(638,449,o),
(685,387,o),
(685,255,cs),
(685,119,o),
(637,51,o),
(540,51,cs,{name = dv02;})
);
}
);
width = 844;
}
);
leftKerningGroup = a;
rightKerningGroup = b1;
},
{
glyphname = djecyr.ss11;
layers = (
{
layerId = "CCC13C4D-3D6C-43F7-997A-F2ED370E8D32";
shapes = (
{
closed = 1;
nodes = (
(106,0,l),
(196,0,l),
(196,700,l),
(106,700,l)
);
},
{
closed = 1;
nodes = (
(189,254,l),
(196,197,l,{name = iv01;}),
(196,337.203,o),
(252,430,o),
(362,430,cs,{name = sv01;}),
(437,430,o),
(463,387.804,o),
(463,274.276,cs),
(463,0,l,{name = ab01;}),
(553,0,l),
(553,284,ls),
(553,428,o),
(498,500,o),
(384,500,cs,{name = at01;}),
(287,500,o),
(211,431,o),
(188,322,c)
);
},
{
closed = 1;
nodes = (
(20,580,l),
(393,580,l),
(393,616,l),
(20,616,l)
);
},
{
closed = 1;
nodes = (
(553,246,l),
(463,246,l,{name = av01;}),
(463,-58,ls),
(463,-127,o),
(455,-150,o),
(411,-150,cs,{name = dv02;}),
(393,-150,o),
(361,-145,o),
(336,-136,c),
(314,-198,l),
(356,-212,o),
(369,-221,o),
(426,-221,cs,{name = dv01;}),
(508,-221,o),
(553,-174,o),
(553,-68,cs)
);
}
);
width = 647;
}
);
leftKerningGroup = f;
rightKerningGroup = h;
},
{
glyphname = tshecyr.ss11;
layers = (
{
layerId = "CCC13C4D-3D6C-43F7-997A-F2ED370E8D32";
shapes = (
{
closed = 1;
nodes = (
(124,0,l,{name = ab03;}),
(214,0,l),
(214,700,l,{name = ab01;}),
(124,700,l)
);
},
{
closed = 1;
nodes = (
(207,254,l),
(214,197,l,{name = iv01;}),
(214,336,o),
(270,428,o),
(380,428,cs,{name = sv01;}),
(455,428,o),
(481,386,o),
(481,273,cs),
(481,0,l,{name = ab01;}),
(571,0,l),
(571,284,ls),
(571,428,o),
(516,500,o),
(402,500,cs,{name = at01;}),
(305,500,o),
(229,431,o),
(206,322,c)
);
},
{
closed = 1;
nodes = (
(20,580,l),
(425,580,l),
(425,616,l),
(20,616,l)
);
}
);
width = 665;
}
);
leftKerningGroup = f;
},
{
glyphname = thorn.ss11;
layers = (
{
layerId = "CCC13C4D-3D6C-43F7-997A-F2ED370E8D32";
shapes = (
{
closed = 1;
nodes = (
(93,-200,l,{name = av01;}),
(183,-200,l),
(183.1,116.87,l),
(211.71,36.2,o),
(267.5,-20,o),
(347,-20,cs,{name = dv01;}),
(489,-20,o),
(575,99,o),
(575,255,cs),
(575,411,o),
(498,520,o),
(353,520,cs,{name = at01;}),
(270.68,520,o),
(212.55,467.14,o),
(183.1,388.1,c),
(183.1,700,l),
(93.41,700,l)
);
},
{
closed = 1;
nodes = (
(485,130.19,o),
(428,50,o),
(338,50,cs,{name = dv02;}),
(248.01,50,o),
(183.1,139.257,o),
(183.1,250.99,cs),
(183.1,346.484,o),
(227.606,450,o),
(339,450,cs,{name = sv01;}),
(431,450,o),
(485,378.82,o),
(485,255.51,cs)
);
}
);
width = 635;
}
);
leftKerningGroup = b;
rightKerningGroup = b1;
},
{
glyphname = hbar.ss11;
layers = (
{
layerId = "CCC13C4D-3D6C-43F7-997A-F2ED370E8D32";
shapes = (
{
closed = 1;
nodes = (
(94,0,l),
(184,0,l),
(184,700,l),
(94,700,l)
);
},
{
closed = 1;
nodes = (
(177,254,l),
(184,197,l,{name = iv01;}),
(184,337.203,o),
(240,430,o),
(350,430,cs,{name = sv01;}),
(425,430,o),
(451,387.812,o),
(451,274.308,cs),
(451,0,l,{name = ab01;}),
(541,0,l),
(541,284,ls),
(541,428,o),
(486,500,o),
(372,500,cs,{name = at01;}),
(275,500,o),
(199,431,o),
(176,322,c)
);
},
{
closed = 1;
nodes = (
(5.795,601,l),
(368.303,601,l),
(368.303,635,l),
(5.795,635,l)
);
}
);
width = 635;
}
);
leftKerningGroup = f;
rightKerningGroup = h;
},
{
glyphname = lslash.ss11;
layers = (
{
layerId = "CCC13C4D-3D6C-43F7-997A-F2ED370E8D32";
shapes = (
{
closed = 1;
nodes = (
(23,335,l),
(23,262,l),
(249,411,l),
(249,484,l)
);
},
{
alignment = -1;
ref = l.ss11;
}
);
width = 272;
}
);
leftKerningGroup = f;
},
{
glyphname = Yacyr.ss08;
layers = (
{
anchors = (
{
name = top;
position = "{322, 719}";
},
{
name = bottom;
position = "{322, -20}";
}
);
layerId = "CCC13C4D-3D6C-43F7-997A-F2ED370E8D32";
shapes = (
{
closed = 1;
nodes = (
(558.5,0,l),
(558.5,700,l),
(306.158,700,ls),
(165.389,700,o),
(70.5,611,o),
(70.5,479,cs),
(70.5,341,o),
(170.526,254,o),
(329.516,254,c),
(468.5,254,l),
(468.5,0,l)
);
},
{
closed = 1;
nodes = (
(337.998,334,ls),
(214.984,334,o),
(161.5,381,o),
(161.5,480,cs),
(161.5,579,o),
(218.193,620,o),
(337.998,620,cs),
(468.5,620,l),
(468.5,334,l)
);
},
{
closed = 1;
nodes = (
(274.5,305,l),
(178.5,279,o),
(136.5,273,o),
(111.5,222,cs),
(86.5,171,o),
(106.5,56,o),
(86.5,0,c),
(177.5,0,l),
(192.5,60,o),
(175.5,150,o),
(192.5,190,cs),
(213.5,239,o),
(253.5,254,o),
(328.5,254,c)
);
}
);
width = 645;
}
);
leftKerningGroup = Yacyr;
rightKerningGroup = H;
},
{
glyphname = Ljecyr.ss08;
layers = (
{
layerId = "CCC13C4D-3D6C-43F7-997A-F2ED370E8D32";
shapes = (
{
closed = 1;
nodes = (
(547,0,l),
(637,0,ls),
(785,0,o),
(861,62,o),
(861,186,cs),
(861,315,o),
(779,380,o),
(621,380,cs),
(444,380,l),
(459,300,l),
(587,300,ls),
(729,300,o),
(771,275,o),
(771,188,cs),
(771,103,o),
(733,80,o),
(589,80,cs),
(549,80,l),
(553,2,l)
);
},
{
alignment = -1;
ref = Elcyr.ss08;
}
);
width = 920;
}
);
leftKerningGroup = A1;
rightKerningGroup = Ljecyr;
},
{
glyphname = Decyr.ss08;
layers = (
{
layerId = "CCC13C4D-3D6C-43F7-997A-F2ED370E8D32";
shapes = (
{
closed = 1;
nodes = (
(358,700,l),
(154,73,l),
(251,73,l),
(447,700,l)
);
},
{
closed = 1;
nodes = (
(414,700,l),
(610,73,l),
(709,73,l),
(505,700,l)
);
},
{
closed = 1;
nodes = (
(174,80,ls),
(80,80,o),
(39,63,o),
(39,-140,c),
(119,-140,l),
(119,-37,o),
(116,0,o),
(175,0,cs),
(680,0,ls),
(751,0,o),
(743,-32,o),
(743,-140,c),
(823,-140,l),
(823,63,o),
(790,80,o),
(695,80,cs)
);
}
);
width = 863;
}
);
leftKerningGroup = A1;
rightKerningGroup = A;
},
{
glyphname = decyr.ss08;
layers = (
{
layerId = "CCC13C4D-3D6C-43F7-997A-F2ED370E8D32";
shapes = (
{
closed = 1;
nodes = (
(524,64,l),
(619,64,l),
(454,500,l),
(327,500,l),
(162,64,l),
(258,64,l),
(391,447,l)
);
},
{
closed = 1;
nodes = (
(137,-140,l),
(138,-107,o),
(123,0,o),
(183,0,cs),
(593,0,ls),
(660,0,o),
(645,-102,o),
(645,-140,c),
(721,-140,l),
(721,18,o),
(700,71,o),
(604,71,cs),
(177,71,ls),
(81,71,o),
(60,18,o),
(60,-140,c)
);
}
);
width = 781;
}
);
leftKerningGroup = decyr.ss08;
rightKerningGroup = decyr.ss081;
},
{
glyphname = elcyr.ss08;
layers = (
{
layerId = "CCC13C4D-3D6C-43F7-997A-F2ED370E8D32";
shapes = (
{
closed = 1;
nodes = (
(275,408,l),
(416,0,l),
(515,0,l),
(323,500,l),
(227,500,l),
(35,0,l),
(134,0,l)
);
}
);
width = 550;
}
);
leftKerningGroup = decyr.ss08;
rightKerningGroup = decyr.ss081;
},
{
glyphname = ljecyr.ss08;
layers = (
{
layerId = "CCC13C4D-3D6C-43F7-997A-F2ED370E8D32";
shapes = (
{
closed = 1;
nodes = (
(368,295,l),
(368,225,l),
(560,225,ls),
(610,225,o),
(640,196,o),
(640,148,cs),
(640,100,o),
(610,71,o),
(562,71,cs),
(462,71,l),
(422,0,l),
(566,0,ls),
(685,0,o),
(730,62,o),
(730,149,cs),
(730,236,o),
(681,295,o),
(554,295,cs)
);
},
{
alignment = -1;
ref = elcyr.ss08;
}
);
width = 790;
}
);
leftKerningGroup = decyr.ss08;
rightKerningGroup = hardcyr;
},
{
glyphname = oe.ss09;
layers = (
{
layerId = "CCC13C4D-3D6C-43F7-997A-F2ED370E8D32";
shapes = (
{
closed = 1;
nodes = (
(63.55,79,o),
(143.35,-20,o),
(284.9,-20,cs,{name = dv01;}),
(438.8,-20,o),
(517.65,79,o),
(517.65,255,cs),
(517.65,421,o),
(438.8,520,o),
(285.85,520,cs,{name = at01;}),
(143.35,520,o),
(63.55,421,o),
(63.55,255,cs)
);
},
{
closed = 1;
nodes = (
(432.15,115.327,o),
(385.6,50,o),
(286.8,50,cs,{name = dv02;}),
(194.65,50,o),
(149.05,118.342,o),
(149.05,255.025,cs),
(149.05,387.688,o),
(193.7,450,o),
(288.7,450,cs,{name = sv01;}),
(384.65,450,o),
(432.15,383.668,o),
(432.15,253.015,cs)
);
},
{
closed = 1;
nodes = (
(520.55,308,l),
(520.55,402,o),
(585.15,450,o),
(664,450,cs),
(741.9,450,o),
(798.9,403,o),
(798.9,308,c)
);
},
{
closed = 1;
nodes = (
(576.6,50,o),
(520.55,120.365,o),
(520.55,243,c),
(890.1,243,l),
(890.1,402,o),
(815.05,520,o),
(664,520,cs),
(512.95,520,o),
(434.1,401,o),
(434.1,255,cs),
(434.1,95,o),
(520.55,-20,o),
(664,-20,cs),
(794.15,-20,o),
(864.45,50,o),
(884.4,167,c),
(797.95,167,l),
(794.15,85.302,o),
(731.45,50,o),
(665.9,50,cs)
);
}
);
width = 954;
}
);
leftKerningGroup = a;
rightKerningGroup = b1;
},
{
glyphname = oe.ss10;
layers = (
{
layerId = "CCC13C4D-3D6C-43F7-997A-F2ED370E8D32";
shapes = (
{
closed = 1;
nodes = (
(63.55,79,o),
(143.35,-20,o),
(284.9,-20,cs,{name = dv01;}),
(438.8,-20,o),
(517.65,79,o),
(517.65,255,cs),
(517.65,421,o),
(438.8,520,o),
(285.85,520,cs,{name = at01;}),
(143.35,520,o),
(63.55,421,o),
(63.55,255,cs)
);
},
{
closed = 1;
nodes = (
(432.15,115.327,o),
(385.6,50,o),
(286.8,50,cs,{name = dv02;}),
(194.65,50,o),
(149.05,118.342,o),
(149.05,255.025,cs),
(149.05,387.688,o),
(193.7,450,o),
(288.7,450,cs,{name = sv01;}),
(384.65,450,o),
(432.15,383.668,o),
(432.15,253.015,cs)
);
},
{
closed = 1;
nodes = (
(521.5,303,l),
(521.5,388,o),
(578.5,450,o),
(657.35,450,cs),
(734.3,450,o),
(787.5,390,o),
(787.5,303,c)
);
},
{
closed = 1;
nodes = (
(585.15,50,o),
(520.55,104,o),
(520.55,238,c),
(880.6,238,l),
(890.6,407,o),
(799.073,520,o),
(660.668,520,cs),
(521.314,520,o),
(434.1,410,o),
(434.1,255,cs),
(434.1,90,o),
(523.204,-20,o),
(674.686,-20,cs),
(756.39,-20,o),
(824.64,12,o),
(865.4,65,c),
(839.75,150,l),
(799.55,74.365,o),
(741.9,50,o),
(670.65,50,cs)
);
}
);
width = 944;
}
);
leftKerningGroup = a;
rightKerningGroup = b1;
},
{
glyphname = ae.ss13;
layers = (
{
layerId = "CCC13C4D-3D6C-43F7-997A-F2ED370E8D32";
shapes = (
{
closed = 1;
nodes = (
(367.57,520,o),
(418.52,492.39,o),
(445.99,450.31,c),
(483.73,493.55,o),
(537.91,520,o),
(607.86,520,cs),
(756.26,520,o),
(830,402,o),
(830,243,c),
(472.5,243,l),
(472.5,120.36,o),
(525.131,50,o),
(608.992,50,cs),
(670.55,50,o),
(729.423,85.3,o),
(733,167,c),
(824,167,l),
(804.41,50,o),
(735.41,-20,o),
(607.66,-20,cs),
(522.54,-20,o),
(457.9,22.02,o),
(420.06,90.59,c),
(373.994,18.24,o),
(309.445,-20,o),
(227.368,-20,cs),
(119.944,-20,o),
(46,45.506,o),
(46,146,cs),
(46,243,o),
(110.095,312,o),
(212.247,312,cs),
(285.306,312,o),
(351.113,276.52,o),
(382.5,223.13,c),
(382.5,363.8,ls),
(382.5,429.95,o),
(339.404,450,o),
(285.283,450,cs),
(212.121,450,o),
(165.016,422.75,o),
(158,341,c),
(67,341,l),
(75.9,457,o),
(150,520,o),
(285,520,cs)
);
},
{
closed = 1;
nodes = (
(136,83,o),
(172.073,50,o),
(234.199,50,cs),
(307.738,50,o),
(381.288,95.27,o),
(382.47,175.06,c),
(359.183,218.73,o),
(302.899,242,o),
(247.226,242,cs),
(177.083,242,o),
(136,205,o),
(136,142,cs)
);
},
{
closed = 1;
nodes = (
(734,308,l),
(734,403,o),
(680.448,450,o),
(607.258,450,cs),
(533.186,450,o),
(472.5,402,o),
(472.5,308,c)
);
}
);
width = 887;
}
);
leftKerningGroup = a.ss02;
},
{
glyphname = ae.ss14;
layers = (
{
layerId = "CCC13C4D-3D6C-43F7-997A-F2ED370E8D32";
shapes = (
{
closed = 1;
nodes = (
(160.277,520,o),
(92.58,488,o),
(52.15,435,c),
(78.06,350,l),
(110.71,410,o),
(176,450,o),
(249.91,450,cs),
(327.67,450,o),
(360.31,405,o),
(360.31,361,cs),
(360.31,313,o),
(322.87,281,o),
(228.79,281,cs),
(112.63,281,o),
(36.79,232,o),
(36.79,135,cs),
(36.79,38,o),
(112.63,-20,o),
(197.11,-20,cs),
(285.908,-20,o),
(362.252,28.467,o),
(393.44,104.64,c),
(432.22,26.6,o),
(505.16,-20,o),
(604.79,-20,cs),
(687.36,-20,o),
(756.33,12,o),
(797.51,65,c),
(771.59,150,l),
(731.111,74.36,o),
(673.053,50,o),
(601.303,50,cs),
(515.193,50,o),
(450.15,104,o),
(450.15,238,c),
(812.87,238,l),
(823.065,420,o),
(728.844,520,o),
(586.19,520,cs),
(514.057,520,o),
(455.49,492.25,o),
(415.83,445,c),
(385.17,492.78,o),
(328.041,520,o),
(247.719,520,cs)
);
},
{
closed = 1;
nodes = (
(360.15,166,ls),
(360.15,109,o),
(302.821,50,o),
(218.738,50,cs),
(168.098,50,o),
(123.19,71,o),
(123.19,133,cs),
(123.19,185,o),
(155.676,222,o),
(239.759,222,cs),
(300.91,222,o),
(340.085,242,o),
(360.15,273,c)
);
},
{
closed = 1;
nodes = (
(450,303,l),
(450,388,o),
(507.59,450,o),
(587.27,450,cs),
(665.03,450,o),
(718.79,390,o),
(718.79,303,c)
);
}
);
width = 867;
}
);
leftKerningGroup = a.ss02;
},
{
glyphname = germandbls;
layers = (
{
layerId = "CCC13C4D-3D6C-43F7-997A-F2ED370E8D32";
shapes = (
{
closed = 1;
nodes = (
(657,50,o),
(578,-20,o),
(460,-20,cs),
(382,-20,o),
(311,11,o),
(268,74,c),
(326,132,l),
(361.704,74.296,o),
(400.383,50,o),
(458.897,50,cs),
(510.469,50,o),
(567,69.03,o),
(567,129.126,cs),
(567,247.314,o),
(350.5,244.309,o),
(350.5,367.505,cs),
(350.5,455.645,o),
(462.5,495.709,o),
(462.5,588.857,cs),
(462.5,657.967,o),
(399.387,679,o),
(336.273,679,cs),
(238.097,679,o),
(184,627,o),
(184,535,cs),
(184,0,l),
(94,0,l),
(94,545,ls),
(94,680,o),
(194.89,749,o),
(329.743,749,cs),
(457.603,749,o),
(552.5,687,o),
(552.5,584,cs),
(552.5,472,o),
(440.5,445,o),
(440.5,383,cs),
(440.5,297,o),
(657,298,o),
(657,143,cs)
);
}
);
width = 725;
}
);
leftKerningGroup = b;
rightKerningGroup = germandbls;
unicode = 223;
},
{
glyphname = germandbls.ss09;
layers = (
{
layerId = "CCC13C4D-3D6C-43F7-997A-F2ED370E8D32";
shapes = (
{
closed = 1;
nodes = (
(447,279,o),
(642,250,o),
(642,134,cs),
(642,28,o),
(559,-20,o),
(445,-20,cs),
(341,-20,o),
(277,20,o),
(267,127,c),
(357,127,l),
(367,66,o),
(389,50,o),
(445,50,cs),
(505,50,o),
(552,67,o),
(552,132,cs),
(552,227,o),
(357,248,o),
(357,368,cs),
(357,449,o),
(448,466,o),
(448,568,cs),
(448,642,o),
(400,681,o),
(319,681,cs),
(221,681,o),
(184,625,o),
(184,517,cs),
(184,0,l),
(94,0,l),
(94,535,ls),
(94,685,o),
(191,751,o),
(321,751,cs),
(443,751,o),
(538,692,o),
(538,571,cs),
(538,452,o),
(447,453,o),
(447,372,cs)
);
}
);
width = 710;
}
);
leftKerningGroup = b;
rightKerningGroup = germandbls;
},
{
glyphname = germandbls.ss10;
layers = (
{
layerId = "CCC13C4D-3D6C-43F7-997A-F2ED370E8D32";
shapes = (
{
closed = 1;
nodes = (
(378,-20,o),
(304,12,o),
(261,65,c),
(288,150,l),
(347,58,o),
(423,50,o),
(462,50,cs),
(529,50,o),
(572,82,o),
(572,129,cs),
(572,232,o),
(345,248,o),
(345,370,cs),
(345,454,o),
(451,482,o),
(451,586,cs),
(451,649,o),
(402,680,o),
(324,680,cs),
(224,680,o),
(184,628,o),
(184,538,cs),
(184,0,l),
(94,0,l),
(94,535,ls),
(94,686,o),
(193,751,o),
(322,751,cs),
(454,751,o),
(541,683,o),
(541,580,cs),
(541,466,o),
(434,432,o),
(434,377,cs),
(434,296,o),
(662,273,o),
(662,126,cs),
(662,43,o),
(589,-20,o),
(468,-20,cs)
);
}
);
width = 730;
}
);
leftKerningGroup = b;
rightKerningGroup = germandbls;
},
{
glyphname = eth;
layers = (
{
layerId = "CCC13C4D-3D6C-43F7-997A-F2ED370E8D32";
shapes = (
{
closed = 1;
nodes = (
(158,647,l),
(283,587,o),
(458,452,o),
(487,379,c),
(464,422,o),
(396,471,o),
(305,471,cs),
(178,471,o),
(69,377,o),
(69,229,cs),
(69,85,o),
(169,-20,o),
(318,-20,cs),
(464,-20,o),
(567,81,o),
(567,253,cs),
(567,412,o),
(477,556,o),
(189,703,c)
);
},
{
closed = 1;
nodes = (
(412,401,o),
(477,341,o),
(477,232,cs),
(477,126,o),
(415,51,o),
(315,51,cs),
(222,51,o),
(159,115,o),
(159,225,cs),
(159,333,o),
(219,401,o),
(319,401,cs)
);
},
{
closed = 1;
nodes = (
(318,593,l),
(157,532,l),
(173,499,l),
(351,572,l)
);
},
{
closed = 1;
nodes = (
(351,572,l),
(505,634,l),
(489,670,l),
(318,593,l)
);
}
);
width = 636;
}
);
leftKerningGroup = a;
rightKerningGroup = b1;
unicode = 240;
},
{
glyphname = Germandbls;
layers = (
{
layerId = "CCC13C4D-3D6C-43F7-997A-F2ED370E8D32";
shapes = (
{
closed = 1;
nodes = (
(657,645,l),
(595,696,o),
(500,720,o),
(393,720,cs),
(202,720,o),
(106,644,o),
(106,489,cs),
(106,0,l),
(196,0,l),
(196,485.415,ls),
(196,591.754,o),
(265.153,640,o),
(399.39,640,cs),
(454.305,640,o),
(496,632,o),
(526,623,c),
(450.534,551,ls),
(399.53,502.339,o),
(373,459.261,o),
(373,412.267,cs),
(373,267.369,o),
(617,265.411,o),
(617,145.967,cs),
(617,88.204,o),
(561.348,51,o),
(490.344,51,cs),
(430.854,51,o),
(380,78,o),
(353,125,c),
(303,75,l),
(340,18,o),
(400.351,-20,o),
(492.824,-20,cs),
(622.287,-20,o),
(706,54,o),
(706,151,cs),
(706,313,o),
(463,322,o),
(463,424,cs),
(463,453,o),
(482,479,o),
(509,505,cs)
);
}
);
width = 765;
}
);
unicode = 7838;
},
{
glyphname = Germandbls.ss10;
layers = (
{
layerId = "CCC13C4D-3D6C-43F7-997A-F2ED370E8D32";
shapes = (
{
closed = 1;
nodes = (
(433,60,o),
(367,77,o),
(308,169,c),
(271,65,l),
(314,12,o),
(389,-20,o),
(479,-20,cs),
(589,-20,o),
(664,47,o),
(664,143,cs),
(664,303,o),
(403,294,o),
(403,405,cs),
(403,435,o),
(422,458,o),
(452,484,cs),
(613,624,l),
(551,677,o),
(456,720,o),
(336,720,cs),
(164,720,o),
(94,631,o),
(94,499,cs),
(94,0,l),
(184,0,l),
(184,504,ls),
(184,587,o),
(217,639,o),
(338,639,cs),
(393,639,o),
(450,628,o),
(483,609,c),
(375,515,ls),
(328,474,o),
(314,442,o),
(314,405,cs),
(314,247,o),
(573,247,o),
(573,133,cs),
(573,88,o),
(535,60,o),
(472,60,cs)
);
}
);
width = 723;
}
);
},
{
glyphname = Germandbls.ss09;
layers = (
{
layerId = "CCC13C4D-3D6C-43F7-997A-F2ED370E8D32";
shapes = (
{
closed = 1;
nodes = (
(407,553,ls),
(343,499,o),
(308,459,o),
(308,397,cs),
(308,225,o),
(574,290,o),
(574,143,cs),
(574,90,o),
(540,61,o),
(472,61,cs),
(402,61,o),
(364,91,o),
(362,157,c),
(272,157,l),
(290,38,o),
(352,-20,o),
(467,-20,cs),
(591,-20,o),
(664,47,o),
(664,149,cs),
(664,345,o),
(397,289,o),
(397,413,cs),
(397,461,o),
(437,493,o),
(460,512,cs),
(616,643,l),
(547,684,o),
(452,720,o),
(342,720,cs),
(162,720,o),
(94,624,o),
(94,489,cs),
(94,0,l),
(194,0,l),
(194,482,ls),
(194,594,o),
(243,639,o),
(352,639,cs),
(408,639,o),
(453,627,o),
(481,615,c)
);
}
);
width = 723;
}
);
},
{
glyphname = rho;
layers = (
{
anchors = (
{
name = topgr;
position = "{322, 520}";
}
);
layerId = "CCC13C4D-3D6C-43F7-997A-F2ED370E8D32";
shapes = (
{
closed = 1;
nodes = (
(183,-200,l),
(183,274,l),
(93,251,l),
(93,-200,l)
);
},
{
closed = 1;
nodes = (
(103,250,l),
(125,229,o),
(156,201,o),
(175,192,c),
(165,70,o),
(232,-20,o),
(350,-20,cs),
(480,-20,o),
(570,90,o),
(570,248,cs),
(570,425,o),
(484,520,o),
(330,520,cs),
(170,520,o),
(93,411,o),
(93,247,c)
);
},
{
closed = 1;
nodes = (
(480,118,o),
(430,50,o),
(328,50,cs),
(237,50,o),
(183,117,o),
(183,250,cs),
(183,385,o),
(233,450,o),
(329,450,cs),
(429,450,o),
(480,385,o),
(480,251,cs)
);
}
);
width = 630;
}
);
rightKerningGroup = b1;
unicode = 961;
},
{
glyphname = tonos.case;
layers = (
{
anchors = (
{
name = _topgr;
position = "{63, 500}";
},
{
name = topgr;
position = "{60, 699}";
}
);
layerId = "CCC13C4D-3D6C-43F7-997A-F2ED370E8D32";
shapes = (
{
closed = 1;
nodes = (
(63,702.054,l),
(23,551.054,l),
(86,551.054,l),
(146,702.054,l)
);
}
);
width = 167;
}
);
},
{
glyphname = eta;
layers = (
{
anchors = (
{
name = topgr;
position = "{300, 520}";
}
);
layerId = "CCC13C4D-3D6C-43F7-997A-F2ED370E8D32";
shapes = (
{
closed = 1;
nodes = (
(33,450,l),
(70,450,o),
(99,436,o),
(99,376,cs),
(99,0,l),
(189,0,l),
(189,384,ls),
(189,478,o),
(144,520,o),
(33,520,c)
);
},
{
closed = 1;
nodes = (
(182,292,l),
(189,237,l,{name = iv01;}),
(189,365.204,o),
(243,450,o),
(347,450,cs,{name = sv01;}),
(421,450,o),
(446,406.867,o),
(446,295.525,cs),
(446,-200,l,{name = ab01;}),
(536,-200,l),
(536,304,ls),
(536,448,o),
(484,520,o),
(378,520,cs,{name = at01;}),
(269,520,o),
(200,443,o),
(181,360,c)
);
}
);
width = 630;
}
);
leftKerningGroup = i;
rightKerningGroup = j;
unicode = 951;
},
{
glyphname = epsilon;
layers = (
{
anchors = (
{
name = topgr;
position = "{253, 520}";
}
);
layerId = "CCC13C4D-3D6C-43F7-997A-F2ED370E8D32";
shapes = (
{
closed = 1;
nodes = (
(78,314.781,o),
(109,265,o),
(234,256,c),
(108,240,o),
(59,200.606,o),
(59,128.712,cs),
(59,35.152,o),
(140,-20,o),
(250,-20,cs),
(340,-20,o),
(399,17,o),
(448,82,c),
(387,135,l),
(359,86,o),
(313,50,o),
(249,50,cs),
(190,50,o),
(149,81,o),
(149,127,cs),
(149,190,o),
(222,223,o),
(361,223,c),
(361,283,l),
(221,283,o),
(168,311.169,o),
(168,372.536,cs),
(168,417.807,o),
(199,450,o),
(252,450,cs),
(296,450,o),
(335,427.694,o),
(379,377,c),
(440,430,l),
(389,489,o),
(325,520,o),
(243,520,cs),
(142,520,o),
(78,471.235,o),
(78,385.896,cs)
);
}
);
width = 505;
}
);
leftKerningGroup = s1;
rightKerningGroup = s;
unicode = 949;
},
{
glyphname = lownumeralsign;
layers = (
{
layerId = "CCC13C4D-3D6C-43F7-997A-F2ED370E8D32";
shapes = (
{
closed = 1;
nodes = (
(207,68,l),
(150,68,l),
(29,-149,l),
(128,-149,l)
);
}
);
width = 241;
}
);
unicode = 885;
},
{
glyphname = alpha;
layers = (
{
anchors = (
{
name = topgr;
position = "{310, 520}";
}
);
layerId = "CCC13C4D-3D6C-43F7-997A-F2ED370E8D32";
shapes = (
{
closed = 1;
nodes = (
(146,-20,o),
(60,90,o),
(60,255,cs),
(60,423,o),
(150,520,o),
(279,520,cs),
(395.121,520,o),
(480.883,441.723,o),
(530.533,312.158,cs),
(562.976,227.494,o),
(580,120.932,o),
(580,0,c),
(491,0,l),
(489.89,84.379,o),
(487.547,213.75,o),
(453.863,312.158,cs),
(426.869,391.022,o),
(379.747,450,o),
(297,450,cs),
(204,450,o),
(150,375,o),
(150,254,cs),
(150,128,o),
(208,50,o),
(300,50,cs),
(414.23,50,o),
(462.325,170.898,o),
(480.646,300.325,cs),
(490.553,370.312,o),
(491.755,442.793,o),
(490,500,c),
(580,500,l),
(580,409.809,o),
(566.889,324.46,o),
(543.198,249.972,cs),
(492.288,89.907,o),
(392.519,-20,o),
(269,-20,cs)
);
}
);
width = 673;
}
);
leftKerningGroup = a;
rightKerningGroup = a1;
unicode = 945;
},
{
glyphname = beta;
layers = (
{
anchors = (
{
name = topgr;
position = "{315, 721}";
}
);
layerId = "CCC13C4D-3D6C-43F7-997A-F2ED370E8D32";
shapes = (
{
closed = 1;
nodes = (
(94,-200,l),
(184,-200,l),
(184,500,ls),
(184,607,o),
(234,649,o),
(319,649,cs),
(408,649,o),
(459,612.862,o),
(459,527.536,cs),
(459,446.226,o),
(412,387,o),
(354,387,cs),
(268,387,l),
(268,328,l),
(354,328,ls),
(433,328,o),
(490,283,o),
(490,195,cs),
(490,102,o),
(426,50,o),
(339,50,cs),
(271,50,o),
(184,82,o),
(184,179,c),
(172,80,l),
(203,8,o),
(268,-20,o),
(344.865,-20,cs),
(478,-20,o),
(580,62.849,o),
(580,188.11,cs),
(580,281.808,o),
(522,340,o),
(405,361,c),
(500,380,o),
(549,436.838,o),
(549,530.216,cs),
(549,646.937,o),
(472,719,o),
(326,719,cs),
(180,719,o),
(94,648,o),
(94,516,cs)
);
}
);
width = 630;
}
);
leftKerningGroup = b;
rightKerningGroup = germandbls;
unicode = 946;
},
{
glyphname = omega;
layers = (
{
anchors = (
{
name = topgr;
position = "{416, 520}";
}
);
layerId = "CCC13C4D-3D6C-43F7-997A-F2ED370E8D32";
shapes = (
{
closed = 1;
nodes = (
(137,500,l),
(92,422,o),
(69,342,o),
(69,252,cs),
(69,84,o),
(147,-20,o),
(272,-20,cs),
(339,-20,o),
(385,10,o),
(416,71,c),
(447,10,o),
(493,-20,o),
(560,-20,cs),
(685,-20,o),
(763,84,o),
(763,251,cs),
(763,342,o),
(739,429,o),
(699,500,c),
(599,500,l),
(642,432,o),
(673,356,o),
(673,252,cs),
(673,136,o),
(637,50,o),
(555,50,cs),
(494,50,o),
(461,88,o),
(461,157,cs),
(461,361,l),
(371,361,l),
(371,157,ls),
(371,88,o),
(337,50,o),
(277,50,cs),
(197,50,o),
(159,137,o),
(159,255,cs),
(159,344,o),
(182,413,o),
(233,500,c)
);
}
);
width = 832;
}
);
leftKerningGroup = a;
rightKerningGroup = b1;
unicode = 969;
},
{
glyphname = nu;
layers = (
{
layerId = "CCC13C4D-3D6C-43F7-997A-F2ED370E8D32";
shapes = (
{
closed = 1;
nodes = (
(285,52,l),
(386,52,o),
(435,129,o),
(435,262,cs),
(435,366,o),
(405,442,o),
(371,500,c),
(472,500,l),
(504,444,o),
(526,352,o),
(526,268,cs),
(526,96,o),
(434,-19,o),
(301,-19,cs),
(224,-19,l),
(35,500,l),
(131,500,l)
);
}
);
width = 595;
}
);
leftKerningGroup = v;
unicode = 957;
},
{
glyphname = phi;
layers = (
{
anchors = (
{
name = topgr;
position = "{375, 520}";
}
);
layerId = "CCC13C4D-3D6C-43F7-997A-F2ED370E8D32";
shapes = (
{
closed = 1;
nodes = (
(185,500,l),
(119,460,o),
(69,382,o),
(69,251,cs),
(69,115,o),
(119,-20,o),
(328,-20,c),
(328,-200,l),
(418,-200,l),
(418,-20,l),
(596,-20,o),
(681,70,o),
(681,250,cs),
(681,421,o),
(594,520,o),
(450,520,cs),
(380,520,o),
(328,497.953,o),
(328,414.776,cs),
(328,50,l),
(208,50,o),
(159,109.151,o),
(159,251.515,cs),
(159,331.721,o),
(173,406.913,o),
(244,441,c)
);
},
{
closed = 1;
nodes = (
(418,410.804,ls),
(418,437.94,o),
(427.052,450,o),
(459.238,450,cs),
(539.703,450,o),
(591,375.628,o),
(591,252.01,cs),
(591,108.291,o),
(541.715,50,o),
(418,50,c)
);
}
);
width = 750;
}
);
leftKerningGroup = a;
rightKerningGroup = b1;
unicode = 966;
},
{
glyphname = psi;
layers = (
{
anchors = (
{
name = topgr;
position = "{387, 656}";
}
);
layerId = "CCC13C4D-3D6C-43F7-997A-F2ED370E8D32";
shapes = (
{
closed = 1;
nodes = (
(86,500,l),
(86,206,ls),
(86,70,o),
(209,-20,o),
(387,-20,cs),
(563,-20,o),
(687,70,o),
(687,206,cs),
(687,500,l),
(597,500,l),
(597,206,ls),
(597,115,o),
(507,51,o),
(388,51,cs),
(276,51,o),
(176,108,o),
(176,206,cs),
(176,500,l)
);
},
{
closed = 1;
nodes = (
(341,-200,l),
(431,-200,l),
(431,656,l),
(341,656,l)
);
}
);
width = 774;
}
);
unicode = 968;
},
{
glyphname = questiongreek;
layers = (
{
layerId = "CCC13C4D-3D6C-43F7-997A-F2ED370E8D32";
shapes = (
{
closed = 1;
nodes = (
(161,119,l),
(103,119,l),
(-6,-149,l),
(89,-149,l)
);
},
{
alignment = -1;
pos = (7,381);
ref = period;
}
);
width = 277;
}
);
unicode = 894;
},
{
glyphname = "numeral-greek";
layers = (
{
layerId = "CCC13C4D-3D6C-43F7-997A-F2ED370E8D32";
shapes = (
{
closed = 1;
nodes = (
(208,715,l),
(151,715,l),
(30,498,l),
(129,498,l)
);
}
);
width = 243;
}
);
unicode = 884;
},
{
glyphname = epsilon.ss09;
layers = (
{
anchors = (
{
name = topgr;
position = "{267, 519}";
}
);
layerId = "CCC13C4D-3D6C-43F7-997A-F2ED370E8D32";
shapes = (
{
closed = 1;
nodes = (
(78,314,o),
(125,273,o),
(233,261,c),
(121,263,o),
(59,225,o),
(59,133,cs),
(59,12,o),
(166,-20,o),
(256,-20,cs),
(393,-20,o),
(472,53,o),
(483,167,c),
(393,167,l),
(388,91.353,o),
(348,50,o),
(267,50,cs),
(215,50,o),
(147,67.101,o),
(147,136.512,cs),
(147,199.887,o),
(204,219,o),
(342,219,c),
(342,279,l),
(199,279,o),
(166,334.324,o),
(166,377.576,cs),
(166,428.876,o),
(211,450,o),
(265,450,cs),
(343,450,o),
(389,404.619,o),
(393,331,c),
(483,331,l),
(468,454,o),
(384,520,o),
(264,520,cs),
(170,520,o),
(78,480,o),
(78,383,cs)
);
}
);
width = 540;
}
);
leftKerningGroup = a;
rightKerningGroup = b1;
},
{
glyphname = sigmafinal.ss09;
layers = (
{
anchors = (
{
name = topgr;
position = "{305, 519}";
}
);
layerId = "CCC13C4D-3D6C-43F7-997A-F2ED370E8D32";
shapes = (
{
closed = 1;
nodes = (
(211,450,o),
(149,380.652,o),
(149,246.982,cs),
(149,132.408,o),
(195,51,o),
(348,51,cs),
(485,51,o),
(553,-13.742,o),
(553,-99.401,cs),
(553,-147.21,o),
(531,-181.075,o),
(514,-200,c),
(420,-200,l),
(445,-165,o),
(463,-142,o),
(463,-107,cs),
(463,-49,o),
(417,-19,o),
(323,-19,cs),
(151,-19,o),
(59,81,o),
(59,250,cs),
(59,417,o),
(149,520,o),
(303,520,cs),
(423,520,o),
(516,457,o),
(531,331,c),
(441,331,l),
(433,401.593,o),
(382,450,o),
(304,450,cs)
);
}
);
width = 610;
}
);
leftKerningGroup = a;
},
{
glyphname = epsilon.ss10;
layers = (
{
anchors = (
{
name = topgr;
position = "{250, 519}";
}
);
layerId = "CCC13C4D-3D6C-43F7-997A-F2ED370E8D32";
shapes = (
{
closed = 1;
nodes = (
(332,520,o),
(400,488,o),
(443,435,c),
(416,350,l),
(382,410,o),
(319,450,o),
(251,450,cs),
(197,450,o),
(167,425,o),
(167,386,cs),
(167,324,o),
(243,288,o),
(367,288,c),
(367,228,l),
(203,228,o),
(149,198.836,o),
(149,134.475,cs),
(149,75.141,o),
(194,50,o),
(250,50,cs),
(324,50,o),
(385,93.43,o),
(416,151,c),
(443,66,l),
(396,9,o),
(327,-20,o),
(246,-20,cs),
(129,-20,o),
(59,40,o),
(59,133,cs),
(59,226,o),
(130,251,o),
(254,260,c),
(127,274,o),
(77,320,o),
(77,388,cs),
(77,455,o),
(126,520,o),
(247,520,cs)
);
}
);
width = 500;
}
);
leftKerningGroup = a;
rightKerningGroup = b1;
},
{
glyphname = sigmafinal.ss10;
layers = (
{
anchors = (
{
name = topgr;
position = "{297, 519}";
}
);
layerId = "CCC13C4D-3D6C-43F7-997A-F2ED370E8D32";
shapes = (
{
closed = 1;
nodes = (
(387,520,o),
(462,488,o),
(507,435,c),
(480,350,l),
(415,445,o),
(343,450,o),
(316,450,cs),
(212,450,o),
(149,374,o),
(149,251,cs),
(149,135,o),
(205,50,o),
(341,50,cs),
(458,50,o),
(538,-13,o),
(538,-101,cs),
(538,-138,o),
(524,-172,o),
(504,-200,c),
(412,-200,l),
(435,-168,o),
(448,-142,o),
(448,-108,cs),
(448,-50,o),
(412,-20,o),
(319,-20,cs),
(119,-20,o),
(59,118,o),
(59,249,cs),
(59,411,o),
(150,520,o),
(304,520,cs)
);
}
);
width = 595;
}
);
leftKerningGroup = a;
},
{
glyphname = c.ss12;
layers = (
{
anchors = (
{
name = top;
position = "{310, 520}";
},
{
name = bottom;
position = "{310, -20}";
}
);
layerId = "CCC13C4D-3D6C-43F7-997A-F2ED370E8D32";
shapes = (
{
closed = 1;
nodes = (
(493,134,l),
(435,77,o),
(379,50,o),
(313,50,cs),
(214,50,o),
(159,131,o),
(159,255,cs),
(159,377,o),
(210,450,o),
(311,450,cs),
(373,450,o),
(419,431,o),
(494,377,c),
(501,441,l),
(450,494,o),
(386,520,o),
(309,520,cs),
(157,520,o),
(69,411,o),
(69,255,cs),
(69,91,o),
(163,-20,o),
(315,-20,cs),
(388,-20,o),
(443,7,o),
(500,69,c)
);
}
);
width = 570;
}
);
leftKerningGroup = a;
rightKerningGroup = b1;
},
